<svg width="176" height="68" viewBox="0 0 176 68" fill="none" xmlns="http://www.w3.org/2000/svg">
<g filter="url(#filter0_d_167_827)">
<rect x="10" y="8" width="156" height="48" rx="8" fill="#F7FAFB"/>
<g clip-path="url(#clip0_167_827)">
<path d="M72.2249 20.4482C73.8697 20.4482 74.8414 21.4762 74.8414 23.2244C74.8414 24.9725 73.8729 26.0045 72.2249 26.0045H70.3611V20.4482H72.2249ZM71.0527 25.3817H72.1787C73.4352 25.3817 74.1347 24.6113 74.1347 23.2332C74.1347 21.8551 73.4392 21.0727 72.1787 21.0727H71.0527V25.3817Z" fill="#333333"/>
<path d="M75.7915 24.0029C75.7915 22.7244 76.5372 21.9309 77.6433 21.9309C78.7494 21.9309 79.4919 22.7244 79.4919 24.0029C79.4919 25.2813 78.7463 26.0748 77.6433 26.0748C76.5404 26.0748 75.7915 25.2773 75.7915 24.0029ZM78.8115 24.0029C78.8115 23.0594 78.3508 22.5203 77.6433 22.5203C76.9359 22.5203 76.4711 23.0594 76.4711 24.0029C76.4711 24.9463 76.9359 25.4854 77.6433 25.4854C78.3508 25.4854 78.8115 24.9463 78.8115 24.0029Z" fill="#333333"/>
<path d="M84.5276 26.0054H83.8472L82.944 22.9054H82.9289L82.0297 26.0054H81.3493L80.2312 22.0002H80.8957L81.6946 25.2581H81.7098L82.613 22.0002H83.2583L84.1655 25.2581H84.1807L84.9796 22.0002H85.6409L84.5268 26.0054H84.5276Z" fill="#333333"/>
<path d="M86.5807 22.0002H87.211V22.6398H87.2261C87.4489 22.2084 87.8755 21.9316 88.4938 21.9316C89.3699 21.9316 89.8768 22.4979 89.8768 23.4062V26.0053H89.2084V23.5251C89.2084 22.8783 88.9044 22.5242 88.2901 22.5242C87.6757 22.5242 87.2484 22.9708 87.2484 23.6487V26.0053H86.5799V22.0002H86.5807Z" fill="#333333"/>
<path d="M91.1548 20.4482H91.8233V26.0053H91.1548V20.4482Z" fill="#333333"/>
<path d="M92.9239 24.0029C92.9239 22.7244 93.6695 21.9309 94.7757 21.9309C95.8818 21.9309 96.6243 22.7244 96.6243 24.0029C96.6243 25.2813 95.8786 26.0748 94.7757 26.0748C93.6727 26.0748 92.9239 25.2773 92.9239 24.0029ZM95.9439 24.0029C95.9439 23.0594 95.4831 22.5203 94.7757 22.5203C94.0682 22.5203 93.6035 23.0594 93.6035 24.0029C93.6035 24.9463 94.0682 25.4854 94.7757 25.4854C95.4831 25.4854 95.9439 24.9463 95.9439 24.0029Z" fill="#333333"/>
<path d="M97.5283 24.8729C97.5283 24.1871 98.0551 23.7564 98.9766 23.7022L100.122 23.6368V23.3018C100.122 22.813 99.7986 22.5203 99.2456 22.5203C98.7307 22.5203 98.4076 22.7627 98.3232 23.1559H97.6779C97.724 22.4629 98.3161 21.9309 99.2607 21.9309C100.205 21.9309 100.79 22.4389 100.79 23.2364V26.0054H100.156V25.3164H100.141C99.9029 25.7749 99.3952 26.0748 98.8572 26.0748C98.0614 26.0748 97.5275 25.5931 97.5275 24.8729H97.5283ZM100.122 24.4838V24.1568L99.0538 24.2222C98.5158 24.2565 98.2087 24.4957 98.2087 24.8729C98.2087 25.2502 98.5278 25.5046 99.0076 25.5046C99.6379 25.5046 100.122 25.0619 100.122 24.4838Z" fill="#333333"/>
<path d="M101.837 24.0028C101.837 22.7475 102.525 21.9308 103.532 21.9308C104.104 21.9308 104.565 22.2115 104.803 22.651H104.818V20.4482H105.487V26.0053H104.849V25.3274H104.837C104.58 25.7892 104.123 26.0747 103.547 26.0747C102.528 26.0747 101.837 25.2581 101.837 24.0028H101.837ZM102.522 24.0028C102.522 24.9119 102.967 25.4853 103.675 25.4853C104.382 25.4853 104.824 24.9 104.824 24.0028C104.824 23.1056 104.363 22.5202 103.675 22.5202C102.987 22.5202 102.522 23.0976 102.522 24.0028Z" fill="#333333"/>
<path d="M108.596 24.0029C108.596 22.7244 109.342 21.9309 110.448 21.9309C111.554 21.9309 112.296 22.7244 112.296 24.0029C112.296 25.2813 111.551 26.0748 110.448 26.0748C109.345 26.0748 108.596 25.2773 108.596 24.0029ZM111.616 24.0029C111.616 23.0594 111.155 22.5203 110.448 22.5203C109.74 22.5203 109.276 23.0594 109.276 24.0029C109.276 24.9463 109.74 25.4854 110.448 25.4854C111.155 25.4854 111.616 24.9463 111.616 24.0029Z" fill="#333333"/>
<path d="M113.362 22.0002H113.992V22.6398H114.007C114.23 22.2084 114.657 21.9316 115.275 21.9316C116.151 21.9316 116.658 22.4979 116.658 23.4062V26.0053H115.99V23.5251C115.99 22.8783 115.686 22.5242 115.071 22.5242C114.457 22.5242 114.03 22.9708 114.03 23.6487V26.0053H113.361V22.0002H113.362Z" fill="#333333"/>
<path d="M120.792 21.0337V22.0003H121.568V22.5514H120.792V24.9311C120.792 25.2972 120.946 25.4623 121.288 25.4623C121.365 25.4623 121.519 25.4503 121.565 25.4431V26.0054C121.484 26.0245 121.3 26.0365 121.142 26.0365C120.408 26.0365 120.124 25.7358 120.124 24.9662V22.5506H119.528V21.9995H120.124V21.0337H120.792Z" fill="#333333"/>
<path d="M122.707 20.4482H123.376V22.6398H123.391C123.614 22.1932 124.052 21.9316 124.659 21.9316C125.535 21.9316 126.065 22.525 126.065 23.4182V26.0061H125.396V23.5418C125.396 22.9062 125.077 22.525 124.451 22.525C123.787 22.525 123.375 22.9796 123.375 23.6726V26.0061H122.707V20.4482H122.707Z" fill="#333333"/>
<path d="M130.617 24.8578C130.501 25.5588 129.825 26.0748 128.953 26.0748C127.808 26.0748 127.112 25.2773 127.112 24.018C127.112 22.7587 127.819 21.9309 128.922 21.9309C130.025 21.9309 130.666 22.7165 130.666 23.9295V24.1839H127.8V24.2222C127.8 24.9886 128.249 25.4926 128.968 25.4926C129.475 25.4926 129.848 25.235 129.959 24.857H130.617V24.8578ZM127.804 23.6599H129.975C129.959 22.99 129.54 22.5123 128.91 22.5123C128.28 22.5123 127.845 22.994 127.803 23.6599H127.804Z" fill="#333333"/>
<path d="M73.8029 30.458H75.5329L79.2787 40.7946H77.5988L76.655 38.0009H72.6809L71.7299 40.7946H70.05L73.8029 30.458ZM73.1098 36.7113H76.2189L74.6822 32.1695H74.6536L73.1098 36.7113Z" fill="#333333"/>
<path d="M80.9609 33.258H82.5048V34.5547H82.5406C82.991 33.6591 83.8202 33.1152 84.8921 33.1152C86.8075 33.1152 88.037 34.6193 88.037 37.0262V37.0334C88.037 39.4331 86.8004 40.9444 84.9136 40.9444C83.8488 40.9444 82.9838 40.3997 82.5406 39.5264H82.5048V43.3019H80.9609V33.2588V33.258ZM86.4645 37.0326V37.0254C86.4645 35.4208 85.6998 34.4399 84.4918 34.4399C83.2838 34.4399 82.4976 35.4567 82.4976 37.0254V37.0326C82.4976 38.5942 83.3268 39.611 84.4918 39.611C85.6568 39.611 86.4645 38.6221 86.4645 37.0326Z" fill="#333333"/>
<path d="M89.9636 33.258H91.5074V34.5547H91.5432C91.9936 33.6591 92.8228 33.1152 93.8947 33.1152C95.8102 33.1152 97.0397 34.6193 97.0397 37.0262V37.0334C97.0397 39.4331 95.803 40.9444 93.9162 40.9444C92.8515 40.9444 91.9865 40.3997 91.5432 39.5264H91.5074V43.3019H89.9636V33.2588V33.258ZM95.4672 37.0326V37.0254C95.4672 35.4208 94.7025 34.4399 93.4945 34.4399C92.2865 34.4399 91.5002 35.4567 91.5002 37.0254V37.0326C91.5002 38.5942 92.3294 39.611 93.4945 39.611C94.6595 39.611 95.4672 38.6221 95.4672 37.0326Z" fill="#333333"/>
<path d="M102.392 38.0431L102.385 37.9354H103.943L103.957 38.0287C104.101 38.9817 105.051 39.5759 106.431 39.5759C107.811 39.5759 108.682 38.953 108.682 37.9856V37.9785C108.682 37.1475 108.117 36.6961 106.752 36.3954L105.63 36.1593C103.607 35.7295 102.628 34.798 102.628 33.2652V33.258C102.636 31.4955 104.187 30.2856 106.367 30.2856C108.547 30.2856 109.991 31.4604 110.098 33.1942L110.106 33.3162H108.547L108.54 33.2157C108.397 32.2555 107.568 31.6757 106.346 31.6757C105.067 31.6829 104.252 32.2914 104.252 33.1942V33.2014C104.252 33.9749 104.838 34.4479 106.124 34.727L107.253 34.9631C109.384 35.4145 110.298 36.2814 110.298 37.8788V37.886C110.298 39.7697 108.812 40.966 106.367 40.966C104.051 40.966 102.522 39.863 102.393 38.0431H102.392Z" fill="#333333"/>
<path d="M112.717 38.8096V34.4903H111.637V33.2581H112.717V31.2954H114.296V33.2581H115.704V34.4903H114.296V38.7163C114.296 39.4827 114.639 39.7116 115.289 39.7116C115.454 39.7116 115.589 39.6972 115.704 39.6829V40.8791C115.525 40.9078 115.232 40.9437 114.918 40.9437C113.431 40.9437 112.717 40.3137 112.717 38.8088V38.8096Z" fill="#333333"/>
<path d="M117.194 37.0262V37.0119C117.194 34.605 118.616 33.1152 120.754 33.1152C122.891 33.1152 124.328 34.5978 124.328 37.0119V37.0262C124.328 39.4547 122.913 40.9444 120.761 40.9444C118.609 40.9444 117.194 39.4475 117.194 37.0262ZM122.748 37.0262V37.0119C122.748 35.3642 121.962 34.412 120.754 34.412C119.546 34.412 118.774 35.365 118.774 37.0119V37.0262C118.774 38.6954 119.56 39.6477 120.768 39.6477C121.976 39.6477 122.748 38.6875 122.748 37.0262Z" fill="#333333"/>
<path d="M126.254 33.258H127.797V34.5476H127.833C128.076 33.6663 128.705 33.1152 129.563 33.1152C129.784 33.1152 129.978 33.1511 130.1 33.1727V34.6122C129.978 34.5619 129.706 34.526 129.406 34.526C128.413 34.526 127.798 35.1776 127.798 36.3029V40.7945H126.254V33.2588L126.254 33.258Z" fill="#333333"/>
<path d="M131.132 37.055V37.0478C131.132 34.6911 132.49 33.1152 134.598 33.1152C136.706 33.1152 138 34.6337 138 36.897V37.4202H132.675C132.703 38.8454 133.482 39.6764 134.712 39.6764C135.627 39.6764 136.234 39.2035 136.428 38.638L136.449 38.5806H137.914L137.9 38.6596C137.657 39.8558 136.499 40.9444 134.676 40.9444C132.468 40.9444 131.131 39.4331 131.131 37.055H131.132ZM132.697 36.3244H136.471C136.342 35.0205 135.613 34.3833 134.605 34.3833C133.598 34.3833 132.832 35.0636 132.697 36.3244Z" fill="#333333"/>
<path d="M56.2942 28.409C55.3313 29.0797 54.6771 29.7528 54.331 30.4291C53.9848 31.1054 53.8113 31.8383 53.8113 32.6262C53.8113 33.2499 53.914 33.8201 54.1193 34.3377C54.3246 34.8553 54.6151 35.3466 54.9907 35.8115C55.3663 36.2765 55.9942 36.7382 56.8751 37.1968C56.5345 38.1969 56.0061 39.2169 55.2907 40.2585C54.5745 41.2992 53.9259 42.0377 53.345 42.4732C52.7641 42.9086 52.2094 43.1263 51.681 43.1263C51.2585 43.1263 50.6887 42.9915 49.9733 42.7204L49.6391 42.5968L49.0932 42.3671C48.7056 42.2498 48.2775 42.1908 47.808 42.1908C47.3385 42.1908 46.787 42.2969 46.1878 42.5082L45.7652 42.667L45.2368 42.8791C44.8143 43.0442 44.3917 43.1263 43.9691 43.1263C43.0771 43.1263 42.1205 42.5003 41.0988 41.2474C40.0778 39.9945 39.3059 38.6475 38.783 37.2064C38.261 35.7645 38 34.309 38 32.8384C38 30.9443 38.5372 29.3684 39.6115 28.1091C40.6858 26.8506 42.1436 26.2214 43.9866 26.2214C44.6559 26.2214 45.2838 26.345 45.8711 26.5923L46.2761 26.751L46.6987 26.9272C47.0743 27.0803 47.3735 27.1569 47.5963 27.1569C47.925 27.1569 48.2536 27.0923 48.5823 26.9631L49.1457 26.751L49.5507 26.5923C50.208 26.345 50.9354 26.2214 51.7344 26.2214C53.6243 26.2214 55.1443 26.9511 56.295 28.4098L56.2942 28.409ZM51.8219 20C51.845 20.2592 51.8569 20.4586 51.8569 20.5997C51.8569 21.3295 51.6452 22.0823 51.2227 22.8583C50.8001 23.6343 50.2478 24.238 49.5674 24.6671C48.8863 25.0969 48.135 25.3114 47.3138 25.3114C47.2788 25.0291 47.2613 24.8234 47.2613 24.6942C47.2613 24.0705 47.4459 23.415 47.8159 22.7267C48.186 22.0384 48.6873 21.4531 49.3216 20.9706C49.9558 20.4881 50.6712 20.1826 51.4694 20.0526C51.5402 20.0415 51.6572 20.0231 51.8219 20V20Z" fill="#333333"/>
</g>
</g>
<defs>
<filter id="filter0_d_167_827" x="0" y="0" width="176" height="68" filterUnits="userSpaceOnUse" color-interpolation-filters="sRGB">
<feFlood flood-opacity="0" result="BackgroundImageFix"/>
<feColorMatrix in="SourceAlpha" type="matrix" values="0 0 0 0 0 0 0 0 0 0 0 0 0 0 0 0 0 0 127 0" result="hardAlpha"/>
<feOffset dy="2"/>
<feGaussianBlur stdDeviation="5"/>
<feComposite in2="hardAlpha" operator="out"/>
<feColorMatrix type="matrix" values="0 0 0 0 0 0 0 0 0 0 0 0 0 0 0 0 0 0 0.3 0"/>
<feBlend mode="normal" in2="BackgroundImageFix" result="effect1_dropShadow_167_827"/>
<feBlend mode="normal" in="SourceGraphic" in2="effect1_dropShadow_167_827" result="shape"/>
</filter>
<clipPath id="clip0_167_827">
<rect width="100" height="23.301" fill="white" transform="translate(38 20)"/>
</clipPath>
</defs>
</svg>
