<svg width="24" height="24" viewBox="0 0 24 24" fill="none" xmlns="http://www.w3.org/2000/svg">
<path fill-rule="evenodd" clip-rule="evenodd" d="M12 22C17.5228 22 22 17.5228 22 12C22 6.47715 17.5228 2 12 2C6.47715 2 2 6.47715 2 12C2 17.5228 6.47715 22 12 22ZM16.7908 9.71936C17.0697 9.44042 17.0697 8.98816 16.7908 8.70921C16.5118 8.43026 16.0596 8.43026 15.7806 8.70921L10.5714 13.9184L8.21936 11.5664C7.94042 11.2874 7.48816 11.2874 7.20921 11.5664C6.93026 11.8453 6.93026 12.2976 7.20921 12.5765L9.89799 15.2653C10.2699 15.6372 10.8729 15.6372 11.2449 15.2653L16.7908 9.71936Z" fill="#17CB7F"/>
</svg>
