<svg width="16" height="16" viewBox="0 0 16 16" fill="none" xmlns="http://www.w3.org/2000/svg">
<path d="M12.6607 7.51731H12.1937V7.22792C12.1937 7.01 12.0171 6.83331 11.7991 6.83331H1.72798C1.51006 6.83331 1.33337 7.00998 1.33337 7.22792V9.31051C1.33337 11.1507 2.35194 12.7688 3.88113 13.6829H1.72822C1.5103 13.6829 1.33361 13.8596 1.33361 14.0775C1.33361 14.2955 1.51025 14.4721 1.72822 14.4721H11.7991C12.0171 14.4721 12.1938 14.2955 12.1938 14.0775C12.1938 13.8596 12.0171 13.6829 11.7991 13.6829H9.646C10.5156 13.1631 11.22 12.4157 11.6659 11.5292H12.6608C13.7668 11.5292 14.6667 10.6293 14.6667 9.52322C14.6667 8.41715 13.7668 7.51731 12.6607 7.51731ZM11.4045 9.31051C11.4045 11.7215 9.32258 13.6829 6.76355 13.6829C4.20452 13.6829 2.12259 11.7215 2.12259 9.31051V7.62252H11.4045V9.31051H11.4045ZM12.6607 10.74H11.9817C12.1196 10.2859 12.1937 9.80625 12.1937 9.31051V8.30647H12.6607C13.3317 8.30647 13.8775 8.85231 13.8775 9.52322C13.8775 10.1941 13.3317 10.74 12.6607 10.74Z" fill="#141825"/>
<path d="M9.44794 4.06971C9.96049 3.65567 10.0765 3.21307 10.0836 2.91466C10.1008 2.18869 9.52758 1.65744 9.46214 1.59929C9.30005 1.45513 9.05177 1.46966 8.90758 1.63177C8.76341 1.79388 8.77794 2.04213 8.94005 2.18632C8.94372 2.1896 9.3069 2.5294 9.2982 2.89604C9.29357 3.09138 9.18107 3.27539 8.95427 3.45859C8.44172 3.87263 8.32568 4.31523 8.31862 4.61364C8.30135 5.3396 8.87464 5.87085 8.94005 5.92903C9.01508 5.99575 9.10872 6.02861 9.20198 6.02861C9.31021 6.02861 9.41794 5.98434 9.49539 5.89723C9.63956 5.73513 9.62581 5.48755 9.4637 5.34338C9.3606 5.24963 9.09503 4.93861 9.10406 4.62932C9.10977 4.43507 9.22224 4.252 9.44794 4.06971Z" fill="#141825"/>
<path d="M6.95588 4.06971C7.46843 3.65567 7.58447 3.21307 7.59153 2.91466C7.60877 2.18869 7.03551 1.65744 6.97007 1.59929C6.80801 1.45513 6.5597 1.46966 6.41551 1.63177C6.27134 1.79388 6.28588 2.04213 6.44799 2.18632C6.45166 2.1896 6.81483 2.5294 6.80614 2.89604C6.8015 3.09138 6.689 3.27539 6.4622 3.45859C5.94965 3.87263 5.83361 4.31523 5.82655 4.61364C5.80931 5.3396 6.38257 5.87085 6.44799 5.92903C6.52301 5.99575 6.61666 6.02861 6.70991 6.02861C6.81814 6.02861 6.92588 5.98434 7.00332 5.89723C7.14749 5.73513 7.13374 5.48755 6.97163 5.34338C6.86853 5.24963 6.60296 4.93861 6.612 4.62932C6.6177 4.43507 6.73017 4.252 6.95588 4.06971Z" fill="#141825"/>
<path d="M4.46308 4.06971C4.97563 3.65567 5.09167 3.21307 5.09873 2.91466C5.11597 2.18869 4.54271 1.65744 4.47727 1.59929C4.31519 1.45513 4.0669 1.46966 3.92271 1.63177C3.77855 1.79385 3.79308 2.04213 3.95519 2.18632C3.95886 2.1896 4.32203 2.5294 4.31334 2.89604C4.3087 3.09138 4.1962 3.27539 3.9694 3.45859C3.45685 3.87263 3.34081 4.31523 3.33375 4.61364C3.31654 5.33958 3.8898 5.87083 3.95521 5.929C4.03006 5.99557 4.12326 6.0283 4.21612 6.0283C4.32438 6.0283 4.43217 5.9838 4.5098 5.89653C4.65396 5.73442 4.63943 5.48617 4.47732 5.34197C4.47365 5.33869 4.11047 4.9989 4.11917 4.63226C4.12375 4.43692 4.23625 4.25289 4.46308 4.06971Z" fill="#141825"/>
</svg>
