<svg width="16" height="16" viewBox="0 0 16 16" fill="none" xmlns="http://www.w3.org/2000/svg">
<path d="M12.6607 7.51731H12.1937V7.22792C12.1937 7.01 12.017 6.83331 11.7991 6.83331H1.72795C1.51003 6.83331 1.33334 7.00998 1.33334 7.22792V9.31051C1.33334 11.1507 2.35191 12.7688 3.88109 13.6829H1.72818C1.51027 13.6829 1.33358 13.8596 1.33358 14.0775C1.33358 14.2955 1.51022 14.4721 1.72818 14.4721H11.7991C12.017 14.4721 12.1937 14.2955 12.1937 14.0775C12.1937 13.8596 12.0171 13.6829 11.7991 13.6829H9.64597C10.5155 13.1631 11.22 12.4157 11.6659 11.5292H12.6607C13.7668 11.5292 14.6667 10.6293 14.6667 9.52322C14.6667 8.41715 13.7668 7.51731 12.6607 7.51731ZM11.4045 9.31051C11.4045 11.7215 9.32255 13.6829 6.76352 13.6829C4.20449 13.6829 2.12256 11.7215 2.12256 9.31051V7.62252H11.4045V9.31051H11.4045ZM12.6607 10.74H11.9817C12.1196 10.2859 12.1937 9.80625 12.1937 9.31051V8.30647H12.6607C13.3316 8.30647 13.8775 8.85231 13.8775 9.52322C13.8775 10.1941 13.3316 10.74 12.6607 10.74Z" fill="white"/>
<path d="M9.44791 4.06971C9.96046 3.65567 10.0765 3.21307 10.0836 2.91466C10.1008 2.18869 9.52755 1.65744 9.4621 1.59929C9.30002 1.45513 9.05174 1.46966 8.90755 1.63177C8.76338 1.79388 8.77791 2.04213 8.94002 2.18632C8.94369 2.1896 9.30687 2.5294 9.29817 2.89604C9.29354 3.09138 9.18104 3.27539 8.95424 3.45859C8.44169 3.87263 8.32565 4.31523 8.31859 4.61364C8.30132 5.3396 8.8746 5.87085 8.94002 5.92903C9.01505 5.99575 9.10869 6.02861 9.20195 6.02861C9.31018 6.02861 9.41791 5.98434 9.49536 5.89723C9.63953 5.73513 9.62578 5.48755 9.46367 5.34338C9.36057 5.24963 9.095 4.93861 9.10403 4.62932C9.10973 4.43507 9.22221 4.252 9.44791 4.06971Z" fill="white"/>
<path d="M6.95588 4.06971C7.46843 3.65567 7.58447 3.21307 7.59153 2.91466C7.60877 2.18869 7.03551 1.65744 6.97007 1.59929C6.80801 1.45513 6.5597 1.46966 6.41551 1.63177C6.27134 1.79388 6.28588 2.04213 6.44799 2.18632C6.45166 2.1896 6.81483 2.5294 6.80614 2.89604C6.8015 3.09138 6.689 3.27539 6.4622 3.45859C5.94965 3.87263 5.83361 4.31523 5.82655 4.61364C5.80931 5.3396 6.38257 5.87085 6.44799 5.92903C6.52301 5.99575 6.61666 6.02861 6.70991 6.02861C6.81814 6.02861 6.92588 5.98434 7.00332 5.89723C7.14749 5.73513 7.13374 5.48755 6.97163 5.34338C6.86853 5.24963 6.60296 4.93861 6.612 4.62932C6.6177 4.43507 6.73017 4.252 6.95588 4.06971Z" fill="white"/>
<path d="M4.46305 4.06971C4.9756 3.65567 5.09164 3.21307 5.0987 2.91466C5.11594 2.18869 4.54268 1.65744 4.47724 1.59929C4.31516 1.45513 4.06687 1.46966 3.92268 1.63177C3.77851 1.79385 3.79305 2.04213 3.95516 2.18632C3.95883 2.1896 4.322 2.5294 4.31331 2.89604C4.30867 3.09138 4.19617 3.27539 3.96937 3.45859C3.45682 3.87263 3.34078 4.31523 3.33372 4.61364C3.31651 5.33958 3.88976 5.87083 3.95518 5.929C4.03003 5.99557 4.12323 6.0283 4.21609 6.0283C4.32435 6.0283 4.43213 5.9838 4.50976 5.89653C4.65393 5.73442 4.6394 5.48617 4.47729 5.34197C4.47362 5.33869 4.11044 4.9989 4.11914 4.63226C4.12372 4.43692 4.23622 4.25289 4.46305 4.06971Z" fill="white"/>
</svg>
