<svg width="24" height="24" viewBox="0 0 24 24" fill="none" xmlns="http://www.w3.org/2000/svg">
<path fill-rule="evenodd" clip-rule="evenodd" d="M12 22C17.5228 22 22 17.5228 22 12C22 6.47715 17.5228 2 12 2C6.47715 2 2 6.47715 2 12C2 17.5228 6.47715 22 12 22ZM14.877 8.26017C15.109 8.26017 15.3315 8.35232 15.4956 8.51636C15.6597 8.68045 15.7518 8.90297 15.7518 9.13499C15.7518 9.367 15.6597 9.58952 15.4956 9.75361L13.2329 12.0164L15.4956 14.2791C15.655 14.4441 15.7432 14.6652 15.7412 14.8946C15.7392 15.124 15.6472 15.3435 15.485 15.5057C15.3227 15.6679 15.1033 15.76 14.8738 15.7619C14.6444 15.7639 14.4234 15.6757 14.2584 15.5164L11.9956 13.2536L9.73287 15.5164C9.56785 15.6757 9.34682 15.7639 9.1174 15.7619C8.88797 15.76 8.66851 15.6679 8.50628 15.5057C8.34405 15.3435 8.25203 15.124 8.25003 14.8946C8.24804 14.6652 8.33623 14.4441 8.49562 14.2791L10.7584 12.0164L8.49562 9.75361C8.33623 9.58858 8.24804 9.36756 8.25003 9.13813C8.25203 8.90871 8.34405 8.68925 8.50628 8.52702C8.66851 8.36479 8.88797 8.27276 9.1174 8.27077C9.34682 8.26878 9.56785 8.35697 9.73287 8.51636L11.9956 10.7791L14.2584 8.51636C14.4225 8.35232 14.645 8.26017 14.877 8.26017Z" fill="#B7BBC2"/>
</svg>
