<svg width="16" height="16" viewBox="0 0 16 16" fill="none" xmlns="http://www.w3.org/2000/svg">
<path fill-rule="evenodd" clip-rule="evenodd" d="M8 2C6.81331 2 5.65328 2.35189 4.66658 3.01118C3.67989 3.67047 2.91085 4.60754 2.45673 5.7039C2.0026 6.80025 1.88378 8.00665 2.11529 9.17054C2.3468 10.3344 2.91825 11.4035 3.75736 12.2426C4.59648 13.0818 5.66557 13.6532 6.82946 13.8847C7.99335 14.1162 9.19975 13.9974 10.2961 13.5433C11.3925 13.0891 12.3295 12.3201 12.9888 11.3334C13.6481 10.3467 14 9.18669 14 8C13.9983 6.40923 13.3656 4.8841 12.2407 3.75926C11.1159 2.63441 9.59077 2.00172 8 2ZM8 13C7.0111 13 6.0444 12.7068 5.22215 12.1573C4.39991 11.6079 3.75904 10.827 3.3806 9.91342C3.00217 8.99978 2.90315 7.99445 3.09608 7.02455C3.289 6.05464 3.76521 5.16373 4.46447 4.46447C5.16373 3.7652 6.05465 3.289 7.02455 3.09607C7.99446 2.90315 8.99979 3.00216 9.91342 3.3806C10.8271 3.75904 11.6079 4.3999 12.1573 5.22215C12.7068 6.04439 13 7.01109 13 8C12.9985 9.32563 12.4713 10.5966 11.5339 11.5339C10.5966 12.4713 9.32564 12.9985 8 13ZM8.0006 4.50015C7.86799 4.50015 7.74082 4.55283 7.64705 4.6466C7.55328 4.74037 7.5006 4.86754 7.5006 5.00015V9.00015C7.5006 9.13276 7.55328 9.25993 7.64705 9.3537C7.74082 9.44747 7.86799 9.50015 8.0006 9.50015C8.13321 9.50015 8.26039 9.44747 8.35416 9.3537C8.44792 9.25993 8.5006 9.13276 8.5006 9.00015V5.00015C8.5006 4.86754 8.44792 4.74037 8.35416 4.6466C8.26039 4.55283 8.13321 4.50015 8.0006 4.50015ZM8.0006 10.5C8.27674 10.5 8.5006 10.7239 8.5006 11C8.5006 11.2762 8.27674 11.5 8.0006 11.5C7.72446 11.5 7.5006 11.2762 7.5006 11C7.5006 10.7239 7.72446 10.5 8.0006 10.5Z" fill="#747A83"/>
</svg>
