<svg width="40" height="40" viewBox="0 0 40 40" fill="none" xmlns="http://www.w3.org/2000/svg">
<path fill-rule="evenodd" clip-rule="evenodd" d="M20 36.6666C29.2047 36.6666 36.6667 29.2047 36.6667 19.9999C36.6667 10.7952 29.2047 3.33325 20 3.33325C10.7952 3.33325 3.33333 10.7952 3.33333 19.9999C3.33333 29.2047 10.7952 36.6666 20 36.6666ZM21.4103 18.0768H24.6154L23.3333 21.282H21.4103V28.3333H17.5641V21.282H15V18.0768H17.5641V15.5127C17.5641 13.3884 19.2859 11.6666 21.4103 11.6666H23.9744V14.8717H22.6923C22.6351 14.8717 22.5788 14.8713 22.5236 14.8709C21.8955 14.866 21.4103 14.8622 21.4103 15.5127V18.0768Z" fill="white"/>
</svg>
