<svg width="176" height="68" viewBox="0 0 176 68" fill="none" xmlns="http://www.w3.org/2000/svg">
<g filter="url(#filter0_d_167_825)">
<rect x="10" y="8" width="156" height="48" rx="8" fill="#F7FAFB"/>
<path d="M70.5424 23.36C70.5424 24.0817 70.3286 24.6566 69.901 25.0846C69.4155 25.594 68.7824 25.8491 68.0044 25.8491C67.2263 25.8491 66.6251 25.5906 66.1044 25.0737C65.5829 24.5567 65.3221 23.9155 65.3221 23.1502C65.3221 22.3848 65.5829 21.7437 66.1044 21.2267C66.6251 20.7098 67.259 20.4504 68.0044 20.4504C68.3741 20.4504 68.7279 20.5226 69.0642 20.667C69.4004 20.8113 69.6704 21.0035 69.8716 21.2443L69.418 21.6992C69.0759 21.2905 68.6055 21.0857 68.0044 21.0857C67.461 21.0857 66.9907 21.2771 66.5941 21.6589C66.1975 22.0416 65.9988 22.5384 65.9988 23.1493C65.9988 23.7603 66.1966 24.2571 66.5941 24.6398C66.9907 25.0225 67.4602 25.213 68.0044 25.213C68.5812 25.213 69.0617 25.0208 69.4465 24.6364C69.6964 24.3855 69.8406 24.0372 69.8792 23.5899H68.0044V22.9689H70.5063C70.5306 23.104 70.5424 23.2333 70.5424 23.3591V23.36Z" fill="#333333"/>
<path d="M74.5091 21.2026H72.1581V22.8407H74.2786V23.4617H72.1581V25.0999H74.5091V25.7351H71.4949V20.5681H74.5091V21.2034V21.2026Z" fill="#333333"/>
<path d="M77.3063 25.7343H76.6422V21.2017H75.2V20.5664H78.7476V21.2017H77.3054V25.7343H77.3063Z" fill="#333333"/>
<path d="M81.3149 25.7342V20.5671H81.9782V25.7342H81.3149Z" fill="#333333"/>
<path d="M84.9203 25.7343H84.2563V21.2017H82.8141V20.5664H86.3617V21.2017H84.9195V25.7343H84.9203Z" fill="#333333"/>
<path d="M93.0785 25.0668C92.5713 25.5888 91.9399 25.8498 91.1853 25.8498C90.4307 25.8498 89.7993 25.5888 89.2929 25.0668C88.7856 24.5448 88.5324 23.9062 88.5324 23.1509C88.5324 22.3956 88.7856 21.757 89.2929 21.235C89.7993 20.713 90.4307 20.4512 91.1853 20.4512C91.9399 20.4512 92.5654 20.7138 93.0752 21.2384C93.5841 21.7629 93.839 22.3998 93.839 23.1509C93.839 23.902 93.585 24.5448 93.0785 25.0668ZM89.7826 24.6338C90.1649 25.0207 90.6319 25.2145 91.1853 25.2145C91.7387 25.2145 92.2065 25.0215 92.588 24.6338C92.9704 24.2469 93.1616 23.7518 93.1616 23.1509C93.1616 22.55 92.9696 22.0549 92.588 21.668C92.2065 21.2812 91.7387 21.0873 91.1853 21.0873C90.6319 21.0873 90.1649 21.2803 89.7826 21.668C89.4011 22.0549 89.2099 22.55 89.2099 23.1509C89.2099 23.7518 89.4011 24.2469 89.7826 24.6338Z" fill="#333333"/>
<path d="M94.7698 25.7342V20.5671H95.5772L98.0859 24.587H98.1144L98.0859 23.5908V20.5671H98.7499V25.7342H98.0574L95.4321 21.5196H95.4036L95.4321 22.5158V25.7342H94.7689H94.7698Z" fill="#333333"/>
<path d="M88.3689 33.2711C87.3493 33.2711 86.4245 33.6622 85.7579 34.3218C85.1014 34.9713 84.6956 35.881 84.6956 36.9342C84.6956 38.0479 85.1559 39.0071 85.8879 39.6642C86.5419 40.2516 87.4139 40.5974 88.3689 40.5974C89.2669 40.5974 90.0911 40.2911 90.7309 39.7666C91.5324 39.1086 92.0431 38.1075 92.0431 36.9342C92.0431 36.0657 91.7664 35.2944 91.3019 34.6868C90.6303 33.809 89.5654 33.2719 88.3698 33.2719L88.3689 33.2711ZM88.3689 39.154C87.2596 39.154 86.3038 38.2384 86.3038 36.9342C86.3038 35.6301 87.2605 34.7145 88.3689 34.7145C89.4774 34.7145 90.434 35.6167 90.434 36.9342C90.434 38.2518 89.4774 39.154 88.3689 39.154ZM80.3549 33.2711C79.5961 33.2711 78.8893 33.4876 78.3032 33.8703C77.3255 34.5081 76.6816 35.6075 76.6816 36.9342C76.6816 37.9891 77.0941 38.9047 77.759 39.5568C78.4248 40.2088 79.3429 40.5974 80.3549 40.5974C81.1942 40.5974 81.9689 40.3305 82.5886 39.8673C83.4631 39.2135 84.0282 38.1696 84.0282 36.9351C84.0282 36.231 83.8471 35.5915 83.531 35.0502C82.8938 33.9601 81.7082 33.2719 80.3549 33.2719V33.2711ZM80.3549 39.154C79.2456 39.154 78.2898 38.2384 78.2898 36.9342C78.2898 35.6301 79.2465 34.7145 80.3549 34.7145C81.4633 34.7145 82.42 35.6167 82.42 36.9342C82.42 38.2518 81.4633 39.154 80.3549 39.154ZM70.8224 34.3948V35.949H74.5376C74.427 36.8235 74.136 37.4613 73.6916 37.9052C73.1508 38.4465 72.3057 39.0432 70.8224 39.0432C68.5351 39.0432 66.7467 37.1978 66.7467 34.9084C66.7467 32.619 68.5351 30.7736 70.8224 30.7736C72.0566 30.7736 72.9571 31.2595 73.6229 31.8839L74.7179 30.7879C73.7889 29.9 72.5555 29.2202 70.8224 29.2202C69.7584 29.2202 68.7514 29.5148 67.8861 30.0267C66.2042 31.022 65.0555 32.8381 65.0555 34.9084C65.0555 36.9787 66.2771 38.9097 68.0463 39.8824C68.8747 40.3381 69.823 40.5974 70.8216 40.5974C72.5128 40.5974 73.7881 40.0427 74.7858 39.0021C75.8113 37.9757 76.1307 36.5323 76.1307 35.3666C76.1307 35.0057 76.1031 34.6726 76.0477 34.3956H70.8216L70.8224 34.3948ZM109.808 35.6016C109.502 34.7833 108.574 33.2711 106.675 33.2711C105.864 33.2711 105.111 33.5463 104.518 34.0331C103.731 34.6776 103.223 35.6931 103.223 36.9342C103.223 38.9878 104.776 40.5974 106.855 40.5974C108.532 40.5974 109.503 39.571 109.905 38.9744L108.657 38.1419C108.241 38.752 107.673 39.1548 106.855 39.1548C106.038 39.1548 105.455 38.7805 105.081 38.0445L109.974 36.0187L109.808 35.6024L109.808 35.6016ZM104.817 36.8226C104.775 35.4077 105.912 34.686 106.73 34.686C107.368 34.686 107.908 35.0049 108.088 35.4631L106.379 36.1731L104.817 36.8226ZM100.839 40.3742H102.447V29.6079H100.839V40.3742ZM98.2049 34.0893H98.1496C97.789 33.6596 97.0956 33.2711 96.2228 33.2711C95.3499 33.2711 94.5635 33.6152 93.933 34.19C93.2001 34.858 92.7155 35.8366 92.7155 36.9485C92.7155 38.2317 93.3703 39.3369 94.3086 39.9848C94.8712 40.3733 95.5361 40.5982 96.2219 40.5982C97.0956 40.5982 97.7882 40.2097 98.1487 39.7657H98.2041V40.2928C98.2041 41.6942 97.4553 42.4437 96.2496 42.4437C95.2653 42.4437 94.6557 41.7362 94.4058 41.1395L93.0056 41.7219C93.4072 42.6929 94.4746 43.8863 96.2496 43.8863C98.1353 43.8863 99.7292 42.776 99.7292 40.0704V33.4935H98.2041V34.0902L98.2049 34.0893ZM96.3611 39.1531C95.2519 39.1531 94.3237 38.2233 94.3237 36.9468C94.3237 35.6704 95.2527 34.7129 96.3611 34.7129C97.4696 34.7129 98.3156 35.6561 98.3156 36.9468C98.3156 38.2375 97.4562 39.1531 96.3611 39.1531ZM117.339 29.6079H113.493V40.3742H115.098V36.2948H117.34C118.363 36.2948 119.377 35.8684 120.054 35.1157C120.553 34.5593 120.869 33.8241 120.869 32.9513C120.869 32.0786 120.563 31.3644 120.075 30.8105C119.398 30.0426 118.374 29.6071 117.34 29.6071L117.339 29.6079ZM117.381 34.7968H115.097V31.1059H117.381C118.581 31.1059 119.263 32.1004 119.263 32.9513C119.263 33.8023 118.581 34.7968 117.381 34.7968ZM127.303 33.2509C126.141 33.2509 124.937 33.7637 124.438 34.8992L125.863 35.495C126.168 34.8992 126.735 34.7053 127.331 34.7053C128.161 34.7053 129.005 35.2038 129.019 36.09V36.2008C128.728 36.0346 128.106 35.7854 127.345 35.7854C126.684 35.7854 126.018 35.9415 125.474 36.2453C124.753 36.6481 124.245 37.3094 124.245 38.209C124.245 38.9903 124.616 39.6206 125.18 40.0343C125.656 40.3834 126.27 40.5773 126.916 40.5773C127.995 40.5773 128.591 40.0922 128.965 39.5249H129.02V40.3557H130.57V36.2285C130.57 35.0939 130.068 34.2572 129.275 33.7637C128.732 33.4263 128.052 33.2501 127.305 33.2501L127.303 33.2509ZM127.109 39.1514C126.583 39.1514 125.85 38.8879 125.85 38.2375C125.85 37.4067 126.763 37.0878 127.552 37.0878C128.258 37.0878 128.59 37.2406 129.018 37.4478C128.893 38.4448 128.036 39.1514 127.108 39.1514H127.109ZM136.215 33.4868L135.453 35.4195L134.374 38.1545H134.319L132.409 33.4868H130.679L132.061 36.6338L133.544 40.0108L131.911 43.6395H133.585L136.717 36.4366L138 33.4859H136.215V33.4868ZM121.753 40.375H123.359V29.6088H121.753V40.375Z" fill="#333333"/>
<path d="M52.8835 27.703L40.097 20.1937C39.443 19.8094 38.6699 20.0293 38.2708 20.5689L49.1004 31.4711L52.8844 27.7022L52.8835 27.703Z" fill="url(#paint0_linear_167_825)"/>
<path d="M38 41.4855C38 41.7893 38.0931 42.0603 38.2473 42.2811L49.0996 31.472L38.27 20.5698C38.1023 20.7964 38 21.0784 38 21.3964V41.4855Z" fill="url(#paint1_linear_167_825)"/>
<path d="M52.819 35.2157L57.2016 32.6419C58.118 32.1031 58.118 30.7772 57.2016 30.2384L52.8835 27.7031L49.0995 31.472L52.819 35.2166V35.2157Z" fill="url(#paint2_linear_167_825)"/>
<path d="M38.2474 42.2802C38.6398 42.8425 39.4305 43.0783 40.097 42.6864L52.819 35.2158L49.0996 31.4712L38.2474 42.2802Z" fill="url(#paint3_linear_167_825)"/>
</g>
<defs>
<filter id="filter0_d_167_825" x="0" y="0" width="176" height="68" filterUnits="userSpaceOnUse" color-interpolation-filters="sRGB">
<feFlood flood-opacity="0" result="BackgroundImageFix"/>
<feColorMatrix in="SourceAlpha" type="matrix" values="0 0 0 0 0 0 0 0 0 0 0 0 0 0 0 0 0 0 127 0" result="hardAlpha"/>
<feOffset dy="2"/>
<feGaussianBlur stdDeviation="5"/>
<feComposite in2="hardAlpha" operator="out"/>
<feColorMatrix type="matrix" values="0 0 0 0 0 0 0 0 0 0 0 0 0 0 0 0 0 0 0.3 0"/>
<feBlend mode="normal" in2="BackgroundImageFix" result="effect1_dropShadow_167_825"/>
<feBlend mode="normal" in="SourceGraphic" in2="effect1_dropShadow_167_825" result="shape"/>
</filter>
<linearGradient id="paint0_linear_167_825" x1="20.9457" y1="4.87982" x2="47.3385" y2="26.5444" gradientUnits="userSpaceOnUse">
<stop stop-color="#32A071"/>
<stop offset="0.07" stop-color="#2DA771"/>
<stop offset="0.48" stop-color="#15CF74"/>
<stop offset="0.8" stop-color="#06E775"/>
<stop offset="1" stop-color="#00F076"/>
</linearGradient>
<linearGradient id="paint1_linear_167_825" x1="56.665" y1="31.3168" x2="36.972" y2="31.4324" gradientUnits="userSpaceOnUse">
<stop stop-color="#00A1FF"/>
<stop offset="0.26" stop-color="#00BEFF"/>
<stop offset="0.51" stop-color="#00D2FF"/>
<stop offset="0.76" stop-color="#00DFFF"/>
<stop offset="1" stop-color="#00E3FF"/>
</linearGradient>
<linearGradient id="paint2_linear_167_825" x1="59.4227" y1="31.9755" x2="41.6471" y2="30.5824" gradientUnits="userSpaceOnUse">
<stop stop-color="#FFE000"/>
<stop offset="0.41" stop-color="#FFBD00"/>
<stop offset="0.78" stop-color="#FFA500"/>
<stop offset="1" stop-color="#FF9C00"/>
</linearGradient>
<linearGradient id="paint3_linear_167_825" x1="57.1086" y1="29.2582" x2="22.874" y2="51.9642" gradientUnits="userSpaceOnUse">
<stop stop-color="#FF3A44"/>
<stop offset="1" stop-color="#C31162"/>
</linearGradient>
</defs>
</svg>
