<svg width="24" height="24" viewBox="0 0 24 24" fill="none" xmlns="http://www.w3.org/2000/svg">
<path d="M15.5 6.66675H8.5C7.8372 6.66754 7.20178 6.93119 6.73311 7.39986C6.26444 7.86853 6.00079 8.50395 6 9.16675V15.1667C6.00079 15.8295 6.26444 16.465 6.73311 16.9336C7.20178 17.4023 7.8372 17.666 8.5 17.6667H15.5C16.1628 17.666 16.7982 17.4023 17.2669 16.9336C17.7356 16.465 17.9992 15.8295 18 15.1667V9.16675C17.9992 8.50395 17.7356 7.86853 17.2669 7.39986C16.7982 6.93119 16.1628 6.66754 15.5 6.66675V6.66675ZM8.5 7.66675H15.5C15.7994 7.66734 16.0918 7.75751 16.3395 7.92565C16.5872 8.09379 16.7789 8.33222 16.89 8.61025L13.061 12.4397C12.7792 12.7204 12.3977 12.878 12 12.878C11.6023 12.878 11.2208 12.7204 10.939 12.4397L7.11 8.61025C7.22107 8.33222 7.41281 8.09379 7.66052 7.92565C7.90824 7.75751 8.20061 7.66734 8.5 7.66675V7.66675ZM15.5 16.6667H8.5C8.10218 16.6667 7.72064 16.5087 7.43934 16.2274C7.15804 15.9461 7 15.5646 7 15.1667V9.91675L10.232 13.1467C10.7013 13.6149 11.3371 13.8778 12 13.8778C12.6629 13.8778 13.2987 13.6149 13.768 13.1467L17 9.91675V15.1667C17 15.5646 16.842 15.9461 16.5607 16.2274C16.2794 16.5087 15.8978 16.6667 15.5 16.6667Z" fill="white"/>
<circle cx="12" cy="12" r="11.5" stroke="white"/>
</svg>
