<svg width="40" height="40" viewBox="0 0 40 40" fill="none" xmlns="http://www.w3.org/2000/svg">
<path fill-rule="evenodd" clip-rule="evenodd" d="M36.6667 19.9999C36.6667 29.2047 29.2048 36.6666 20 36.6666C10.7953 36.6666 3.33334 29.2047 3.33334 19.9999C3.33334 10.7952 10.7953 3.33325 20 3.33325C29.2048 3.33325 36.6667 10.7952 36.6667 19.9999ZM13.4894 22.0919C13.5749 22.1755 13.6426 22.2755 13.6884 22.3859C13.7342 22.4963 13.7572 22.6148 13.7561 22.7344C13.7565 22.8532 13.7334 22.9709 13.6883 23.0808C13.6431 23.1907 13.5767 23.2906 13.4928 23.3748C13.4089 23.4589 13.3093 23.5257 13.1995 23.5713C13.0898 23.6168 12.9722 23.6403 12.8533 23.6403H9.23928C8.99928 23.6395 8.76934 23.5437 8.59963 23.374C8.42992 23.2043 8.3342 22.9744 8.33336 22.7344V15.9078C8.33256 15.7883 8.35575 15.6699 8.40155 15.5595C8.44735 15.4492 8.51483 15.3491 8.59999 15.2653C8.72644 15.1385 8.88776 15.0521 9.06343 15.0172C9.23909 14.9823 9.42117 15.0005 9.58649 15.0694C9.75182 15.1382 9.89291 15.2547 9.99183 15.4041C10.0908 15.5534 10.143 15.7287 10.142 15.9078V21.8285H12.8533C12.9716 21.8276 13.0888 21.8504 13.1981 21.8957C13.3074 21.9409 13.4064 22.0076 13.4894 22.0919ZM16.4326 22.93V15.7115C16.4322 15.618 16.4133 15.5255 16.3771 15.4393C16.3408 15.3531 16.2879 15.275 16.2213 15.2093C16.1547 15.1436 16.0758 15.0918 15.9892 15.0567C15.9025 15.0216 15.8098 15.0039 15.7162 15.0048H15.3211C15.2283 15.0048 15.1364 15.023 15.0507 15.0586C14.9649 15.0941 14.887 15.1461 14.8214 15.2118C14.7557 15.2774 14.7037 15.3553 14.6682 15.4411C14.6326 15.5268 14.6144 15.6187 14.6144 15.7115V22.93C14.6144 23.1175 14.6888 23.2972 14.8214 23.4298C14.9539 23.5623 15.1337 23.6368 15.3211 23.6368H15.7259C15.9131 23.6359 16.0923 23.5612 16.2247 23.4288C16.3571 23.2965 16.4318 23.1172 16.4326 22.93ZM24.8238 15.9076V22.6956C24.8239 22.9398 24.7292 23.1744 24.5595 23.3501C24.3899 23.5257 24.1587 23.6285 23.9146 23.6369C23.6859 23.6332 23.4669 23.5438 23.301 23.3863C23.2803 23.3697 22.7679 22.7065 22.1301 21.8808L22.13 21.8807C21.7788 21.4261 21.3895 20.9223 21.0234 20.4501C20.2524 19.4574 19.5842 18.59 19.5842 18.59V22.7309C19.5848 22.9064 19.5342 23.0783 19.4387 23.2255C19.3431 23.3728 19.2067 23.4889 19.0461 23.5598C18.8856 23.6307 18.7079 23.6533 18.5347 23.6248C18.3615 23.5962 18.2004 23.5178 18.0711 23.3991C17.9778 23.3146 17.9033 23.2115 17.8524 23.0964C17.8015 22.9813 17.7753 22.8568 17.7755 22.7309V15.9461C17.7726 15.7076 17.8612 15.477 18.0232 15.3019C18.1851 15.1268 18.4081 15.0205 18.6461 15.0049C18.7808 15.0027 18.9144 15.0303 19.0371 15.0859C19.1599 15.1414 19.2688 15.2235 19.3561 15.3261C19.3946 15.3711 21.2611 17.7997 22.3116 19.1811C22.7292 19.7208 23.0183 20.0999 23.0183 20.0999V15.9236C23.02 15.6847 23.1157 15.4561 23.2846 15.2872C23.4535 15.1183 23.6822 15.0226 23.9211 15.0209C24.1577 15.0209 24.3849 15.1138 24.5538 15.2796C24.7226 15.4454 24.8196 15.671 24.8238 15.9076ZM27.9987 21.8277V20.2215L30.7068 20.2247C30.9462 20.2247 31.1758 20.1296 31.3451 19.9603C31.5144 19.791 31.6095 19.5614 31.6095 19.322C31.6095 19.0826 31.5144 18.853 31.3451 18.6837C31.1758 18.5144 30.9462 18.4193 30.7068 18.4193H27.9987V16.813H30.6972C30.8205 16.8204 30.944 16.8024 31.0601 16.7603C31.1762 16.7182 31.2824 16.6528 31.3723 16.5681C31.4622 16.4834 31.5339 16.3812 31.5828 16.2678C31.6318 16.1544 31.657 16.0322 31.657 15.9087C31.657 15.7852 31.6318 15.663 31.5828 15.5496C31.5339 15.4362 31.4622 15.334 31.3723 15.2493C31.2824 15.1646 31.1762 15.0992 31.0601 15.0571C30.944 15.015 30.8205 14.997 30.6972 15.0044H27.0831C26.844 15.0052 26.6148 15.1006 26.4457 15.2697C26.2766 15.4388 26.1812 15.6679 26.1804 15.9071V22.7304C26.1804 22.9702 26.2754 23.2001 26.4446 23.3699C26.6138 23.5397 26.8434 23.6355 27.0831 23.6364H30.7068C30.8301 23.6437 30.9536 23.6258 31.0697 23.5837C31.1858 23.5415 31.2921 23.4761 31.382 23.3914C31.4719 23.3067 31.5435 23.2045 31.5925 23.0912C31.6414 22.9778 31.6667 22.8556 31.6667 22.7321C31.6667 22.6085 31.6414 22.4863 31.5925 22.3729C31.5435 22.2596 31.4719 22.1574 31.382 22.0727C31.2921 21.988 31.1858 21.9226 31.0697 21.8804C30.9536 21.8383 30.8301 21.8204 30.7068 21.8277H27.9987Z" fill="white"/>
</svg>
