<svg width="17" height="16" viewBox="0 0 17 16" fill="none" xmlns="http://www.w3.org/2000/svg">
<path d="M14.776 11.0833H14.3723C14.1952 8.36083 12.1714 6.14018 9.59067 5.66057C9.65927 5.51172 9.69784 5.34625 9.69784 5.17187C9.69784 4.5257 9.17213 4 8.52596 4C7.87979 4 7.35409 4.5257 7.35409 5.17187C7.35409 5.34604 7.39258 5.51133 7.46101 5.66005C4.8808 6.13638 2.80893 8.35102 2.62781 11.0833H2.22388C2.00815 11.0833 1.83325 11.2582 1.83325 11.474C1.83325 11.6897 2.00815 11.8646 2.22388 11.8646H14.776C14.9917 11.8646 15.1666 11.6897 15.1666 11.474C15.1666 11.2582 14.9917 11.0833 14.776 11.0833ZM8.52596 4.78125C8.74135 4.78125 8.91659 4.95648 8.91659 5.17187C8.91659 5.38727 8.74135 5.5625 8.52596 5.5625C8.31057 5.5625 8.13534 5.38727 8.13534 5.17187C8.13534 4.95648 8.31057 4.78125 8.52596 4.78125ZM3.41127 11.0833C3.61849 8.47659 5.87633 6.33854 8.52596 6.33854C11.196 6.33854 13.3913 8.4363 13.5895 11.0833H3.41127Z" fill="white"/>
</svg>
