<svg width="17" height="16" viewBox="0 0 17 16" fill="none" xmlns="http://www.w3.org/2000/svg">
<path d="M14.7761 11.0833H14.3724C14.1953 8.36083 12.1716 6.14018 9.5908 5.66057C9.65939 5.51172 9.69796 5.34625 9.69796 5.17187C9.69796 4.5257 9.17225 4 8.52608 4C7.87991 4 7.35421 4.5257 7.35421 5.17187C7.35421 5.34604 7.3927 5.51133 7.46113 5.66005C4.88093 6.13638 2.80905 8.35102 2.62793 11.0833H2.224C2.00827 11.0833 1.83337 11.2582 1.83337 11.474C1.83337 11.6897 2.00827 11.8646 2.224 11.8646H14.7761C14.9918 11.8646 15.1667 11.6897 15.1667 11.474C15.1667 11.2582 14.9918 11.0833 14.7761 11.0833ZM8.52608 4.78125C8.74147 4.78125 8.91671 4.95648 8.91671 5.17187C8.91671 5.38727 8.74147 5.5625 8.52608 5.5625C8.31069 5.5625 8.13546 5.38727 8.13546 5.17187C8.13546 4.95648 8.31069 4.78125 8.52608 4.78125ZM3.41139 11.0833C3.61861 8.47659 5.87645 6.33854 8.52608 6.33854C11.1961 6.33854 13.3914 8.4363 13.5896 11.0833H3.41139Z" fill="#141825"/>
</svg>
