<svg width="17" height="16" viewBox="0 0 17 16" fill="none" xmlns="http://www.w3.org/2000/svg">
<path d="M14.5 5.8V4.8C14.4982 4.73885 14.4832 4.67881 14.456 4.624V4.624L13.48 2.664C13.3802 2.46414 13.2266 2.2961 13.0365 2.17879C12.8464 2.06148 12.6274 1.99956 12.404 2H4.596C4.37262 1.99956 4.15355 2.06148 3.96345 2.17879C3.77336 2.2961 3.61978 2.46414 3.52 2.664L2.544 4.62C2.51624 4.67602 2.50122 4.73749 2.5 4.8V5.8C2.50046 6.09584 2.57367 6.38703 2.71318 6.64791C2.85268 6.90879 3.05421 7.13135 3.3 7.296V13.2H2.9C2.79391 13.2 2.69217 13.2421 2.61716 13.3172C2.54214 13.3922 2.5 13.4939 2.5 13.6C2.5 13.7061 2.54214 13.8078 2.61716 13.8828C2.69217 13.9579 2.79391 14 2.9 14H14.1C14.2061 14 14.3078 13.9579 14.3828 13.8828C14.4579 13.8078 14.5 13.7061 14.5 13.6C14.5 13.4939 14.4579 13.3922 14.3828 13.3172C14.3078 13.2421 14.2061 13.2 14.1 13.2H13.7V7.296C13.9458 7.13135 14.1473 6.90879 14.2868 6.64791C14.4263 6.38703 14.4995 6.09584 14.5 5.8V5.8ZM13.7 5.8C13.7 6.06522 13.5946 6.31957 13.4071 6.50711C13.2196 6.69464 12.9652 6.8 12.7 6.8C12.4348 6.8 12.1804 6.69464 11.9929 6.50711C11.8054 6.31957 11.7 6.06522 11.7 5.8V5.2H13.7V5.8ZM3.3 5.8V5.2H5.3V5.8C5.3 6.06522 5.19464 6.31957 5.00711 6.50711C4.81957 6.69464 4.56522 6.8 4.3 6.8C4.03478 6.8 3.78043 6.69464 3.59289 6.50711C3.40536 6.31957 3.3 6.06522 3.3 5.8ZM6.1 5.2H8.1V5.8C8.1 6.06522 7.99464 6.31957 7.80711 6.50711C7.61957 6.69464 7.36522 6.8 7.1 6.8C6.83478 6.8 6.58043 6.69464 6.39289 6.50711C6.20536 6.31957 6.1 6.06522 6.1 5.8V5.2ZM8.9 5.2H10.9V5.8C10.9 6.06522 10.7946 6.31957 10.6071 6.50711C10.4196 6.69464 10.1652 6.8 9.9 6.8C9.63478 6.8 9.38043 6.69464 9.19289 6.50711C9.00536 6.31957 8.9 6.06522 8.9 5.8V5.2ZM4.236 3.02C4.26954 2.95343 4.32103 2.89755 4.38464 2.85868C4.44825 2.81981 4.52145 2.79948 4.596 2.8H12.404C12.4785 2.79948 12.5518 2.81981 12.6154 2.85868C12.679 2.89755 12.7305 2.95343 12.764 3.02L13.452 4.4H3.548L4.236 3.02ZM9.7 13.2H7.3V10.8C7.3 10.6939 7.34214 10.5922 7.41716 10.5172C7.49217 10.4421 7.59391 10.4 7.7 10.4H9.3C9.40609 10.4 9.50783 10.4421 9.58284 10.5172C9.65786 10.5922 9.7 10.6939 9.7 10.8V13.2ZM12.9 13.2H10.5V10.8C10.5 10.4817 10.3736 10.1765 10.1485 9.95147C9.92348 9.72643 9.61826 9.6 9.3 9.6H7.7C7.38174 9.6 7.07651 9.72643 6.85147 9.95147C6.62643 10.1765 6.5 10.4817 6.5 10.8V13.2H4.1V7.6C4.16621 7.61063 4.233 7.6173 4.3 7.62C4.57002 7.61768 4.83605 7.55463 5.0784 7.43554C5.32075 7.31644 5.53319 7.14435 5.7 6.932C5.86873 7.14079 6.08202 7.3092 6.32426 7.42489C6.5665 7.54059 6.83155 7.60063 7.1 7.60063C7.36845 7.60063 7.6335 7.54059 7.87573 7.42489C8.11797 7.3092 8.33127 7.14079 8.5 6.932C8.66873 7.14079 8.88202 7.3092 9.12426 7.42489C9.3665 7.54059 9.63155 7.60063 9.9 7.60063C10.1684 7.60063 10.4335 7.54059 10.6757 7.42489C10.918 7.3092 11.1313 7.14079 11.3 6.932C11.4688 7.14068 11.6821 7.30897 11.9243 7.42455C12.1666 7.54013 12.4316 7.60008 12.7 7.6C12.7666 7.60394 12.8334 7.60394 12.9 7.6V13.2Z" fill="#141825"/>
</svg>
