<svg width="128" height="134" viewBox="0 0 128 134" fill="none" xmlns="http://www.w3.org/2000/svg">
<g clip-path="url(#clip0_312_4050)">
<circle cx="64" cy="70" r="64" fill="#ECF5FF"/>
<path fill-rule="evenodd" clip-rule="evenodd" d="M104 119.963C93.0432 128.746 79.135 134 63.9998 134C48.4004 134 34.1046 128.419 23 119.145V119H104V119.963Z" fill="#8DC3FF"/>
<g clip-path="url(#clip1_312_4050)">
<path d="M62.9278 0.7302C62.9278 0.7302 67.6638 -0.799992 71.4534 2.55228C75.242 5.90454 79.6144 9.40226 79.7599 24.9951C79.9053 40.5889 87.4836 46.2723 88.5037 57.6392C89.5238 69.006 88.941 69.8807 88.941 69.8807C88.941 69.8807 87.4836 53.2668 82.6748 48.458C82.6748 48.458 83.5495 50.2064 83.8404 59.3885C84.1323 68.5696 53.382 59.8258 53.382 59.8258L39.8285 61.8661C39.8285 61.8661 36.1853 54.7252 35.6025 48.7499C35.0197 42.7746 41.7233 33.0106 43.3262 21.4974C44.9291 9.98407 49.0096 -3.27758 62.9278 0.7302Z" fill="#2D2320"/>
<path d="M71.7079 51.8467C71.7079 51.8467 89.743 56.109 94.9891 61.3561C100.235 66.6021 101.365 83.0893 103.005 90.1388C105.19 99.5391 110.875 109.376 106.721 116.371C102.697 123.147 89.3921 124.177 87.2654 116.589L84.4232 99.9755C84.4232 99.9755 87.6781 103.328 86.5853 108.136C85.4924 112.945 88.4909 118.968 88.4909 118.968L28.3997 119.566C28.3997 119.566 35.7853 111.634 35.5671 104.857C35.3489 98.0806 39.4648 91.0852 39.4648 91.0852C39.4648 91.0852 38.8722 100.026 38.2993 103.254C33.4905 130.36 5.72791 124.239 16.4392 96.2586C19.7778 87.5374 24.1629 85.8381 24.8194 75.1268C25.4749 64.4155 27.4425 58.9502 34.0006 55.6716C40.5587 52.3931 50.8327 51.2993 50.8327 51.2993L71.7089 51.8457L71.7079 51.8467Z" fill="#0055D1"/>
<path d="M68.2102 36.7629C68.2102 36.7629 67.882 48.8953 68.7566 49.8791C69.6313 50.8628 73.129 52.1748 73.129 52.1748C73.129 52.1748 67.4377 60.4037 60.4423 60.0764C53.4469 59.7481 49.2288 51.4466 49.2288 51.4466C49.2288 51.4466 52.6538 50.3537 53.0911 48.8235C53.5284 47.2934 53.893 36.2174 53.893 36.2174L68.2112 36.7638L68.2102 36.7629Z" fill="#EFBCAB"/>
<path d="M68.1522 41.036C68.1601 38.6744 68.2112 36.7629 68.2112 36.7629L53.8931 36.2164C53.8931 36.2164 53.8243 38.3078 53.7103 40.7962C54.8336 42.5229 57.1254 45.1057 60.8148 45.1057C63.6472 45.1057 66.2653 43.0468 68.1522 41.035V41.036Z" fill="#EAB3A4"/>
<path d="M59.946 41.7956C59.946 41.7956 51.8518 42.5121 47.3173 25.4009C47.3173 25.4009 40.3641 3.51234 59.0065 3.03274C59.0065 3.03274 76.2238 2.40868 74.7575 17.1268C74.7575 17.1268 74.5511 43.0369 59.946 41.7966V41.7956Z" fill="#F9C7B2"/>
<path d="M55.7878 23.0806C55.8419 21.6162 55.4105 20.4113 54.8237 20.3897C54.238 20.3681 53.7191 21.5366 53.666 23.0009C53.612 24.4653 54.0434 25.6702 54.6301 25.6918C55.2159 25.7134 55.7348 24.5449 55.7878 23.0806Z" fill="#21202B"/>
<path d="M68.0441 23.9032C68.0982 22.4388 67.6667 21.234 67.08 21.2123C66.4943 21.1907 65.9754 22.3592 65.9223 23.8236C65.8682 25.2879 66.2997 26.4928 66.8864 26.5144C67.4721 26.5361 67.991 25.3675 68.0441 23.9032Z" fill="#21202B"/>
<path d="M60.7499 30.5124C60.7499 30.5124 60.8462 30.5026 60.8806 30.4642C61.0693 30.2579 61.1381 29.9512 61.0546 29.6829C61.0389 29.6299 60.9946 29.5896 60.9396 29.5788C60.6035 29.51 60.2556 29.4392 59.9666 29.2633C59.7317 29.1198 59.4831 28.8505 59.489 28.5213C59.4929 28.2717 59.6384 28.0427 59.7937 27.7999L59.8605 27.6938C60.7922 26.197 60.8747 24.2884 60.9406 22.7553C60.9445 22.6718 60.8718 22.5931 60.8718 22.5931C60.7116 22.5931 60.6408 22.658 60.6369 22.7415C60.5681 24.3179 60.4914 26.1036 59.602 27.5336L59.5362 27.6378C59.374 27.8923 59.1902 28.1812 59.1843 28.5173C59.1784 28.8997 59.4173 29.2859 59.8084 29.5237C60.1111 29.7095 60.461 29.792 60.7814 29.8579C60.7981 30.0013 60.7519 30.1547 60.6546 30.2598C60.5976 30.3217 60.6025 30.418 60.6644 30.475C60.689 30.4977 60.7175 30.5094 60.7479 30.5134L60.7499 30.5124Z" fill="#F2B7A2"/>
<path d="M70.8185 19.2939C69.0662 17.7283 64.6712 16.5548 63.3228 19.2673C63.2393 19.4344 63.3336 19.7164 63.5626 19.6889C64.6014 19.568 65.4879 19.0265 66.5473 18.9479C67.9409 18.8447 69.2608 19.2997 70.5482 19.7538C70.8057 19.8452 71.0219 19.4747 70.8195 19.2929L70.8185 19.2939Z" fill="#261E1D"/>
<path d="M50.1418 19.2016C51.9088 17.6517 56.3127 16.5176 57.6374 19.2419C57.719 19.4099 57.6227 19.691 57.3937 19.6615C56.3559 19.5308 55.4743 18.9814 54.4159 18.8939C53.0233 18.778 51.6995 19.2212 50.4081 19.6644C50.1496 19.7529 49.9374 19.3804 50.1418 19.2016Z" fill="#261E1D"/>
<path d="M74.4774 24.3395C73.8219 21.7165 64.5307 7.6165 62.8914 10.1305C62.8914 10.1305 61.7986 7.94475 59.9401 9.47494C58.0817 11.0051 52.2892 20.1863 46.4957 23.5749L44.5281 17.1259C44.5281 17.1259 44.9655 9.14669 49.0096 5.43079C53.0538 1.71489 58.0817 -0.909133 66.7164 2.04216C75.3511 4.99345 77.5368 14.721 77.5368 14.721L74.4764 24.3395H74.4774Z" fill="#2D2320"/>
<path d="M73.3334 25.2898C73.3334 25.2898 74.7221 20.5902 77.9299 24.1468C79.2036 25.5591 77.5614 30.8484 73.1418 29.5787C73.1418 29.5787 71.8259 28.4337 73.3334 25.2898Z" fill="#F9C7B2"/>
<path d="M74.0577 28.0337C74.615 28.3502 75.8661 28.7059 76.6356 28.1143C76.6946 28.0691 76.7122 27.9747 76.6739 27.904C76.6366 27.8322 76.557 27.8126 76.498 27.8588C75.7147 28.4592 74.3447 27.9285 74.0361 27.6799C74.0607 27.6543 74.0912 27.6239 74.1177 27.5973C74.3555 27.3575 74.7988 26.9133 74.6514 26.2273C74.5904 25.9463 74.4705 25.7468 74.2946 25.6347C74.1609 25.5502 74.0312 25.5335 73.9182 25.5374C74.155 24.9684 74.7939 23.6446 75.584 23.7281C76.3457 23.8087 76.9068 24.1016 77.2547 24.5969C77.6823 25.2072 77.6311 25.9286 77.6302 25.9355C77.6233 26.019 77.6734 26.0917 77.7451 26.1015C77.8149 26.1094 77.8778 26.0485 77.8847 25.9649C77.8876 25.9305 77.9486 25.1158 77.4542 24.4062C77.0621 23.8421 76.441 23.5129 75.6066 23.4254C74.4214 23.2996 73.6175 25.5777 73.5841 25.675C73.5644 25.7301 73.5742 25.7939 73.6086 25.8372C73.644 25.8814 73.6961 25.8961 73.7433 25.8775C73.7452 25.8765 73.9831 25.7802 74.1757 25.905C74.2858 25.9758 74.3624 26.1094 74.4047 26.305C74.5128 26.8052 74.1757 27.1433 73.9536 27.3664C73.8494 27.4706 73.7816 27.5394 73.7541 27.6239C73.7344 27.6848 73.7334 27.7782 73.8386 27.8804C73.8877 27.9276 73.9634 27.9816 74.0597 28.0357L74.0577 28.0337Z" fill="#F2B7A2"/>
<path d="M48.3315 24.9066C48.3315 24.9066 46.9428 20.207 43.735 23.7637C42.4613 25.1759 44.1035 30.4652 48.5231 29.1955C48.5231 29.1955 49.8391 28.0506 48.3315 24.9066Z" fill="#F9C7B2"/>
<path d="M47.6081 27.6515C47.0509 27.9679 45.7998 28.3237 45.0303 27.7321C44.9713 27.6869 44.9537 27.5925 44.992 27.5218C45.0293 27.45 45.1089 27.4304 45.1679 27.4766C45.9512 28.077 47.3212 27.5463 47.6298 27.2977C47.6052 27.2721 47.5747 27.2417 47.5482 27.2151C47.3104 26.9753 46.8671 26.5311 47.0145 25.8451C47.0755 25.5641 47.1954 25.3646 47.3713 25.2525C47.505 25.168 47.6347 25.1513 47.7477 25.1552C47.5109 24.5862 46.872 23.2624 46.0819 23.3459C45.3202 23.4265 44.7591 23.7194 44.4112 24.2147C43.9836 24.825 44.0348 25.5464 44.0357 25.5533C44.0426 25.6368 43.9925 25.7095 43.9208 25.7193C43.851 25.7272 43.7881 25.6663 43.7812 25.5827C43.7782 25.5483 43.7173 24.7336 44.2117 24.024C44.6038 23.4599 45.2249 23.1307 46.0593 23.0432C47.2445 22.9174 48.0484 25.1955 48.0818 25.2928C48.1015 25.3479 48.0917 25.4117 48.0573 25.455C48.0219 25.4992 47.9698 25.5139 47.9226 25.4953C47.9207 25.4943 47.6828 25.398 47.4902 25.5228C47.3801 25.5935 47.3035 25.7272 47.2612 25.9228C47.1531 26.423 47.4902 26.7611 47.7123 26.9842C47.8165 27.0884 47.8843 27.1572 47.9118 27.2417C47.9315 27.3026 47.9325 27.396 47.8273 27.4972C47.7782 27.5444 47.7025 27.5984 47.6062 27.6525L47.6081 27.6515Z" fill="#F2B7A2"/>
<path d="M62.8914 10.1304C63.5833 9.76581 71.0888 23.6289 73.4386 22.5361C75.1575 21.7361 76.1167 22.1538 76.1167 22.1538C76.1167 22.1538 72.7467 22.6825 71.5811 20.7877C70.4156 18.8929 63.8024 8.81939 62.6368 8.89212L62.8924 10.1304H62.8914Z" fill="#2D2320"/>
<path d="M18.9896 98.0728C18.9129 98.0728 18.8373 98.0295 18.8009 97.9548C18.7498 97.8507 18.793 97.7249 18.8972 97.6747C31.4463 91.5442 34.489 95.8114 34.6119 95.9981C34.6758 96.0944 34.6492 96.2251 34.5529 96.289C34.4576 96.3509 34.3298 96.3274 34.263 96.232C34.2365 96.1917 31.2567 92.1093 19.081 98.0521C19.0515 98.0669 19.0201 98.0738 18.9896 98.0738V98.0728Z" fill="#0050AF"/>
<path d="M34.0349 93.9549H34.0222C28.7889 93.6267 25.4395 91.7604 25.4071 91.7417C25.3059 91.6847 25.2715 91.5559 25.3285 91.4557C25.3845 91.3535 25.5152 91.3211 25.6135 91.3761C25.6459 91.3948 28.9186 93.2149 34.0477 93.5353C34.1637 93.5421 34.2512 93.6424 34.2443 93.7584C34.2374 93.8694 34.144 93.9549 34.034 93.9549H34.0349Z" fill="#0050AF"/>
<path d="M103.077 98.0727C103.046 98.0727 103.015 98.0659 102.986 98.0511C90.8122 92.1053 87.8324 96.1888 87.8039 96.231C87.7381 96.3273 87.6034 96.3499 87.514 96.288C87.4177 96.2232 87.3912 96.0934 87.455 95.9981C87.5779 95.8133 90.6216 91.5461 103.17 97.6747C103.275 97.7258 103.317 97.8506 103.266 97.9548C103.23 98.0295 103.155 98.0727 103.077 98.0727Z" fill="#0050AF"/>
<path d="M88.03 93.9549C87.9199 93.9549 87.8265 93.8694 87.8197 93.7584C87.8128 93.6424 87.9002 93.5431 88.0162 93.5353C93.1542 93.2149 96.42 91.3948 96.4524 91.3761C96.5526 91.3191 96.6824 91.3545 96.7374 91.4557C96.7944 91.5569 96.76 91.6847 96.6588 91.7417C96.6264 91.7604 93.277 93.6267 88.0418 93.9549H88.029H88.03Z" fill="#0050AF"/>
<path d="M44.6235 116.704C41.6958 117.483 36.8143 117.639 35.8177 117.419C34.8212 117.199 28.6267 117.493 28.6267 117.493C28.6267 117.493 24.7565 112.698 30.5107 108.508L34.2492 110.325L45.1551 102.9C45.1551 102.9 47.7575 103.808 48.2617 104.109C48.7649 104.411 52.585 109.055 52.585 109.055L44.6225 116.703L44.6235 116.704Z" fill="#EFBCAB"/>
<path d="M78.1019 116.594C81.1269 116.423 85.8138 115.053 86.6924 114.534C87.571 114.015 93.5493 112.367 93.5493 112.367C93.5493 112.367 95.736 106.606 88.9636 104.415L85.976 107.305L73.301 103.641C73.301 103.641 71.1094 105.314 70.7252 105.757C70.3399 106.2 68.1552 111.803 68.1552 111.803L78.1009 116.595L78.1019 116.594Z" fill="#EFBCAB"/>
<path d="M71.4603 102.114C71.4603 102.114 65.6491 109.354 66.4334 110.072C68.0785 111.578 74.0735 103.821 74.0735 103.821C74.0735 103.821 69.2038 111.27 70.3989 112.039C71.5939 112.809 76.7064 105.87 76.7064 105.87C76.7064 105.87 72.2229 113.202 73.7649 113.175C74.7752 113.157 79.0336 108.126 79.0336 108.126C79.0336 108.126 75.6538 113.732 76.7997 114.033C77.9457 114.335 81.5721 108.4 81.5721 108.4C81.5721 108.4 81.1712 106.829 79.755 106.692C79.2528 106.644 78.8076 105.347 77.6842 105.319C77.6842 105.319 76.3074 102.79 74.1374 103.397C74.1374 103.397 73.872 100.705 71.4603 102.113V102.114Z" fill="#EFBCAB"/>
<path d="M46.4308 100.877C46.4308 100.877 54.2056 105.95 53.6837 106.876C52.5889 108.819 44.478 103.312 44.478 103.312C44.478 103.312 51.4233 108.875 50.527 109.979C49.6307 111.083 42.6137 106.078 42.6137 106.078C42.6137 106.078 49.1551 111.652 47.6819 112.106C46.7158 112.404 41.1041 108.946 41.1041 108.946C41.1041 108.946 46.0603 113.223 45.0647 113.866C44.0692 114.509 38.7769 109.997 38.7769 109.997C38.7769 109.997 38.6688 108.379 39.973 107.809C40.4358 107.607 40.4555 106.237 41.514 105.86C41.514 105.86 42.0358 103.029 44.2864 102.931C44.2864 102.931 43.7016 100.289 46.4308 100.877Z" fill="#EFBCAB"/>
<path d="M114 79.6643L57.7859 79.4166L43.2781 120.299L99.1069 121.093L114 79.6643Z" fill="#3B3348"/>
<path d="M58.6373 116.802L22.827 116.645L22.8115 120.201L58.6218 120.357L58.6373 116.802Z" fill="#3B3348"/>
<path d="M83.9092 93.8625C83.2625 94.1957 82.6532 94.6419 82.264 95.2561C81.4296 96.5701 81.8473 98.4502 83.0119 99.4821C84.1765 100.515 85.9111 100.752 87.4089 100.326C88.9066 99.9008 90.1833 98.8885 91.1867 97.6993C91.8609 96.9003 92.4486 95.9578 92.4967 94.9141C92.5459 93.8704 91.8923 92.7392 90.8643 92.5545C90.0614 92.41 89.2801 92.8434 88.4781 92.9889C87.9288 93.0881 87.3656 93.0518 86.8084 93.0812C85.801 93.1333 84.8055 93.4016 83.9092 93.8625Z" fill="white"/>
<path d="M64.283 32.6657C63.7543 32.2677 63.0123 32.4613 62.3647 32.5969C61.1087 32.8593 59.7907 32.8269 58.5495 32.5026C57.9028 32.3335 57.1087 32.1252 56.6517 32.6117C56.2282 33.0618 56.4198 33.8057 56.75 34.3286C57.8213 36.0239 60.1662 36.7787 62.0246 36.0268C63.3661 35.4834 64.4255 34.1065 64.283 32.6667V32.6657Z" fill="white"/>
<path d="M76.1511 29.8009C76.1511 29.8009 75.2165 38.1319 61.6354 37.6386V38.8081C61.6354 38.8081 75.5005 39.6366 77.2774 29.8009H76.1511Z" fill="#E4EEF9"/>
<path d="M63.6796 36.0002H61.091C60.0385 36.0002 59.1854 36.8534 59.1854 37.9059V37.9068C59.1854 38.9593 60.0385 39.8125 61.091 39.8125H63.6796C64.7321 39.8125 65.5852 38.9593 65.5852 37.9068V37.9059C65.5852 36.8534 64.7321 36.0002 63.6796 36.0002Z" fill="#23262D"/>
<path d="M74.3408 32.9527C74.3408 32.9527 77.4631 33.2259 78.8449 30.1439C78.8449 30.1439 80.4026 26.3789 79.1515 19.9426C79.1515 19.9426 78.7535 17.0513 75.2804 16.6041C74.5099 16.5049 73.7649 17.009 73.6264 17.7736C73.5851 18.0046 73.5644 18.2748 73.5772 18.5913V31.9562C73.5772 31.9562 73.6735 32.9547 74.3408 32.9527Z" fill="#9CB0DB"/>
<path d="M46.7925 32.9527C46.7925 32.9527 43.6702 33.2259 42.2884 30.1439C42.2884 30.1439 40.7307 26.3789 41.9818 19.9426C41.9818 19.9426 42.3798 17.0513 45.8529 16.6041C46.6234 16.5049 47.3684 17.009 47.507 17.7736C47.5482 18.0046 47.5689 18.2748 47.5561 18.5913V31.9562C47.5561 31.9562 47.4598 32.9547 46.7925 32.9527Z" fill="#9CB0DB"/>
<path d="M47.6426 17.7736C47.504 17.009 46.7591 16.5049 45.9886 16.6041C45.904 16.6149 45.8225 16.6287 45.7409 16.6424C46.2746 16.783 46.7119 17.2056 46.8141 17.7736C46.8554 18.0046 46.876 18.2748 46.8632 18.5913V31.9562C46.8632 31.9562 46.7817 32.7925 46.2559 32.9321C46.6628 32.9743 46.9271 32.9517 46.9271 32.9517C47.5944 32.9547 47.6907 31.9552 47.6907 31.9552V18.5913C47.7035 18.2748 47.6839 18.0036 47.6416 17.7736H47.6426Z" fill="#7D93BC"/>
<path d="M73.6254 17.7736C73.7639 17.009 74.5089 16.5049 75.2794 16.6041C75.3639 16.6149 75.4455 16.6287 75.5271 16.6424C74.9934 16.783 74.5561 17.2056 74.4539 17.7736C74.4126 18.0046 74.3919 18.2748 74.4047 18.5913V31.9562C74.4047 31.9562 74.4863 32.7925 75.0121 32.9321C74.6052 32.9743 74.3408 32.9517 74.3408 32.9517C73.6735 32.9547 73.5772 31.9552 73.5772 31.9552V18.5913C73.5644 18.2748 73.5841 18.0036 73.6264 17.7736H73.6254Z" fill="#7D93BC"/>
<path d="M49.2288 9.70696C49.2288 9.70696 54.469 4.81369 60.5632 4.68494C66.6574 4.5562 73.3226 9.70696 73.3226 9.70696L75.2145 10.3517C75.2145 10.3517 73.8897 5.5665 64.0766 3.25401C61.5676 2.66238 58.9396 2.741 56.4807 3.51248C53.3673 4.48937 49.2386 6.40383 47.1433 9.99884L49.2288 9.70794V9.70696Z" fill="#B7CAE5"/>
</g>
</g>
<defs>
<clipPath id="clip0_312_4050">
<rect width="128" height="134" fill="white"/>
</clipPath>
<clipPath id="clip1_312_4050">
<rect width="100" height="134" fill="white" transform="translate(14)"/>
</clipPath>
</defs>
</svg>
