<svg width="128" height="134" viewBox="0 0 128 134" fill="none" xmlns="http://www.w3.org/2000/svg">
<g clip-path="url(#clip0_209_2122)">
<circle cx="64" cy="70" r="64" fill="#ECF5FF"/>
<g clip-path="url(#clip1_209_2122)">
<path d="M75.6232 44.6468L73.7843 43.505L71.6856 30.0374L58.6161 31.9522L58.1383 45.0499L56.5077 46.204L59.0167 48.1923L68.4979 50.3853L72.1353 47.3556L75.6232 44.6468Z" fill="#EFBCAB"/>
<path d="M106.251 103.387C108.619 78.1097 103.942 72.604 103.942 72.604L91.4431 72.9495L92.3521 106.23L106.252 103.389L106.251 103.387Z" fill="#F9C7B2"/>
<path d="M56.9671 45.6368C56.9671 45.6368 50.1567 48.4374 46.8599 49.4788C43.5631 50.5201 35.7971 53.1088 32.836 57.703C29.8749 62.2972 26.4042 83.1927 26.4042 83.1927C26.4042 83.1927 40.5616 89.2374 42.9347 89.1713C42.9347 89.1713 44.3925 77.8328 44.6694 90.6267C44.716 92.7756 43.2311 133.973 43.2311 133.973C43.2311 133.973 45.5552 133.973 48.2308 133.973C51.6881 133.973 66.8979 134.959 74.5892 134.951C84.8397 134.943 92.972 133.393 92.972 133.393C92.972 133.393 90.735 107.005 90.7766 102.47C90.7987 100.096 92.2994 86.7345 92.2994 86.7345C92.2994 86.7345 104.781 89.3698 109.199 85.9223C109.199 85.9223 102.11 54.084 96.0703 51.2062C90.1641 48.3921 75.214 44.1814 75.214 44.1814C75.214 44.1814 64.2761 52.3211 56.9659 45.6344L56.9671 45.6368Z" fill="#F7FAFC"/>
<path d="M52.1683 47.5504C52.1683 47.5504 52.3717 48.3835 52.1683 49.4273C52.1683 49.4273 49.4608 59.1988 49.1827 61.2852C48.9046 63.3716 49.3224 67.1265 49.3224 67.1265C49.3224 67.1265 49.516 69.2864 49.3702 70.5544C49.3371 70.846 49.5637 71.1008 49.8578 71.1033C52.901 71.1216 67.0008 70.8582 72.4244 70.9954L48.014 72.0037L47.7089 61.6919L52.1696 47.5516L52.1683 47.5504Z" fill="#DCE3E7"/>
<path d="M44.9904 73.5314C44.95 76.3933 44.9169 84.7988 44.2688 88.2046L40.7278 125.5C40.7278 125.5 77.2509 129.937 95.0004 125.5L92.4624 84.8404C92.4624 84.8404 91.7396 75.6888 91.4431 72.0588C91.3671 71.1289 90.5757 70.422 89.6434 70.4514L46.6884 71.8052C45.7524 71.8346 45.0063 72.5954 44.9929 73.5314H44.9904Z" fill="#0055D1"/>
<path d="M91.3685 71.3678C91.3685 71.3678 91.1039 87.064 91.148 89.486L91.442 94.7442L90.5002 125L94.1902 124.243L92.2739 72.9886L91.3685 71.3678Z" fill="#0050AF"/>
<path d="M49.1987 48.6714L46.0158 62.3878V67.7256C46.0158 67.7256 45.0173 71.6472 44.9794 74.4086H47.9172C47.9172 74.4086 48.8924 69.5278 48.7748 67.3054C48.7748 67.3054 48.2676 62.83 48.58 61.54L52.1683 47.5504L49.1987 48.6714Z" fill="#0055D1"/>
<path d="M87.3904 47.913L90.5426 61.7948V67.1326C90.5426 67.1326 91.5411 71.0542 91.579 73.8156H88.6412C88.6412 73.8156 87.666 68.9348 87.7836 66.7124C87.7836 66.7124 88.2908 62.2371 87.9784 60.947L84.3901 46.9146L87.3438 47.8628C87.3671 47.8701 87.3855 47.8897 87.3904 47.913Z" fill="#0055D1"/>
<path d="M70.1442 103.694C79.0814 103.448 88.6275 96.8184 88.7279 96.7474C88.8357 96.6726 88.8615 96.5244 88.7855 96.4166C88.7108 96.3088 88.5625 96.2843 88.4547 96.359C88.3494 96.4338 77.8391 103.731 68.6863 103.2C60.3726 102.725 51.3546 98.9514 49.6125 98.1906C49.9665 97.9321 50.9282 97.5596 53.2572 98.231C56.4082 99.1376 65.9959 101.903 73.539 98.9342C73.6615 98.8864 73.7203 98.748 73.6725 98.6267C73.6235 98.5042 73.4875 98.4454 73.365 98.4932C65.9726 101.4 56.5001 98.6708 53.3883 97.774C49.7852 96.7364 49.0673 98.024 48.9975 98.1734C48.9705 98.231 48.9681 98.2972 48.9901 98.356C49.0122 98.4148 49.0575 98.4625 49.1138 98.4895C49.2155 98.536 59.3656 103.144 68.6593 103.674C69.1506 103.702 69.648 103.708 70.1442 103.695V103.694Z" fill="#0050AF"/>
<path d="M92.5071 73.2524C92.6198 73.2488 92.7166 73.1679 92.735 73.0527L94.1536 64.2258C94.1745 64.0959 94.0863 63.9746 93.9576 63.9538C93.818 63.9342 93.7065 64.0212 93.6856 64.151L92.267 72.978C92.2461 73.1079 92.3343 73.2292 92.463 73.25C92.4789 73.2524 92.4936 73.2537 92.5071 73.2524Z" fill="#EDF2F5"/>
<path d="M92.9224 71.1035C92.9947 71.101 93.0657 71.0668 93.111 71.0018L96.3098 66.4015C96.3845 66.2937 96.3576 66.1455 96.2498 66.0707C96.1432 65.996 95.9937 66.023 95.9202 66.1308L92.7215 70.7311C92.6467 70.8389 92.6737 70.9871 92.7815 71.0618C92.8244 71.0925 92.8746 71.1059 92.9236 71.1035H92.9224Z" fill="#EDF2F5"/>
<path d="M43.5742 81.6319C43.4615 81.6283 43.3647 81.5474 43.3463 81.4323L41.9276 72.6053C41.9068 72.4754 41.995 72.3541 42.1236 72.3333C42.2633 72.3137 42.3748 72.4007 42.3956 72.5306L43.8143 81.3575C43.8351 81.4874 43.7469 81.6087 43.6183 81.6295C43.6023 81.6319 43.5876 81.6332 43.5742 81.6319Z" fill="#EDF2F5"/>
<path d="M43.1589 79.483C43.0866 79.4806 43.0155 79.4463 42.9702 79.3813L39.7714 74.781C39.6967 74.6732 39.7236 74.525 39.8314 74.4502C39.938 74.3755 40.0875 74.4025 40.161 74.5103L43.3598 79.1106C43.4345 79.2184 43.4076 79.3666 43.2997 79.4414C43.2569 79.472 43.2066 79.4855 43.1576 79.483H43.1589Z" fill="#EDF2F5"/>
<path d="M58.6345 31.951L71.704 30.0361L73.0075 38.4C71.7359 40.2315 68.7625 43.5945 64.1463 43.2723C61.6164 43.0959 59.7322 41.3035 58.3699 39.2257L58.6345 31.951Z" fill="#EAB3A4"/>
<path d="M64.689 39.864C64.689 39.864 57.4952 40.5011 53.4645 25.2925C53.4645 25.2925 47.2838 5.83892 63.8535 5.41258C63.8535 5.41258 78.6027 4.85026 77.3004 17.9308C77.3004 17.9308 77.6691 40.9666 64.689 39.864Z" fill="#F9C7B2"/>
<path d="M65.0835 30.2494C65.1153 30.2506 65.1472 30.2322 65.1693 30.1955C65.3359 29.9063 65.3506 29.6662 65.2232 29.3085C65.1546 29.1173 64.9941 29.0879 64.8642 29.0634C64.8262 29.0561 64.7895 29.05 64.7564 29.0389L64.6412 29.0034C64.433 28.9397 64.2357 28.8785 64.0666 28.7425C63.8927 28.6016 63.7334 28.3308 63.7702 28.0392C63.7886 27.8971 63.8498 27.7636 63.9147 27.6215L63.9294 27.5896C64.5702 26.1955 64.8826 24.5428 64.8115 22.9354C64.8091 22.8619 64.7588 22.8068 64.7062 22.8141C64.651 22.8203 64.6094 22.8864 64.613 22.9587C64.6817 24.5109 64.3791 26.1072 63.7604 27.4536L63.7457 27.4855C63.6722 27.6435 63.5974 27.8077 63.5729 28.0025C63.5215 28.4141 63.7297 28.7853 63.9588 28.9716C64.1536 29.1284 64.3754 29.197 64.5898 29.2631L64.7025 29.2987C64.7417 29.3121 64.7858 29.3195 64.8299 29.3281C64.9218 29.3452 65.0186 29.3624 65.0418 29.4298C65.1374 29.6956 65.13 29.8316 65.0124 30.0362C64.9781 30.095 64.9855 30.1795 65.0284 30.2236C65.0443 30.2396 65.0639 30.2494 65.0835 30.2494Z" fill="#F2B7A2"/>
<path d="M58.9298 23.717C58.8673 22.476 59.2177 21.4493 59.7151 21.4236C60.2125 21.3979 60.6657 22.3829 60.7282 23.6239C60.7907 24.8649 60.4403 25.8916 59.9429 25.9173C59.4468 25.943 58.9922 24.958 58.9298 23.717Z" fill="#261E1D"/>
<path d="M69.6985 23.613C69.6532 22.3719 70.0195 21.3502 70.5169 21.3318C71.0143 21.3134 71.4529 22.3045 71.4982 23.5468C71.5435 24.7878 71.1772 25.8096 70.6798 25.828C70.1824 25.8463 69.7438 24.8552 69.6985 23.613Z" fill="#261E1D"/>
<path d="M52.852 24.0993C52.852 24.0993 48.8789 10.7884 54.006 7.84203C59.1331 4.89563 61.8406 5.02181 61.8406 5.02181C61.8406 5.02181 74.4948 2.66959 76.5628 8.6212C78.6296 14.574 76.727 25.4433 76.727 25.4433L73.4155 14.3168L56.7968 11.1572L53.5613 24.3799L52.852 24.0993Z" fill="#2D2320"/>
<path d="M75.9454 23.6472C75.9454 23.6472 76.7784 20.1091 79.0829 22.7455C79.998 23.7918 79.0057 27.7758 75.927 26.8668C75.927 26.8668 74.9898 26.0202 75.9454 23.6484V23.6472Z" fill="#F9C7B2"/>
<path d="M77.5968 25.986C77.848 25.9787 78.0942 25.9101 78.2915 25.7373C78.3307 25.703 78.3417 25.6307 78.316 25.5756C78.2902 25.5205 78.2376 25.5033 78.1971 25.5388C77.674 25.997 76.7209 25.616 76.493 25.431C76.5077 25.4127 76.5261 25.3931 76.542 25.3747C76.7 25.1921 76.9953 24.8528 76.8752 24.3333C76.8262 24.1275 76.7417 23.9805 76.6229 23.8972C76.531 23.8323 76.4342 23.8188 76.3546 23.8237C76.504 23.3924 76.9144 22.4013 77.4547 22.4577C78.9628 22.6096 78.9285 24.0307 78.9261 24.092C78.9236 24.1569 78.9592 24.2133 79.0069 24.2169C79.0608 24.2231 79.0951 24.1728 79.0976 24.1091C79.0976 24.0908 79.1135 23.6681 78.9163 23.2221C78.7362 22.8154 78.338 22.3119 77.4657 22.2237C76.6461 22.1453 76.1536 23.8592 76.1328 23.9327C76.1206 23.9756 76.1279 24.0246 76.1512 24.0577C76.1745 24.0908 76.2088 24.103 76.2406 24.0883C76.2418 24.0883 76.4121 24.0123 76.5494 24.1079C76.6253 24.1606 76.6804 24.2598 76.7135 24.4019C76.7993 24.7707 76.5788 25.0255 76.433 25.1934C76.3644 25.273 76.3178 25.3257 76.3007 25.3918C76.2909 25.4286 76.2847 25.5021 76.3533 25.578C76.4869 25.7251 77.0541 26.0019 77.5981 25.9872L77.5968 25.986Z" fill="#F2B7A2"/>
<path d="M54.1555 24.5035C54.1555 24.5035 53.1288 21.0169 50.9739 23.7758C50.1175 24.8711 51.3279 28.7939 54.3527 27.717C54.3527 27.717 55.2422 26.8202 54.1567 24.5048L54.1555 24.5035Z" fill="#F9C7B2"/>
<path d="M52.6363 26.9306C52.3852 26.9379 52.1352 26.8828 51.9294 26.7211C51.8878 26.6892 51.8731 26.6169 51.8964 26.5606C51.9196 26.5042 51.9699 26.4846 52.0127 26.5177C52.5604 26.9465 53.4902 26.514 53.7083 26.3156C53.6924 26.2984 53.674 26.2788 53.6568 26.2617C53.4878 26.0877 53.1754 25.7655 53.2673 25.2399C53.304 25.0316 53.3812 24.8797 53.4951 24.7903C53.5833 24.7205 53.6789 24.7021 53.7598 24.7021C53.5858 24.2794 53.1227 23.3128 52.5861 23.3986C51.089 23.6326 51.2017 25.0512 51.2066 25.1113C51.2127 25.1762 51.1797 25.2338 51.1331 25.2411C51.0792 25.2497 51.0424 25.2019 51.0375 25.1382C51.0351 25.1211 50.9971 24.6984 51.1699 24.2427C51.3279 23.8261 51.6967 23.3018 52.564 23.1658C53.3775 23.0421 53.9643 24.7266 53.9888 24.7989C54.0035 24.8405 53.9986 24.8895 53.9766 24.9238C53.9558 24.9581 53.9215 24.9728 53.8884 24.9594C53.8872 24.9594 53.7132 24.892 53.5809 24.9961C53.5086 25.0537 53.4584 25.1554 53.4339 25.2987C53.3677 25.6724 53.6029 25.9137 53.7585 26.0742C53.832 26.1502 53.8798 26.2004 53.9006 26.2641C53.9117 26.3009 53.9215 26.3731 53.8578 26.4528C53.7328 26.6059 53.1815 26.9146 52.6375 26.9293L52.6363 26.9306Z" fill="#F2B7A2"/>
<path d="M68.8899 31.4966C68.3999 31.1278 67.7126 31.3067 67.1123 31.4329C65.9484 31.6766 64.727 31.646 63.5766 31.3459C62.9775 31.1891 62.2412 30.9955 61.8173 31.4476C61.4253 31.8653 61.603 32.5538 61.908 33.039C62.9003 34.6096 65.0737 35.3091 66.7962 34.612C68.0397 34.1085 69.021 32.8332 68.8887 31.4978L68.8899 31.4966Z" fill="white"/>
<path d="M52.014 8.92378C51.7432 9.44078 51.2226 9.88672 51.1491 10.4441C51.0743 11.0077 51.4737 11.5235 51.7187 12.0503C51.9638 12.5771 51.9907 13.2889 51.4051 13.5964C52.4073 13.5878 53.2746 12.7327 53.0933 11.9302C53.5503 11.9363 53.9877 12.174 54.169 12.5146C54.3503 12.8552 54.2645 13.2815 53.9607 13.5621C54.5267 13.5008 55.1123 13.3403 55.4811 12.9826C55.7212 12.7498 55.8486 12.4558 55.9711 12.1679C56.4379 11.0726 56.9034 9.97738 57.3702 8.88213C56.8581 10.8056 56.7429 13.0353 58.9677 13.7667C59.8878 14.0693 60.9561 14.1734 61.6654 14.7357C62.2131 15.1694 62.4557 15.815 63.0155 16.2377C63.8217 16.8454 65.0492 16.8454 66.153 16.8098C66.1628 16.6285 65.8406 16.6114 65.6189 16.5942C65.1215 16.5575 64.7491 16.1801 64.6425 15.7832C64.5359 15.3863 64.6339 14.9722 64.7331 14.5728C65.1252 15.2307 66.1102 15.5039 67.0106 15.5259C67.9111 15.548 68.8152 15.3838 69.7108 15.4549C71.0792 15.5639 72.2909 16.2083 73.6373 16.4313C74.436 16.5636 75.2691 16.5428 76.0593 16.7033C76.939 16.8809 77.7255 17.2717 78.5488 17.5768C79.4014 17.8928 80.4342 18.1121 81.2526 17.7262C80.2455 17.3366 79.2887 16.8637 78.4005 16.3161C77.9766 16.0552 77.5233 15.6497 77.723 15.2429C78.1935 16.1397 79.595 16.6187 80.7209 16.2671C80.1733 16.3933 79.3782 16.0454 79.1295 15.6313C78.8808 15.2172 78.8808 14.7357 78.8844 14.2726C78.8942 13.257 78.7264 12.2365 78.7362 11.2221C78.7399 10.8693 78.7411 10.5079 78.5916 10.1771C78.3282 9.59637 78.0269 9.22271 77.8308 8.62485C77.7181 8.28059 77.527 7.85425 77.5282 7.49652C77.5331 6.30571 77.0235 5.24476 75.9601 4.43741C74.8967 3.63006 73.5613 3.10081 72.2076 2.66589C69.8357 1.90265 67.2814 1.38687 64.7307 1.58412C62.7497 1.73603 60.8532 2.30938 58.9837 2.87784C58.1004 3.14614 57.1705 3.44139 56.5873 4.04782C56.0973 4.55747 57.4119 5.11122 57.2526 5.74461C56.4109 5.70295 55.5546 5.66375 54.7288 5.81811C53.9043 5.97248 53.0994 6.35226 52.6976 6.96237C52.3007 7.5639 52.3448 8.29652 52.0152 8.92378H52.014Z" fill="#382925"/>
<path d="M76.0078 9.31703C75.8645 9.58288 75.5141 9.68211 75.2176 9.62086C74.9212 9.56083 74.6663 9.37706 74.4262 9.19329C74.0501 8.90661 73.6593 8.56848 73.5686 8.10539C73.5405 7.95838 73.5417 7.79911 73.4596 7.67415C73.3726 7.54184 73.2146 7.48058 73.0651 7.42668C72.6351 7.27109 72.2063 7.1155 71.7763 6.95991C71.3892 6.82024 70.9873 6.66955 70.7056 6.3694C70.4127 6.057 70.2902 5.62331 70.1996 5.20554C70.1138 4.81106 70.1273 4.27078 70.5132 4.15562C70.6345 4.11887 70.7644 4.13969 70.8893 4.16297C71.927 4.35409 72.934 4.70692 73.8627 5.20554C74.0011 5.28027 74.1457 5.36481 74.2216 5.50202C74.3013 5.64536 74.2939 5.81933 74.2988 5.98349C74.3221 6.70386 74.6504 7.4083 75.1882 7.88854C75.4112 8.08824 75.6697 8.25118 75.8572 8.48518C76.0446 8.71795 76.1475 9.05485 76.0066 9.31825L76.0078 9.31703Z" fill="#473730"/>
<path d="M64.6265 3.63623C64.6731 3.39366 64.95 3.28095 65.1876 3.21112C65.4229 3.14128 65.6593 3.07145 65.8945 3.0004C66.4213 2.84358 66.9984 2.68922 67.5043 2.90239C67.7506 3.0053 67.9785 3.24297 67.9319 3.50637C67.8756 3.82367 67.4933 3.94006 67.1809 4.01724C66.4667 4.19243 65.7022 4.48034 65.0259 4.18998C64.7993 4.0932 64.5788 3.8788 64.6253 3.63746L64.6265 3.63623Z" fill="#473730"/>
<path d="M106.691 94.4C106.625 104.225 105.944 109.414 102.075 112.051C98.2057 114.689 66.0244 110.997 66.0244 110.997L60.7926 112.755L52 110.469L52.3516 100.973L66.9028 103.259L95.2152 98.3351L106.69 94.4H106.691Z" fill="#F9C7B2"/>
<path d="M51.5581 15.2172C53.6286 15.4133 64.2993 16.2194 78.9039 13.7557C78.9039 13.7557 80.3985 0.273292 65.6249 0.0111175C65.6249 0.0111175 49.522 -0.954274 51.1526 14.8179C51.1747 15.031 51.3462 15.1964 51.5581 15.2172Z" fill="#005EEC"/>
<path d="M52.8127 15.4095C53.2574 16.4644 55.1527 19.0959 61.6985 20.0111C61.6985 20.0111 76.3851 21.1761 79.0963 17.5706C79.0963 17.5706 80.5885 15.0579 78.6001 13.4873C78.387 13.3183 78.126 13.2227 77.854 13.2019C75.8216 13.0451 66.0439 12.4631 53.304 14.5152C52.8887 14.5826 52.6485 15.0212 52.8115 15.4095H52.8127Z" fill="#0055D1"/>
</g>
<path fill-rule="evenodd" clip-rule="evenodd" d="M113.963 110C102.234 124.631 84.2107 134 63.9996 134C43.7885 134 25.7656 124.631 14.0366 110L113.963 110Z" fill="#8DC3FF"/>
<path d="M27.8842 69.0396L77.4609 69.7001C78.352 69.7117 79.1103 70.3547 79.2664 71.233L85.4854 106.136C85.6881 107.272 84.8168 108.317 83.6636 108.321L34.4131 108.53C33.5127 108.533 32.7393 107.892 32.5762 107.005L26.031 71.233C25.8201 70.0809 26.7135 69.0244 27.8842 69.0396Z" fill="#3E354B"/>
<path d="M86.972 106.098L80.7529 71.1934C80.5968 70.3163 79.8385 69.6721 78.9474 69.6605L29.3708 69C29.3091 69 29.252 69.0128 29.1914 69.0175L77.4215 69.6605C78.3126 69.6721 79.0709 70.3151 79.227 71.1934L85.4461 106.098C85.6487 107.233 84.7775 108.278 83.6243 108.283L35.8263 108.486C35.8508 108.486 35.8741 108.491 35.8985 108.491L85.149 108.283C86.3034 108.278 87.1735 107.233 86.9708 106.098H86.972Z" fill="#312A3D"/>
<path d="M46.6694 95.0528L50.0765 114.054C50.2349 114.939 49.8261 115.83 49.0503 116.287L38.1381 122.711C37.1794 123.274 37.5802 124.743 38.6926 124.743H68.3293C69.1831 124.743 69.9309 124.171 70.1546 123.348L70.594 115.901C70.6813 115.578 70.693 115.238 70.6266 114.911L66.5671 94.8175C66.4565 94.2688 65.9766 93.8716 65.4163 93.8658L47.8494 93.6573C47.1062 93.6503 46.5389 94.3212 46.6705 95.0528H46.6694Z" fill="#332B3E"/>
<path d="M40.8476 79.3042L68.113 79.6676C68.6034 79.6746 69.0204 80.0275 69.1054 80.5109L72.5254 99.7063C72.6372 100.331 72.1573 100.905 71.5236 100.908L44.4377 101.024C43.9426 101.026 43.5163 100.673 43.4277 100.185L39.8284 80.5109C39.7131 79.8773 40.2035 79.296 40.8476 79.3042Z" fill="#31283E"/>
<path d="M40.0088 79.3042L67.2741 79.6676C67.7645 79.6746 68.1815 80.0275 68.2666 80.5109L71.6865 99.7063C71.7983 100.331 71.3184 100.905 70.6848 100.908L43.5988 101.024C43.1037 101.026 42.6774 100.673 42.5889 100.185L38.9895 80.5109C38.8742 79.8773 39.3646 79.296 40.0088 79.3042Z" fill="#4E455E"/>
<path d="M41.6612 80.6821L66.0001 81C66.4196 81.0061 66.7763 81.3149 66.8491 81.7377L70 98.8475C70.0957 99.3937 69.6851 99.896 69.143 99.8991L44.9576 100C44.5341 100.002 44.1694 99.6933 44.0936 99.2663L40.7892 81.7377C40.6906 81.1834 41.1101 80.6749 41.6612 80.6821Z" fill="#433A53"/>
</g>
<defs>
<clipPath id="clip0_209_2122">
<rect width="128" height="134" fill="white"/>
</clipPath>
<clipPath id="clip1_209_2122">
<rect width="108" height="144.72" fill="white" transform="translate(12)"/>
</clipPath>
</defs>
</svg>
