<svg width="128" height="134" viewBox="0 0 128 134" fill="none" xmlns="http://www.w3.org/2000/svg">
<g clip-path="url(#clip0_209_2552)">
<circle cx="64" cy="70" r="64" fill="#ECF5FF"/>
<path d="M85.7149 105.228C85.7123 108.768 86.761 112.229 88.7282 115.174C90.6955 118.119 93.493 120.414 96.7668 121.771C100.041 123.127 103.644 123.483 107.12 122.794C110.597 122.105 113.791 120.402 116.298 117.9C118.805 115.398 120.513 112.209 121.205 108.737C121.898 105.266 121.543 101.667 120.188 98.3961C118.832 95.1253 116.535 92.3297 113.589 90.3628C110.642 88.3958 107.177 87.3459 103.633 87.3459C98.8828 87.3459 94.3273 89.2296 90.9674 92.5828C87.6076 95.936 85.7183 100.484 85.7149 105.228ZM91.3484 105.228C91.3484 102.801 92.0691 100.429 93.4193 98.4104C94.7695 96.3923 96.6886 94.8195 98.9338 93.8907C101.179 92.962 103.65 92.7192 106.033 93.1929C108.417 93.6666 110.606 94.8356 112.324 96.552C114.042 98.2685 115.212 100.455 115.686 102.836C116.16 105.217 115.916 107.684 114.986 109.926C114.056 112.169 112.48 114.085 110.46 115.433C108.439 116.781 106.063 117.5 103.633 117.5C100.374 117.499 97.2499 116.206 94.9462 113.905C92.6425 111.603 91.3484 108.483 91.3484 105.228Z" fill="#262626"/>
<path d="M91.3479 105.228C91.3479 102.801 92.0686 100.429 93.4188 98.4105C94.769 96.3924 96.6881 94.8195 98.9334 93.8908C101.179 92.9621 103.649 92.7192 106.033 93.1929C108.416 93.6666 110.606 94.8356 112.324 96.5521C114.042 98.2685 115.212 100.455 115.686 102.836C116.16 105.217 115.916 107.684 114.986 109.926C114.055 112.169 112.48 114.085 110.459 115.433C108.438 116.781 106.062 117.5 103.632 117.5C100.375 117.496 97.2525 116.201 94.9495 113.901C92.6466 111.6 91.3514 108.481 91.3479 105.228ZM92.4871 105.228C92.4845 107.434 93.1371 109.59 94.3622 111.425C95.5872 113.259 97.3298 114.69 99.3691 115.535C101.409 116.38 103.653 116.602 105.819 116.172C107.984 115.742 109.974 114.681 111.535 113.121C113.096 111.562 114.159 109.575 114.589 107.412C115.02 105.249 114.797 103.008 113.951 100.971C113.105 98.9339 111.673 97.1935 109.836 95.97C107.999 94.7464 105.84 94.0947 103.632 94.0973C100.677 94.1007 97.8446 95.2745 95.7552 97.3613C93.6658 99.448 92.4905 102.277 92.4871 105.228Z" fill="#F7F8F9" stroke="#161616" stroke-width="2" stroke-miterlimit="10"/>
<path d="M101.362 105.101C101.363 104.79 101.431 104.482 101.562 104.199L93.5699 100.613L93.8138 100.123L102.486 103.209C102.618 103.137 102.758 103.08 102.904 103.038L102.79 94.0868L103.337 94.1075L104.149 103.041C104.425 103.126 104.681 103.265 104.902 103.45L112.803 99.0446L113.045 99.5345L105.595 104.529C105.648 104.718 105.675 104.913 105.675 105.109C105.675 105.153 105.675 105.197 105.675 105.241L113.46 110.165L113.229 110.653L105.2 106.467C104.932 106.801 104.571 107.047 104.162 107.175L104.725 116.378H104.178L102.88 107.175C102.666 107.109 102.463 107.011 102.278 106.884L94.4054 111.451L94.1589 110.964L101.495 105.884C101.402 105.634 101.357 105.368 101.362 105.101Z" fill="#161616"/>
<path d="M3.27739 103.676C3.27739 107.52 4.4188 111.278 6.55728 114.475C8.69576 117.671 11.7353 120.163 15.2914 121.634C18.8476 123.105 22.7607 123.49 26.5359 122.74C30.3111 121.99 33.7788 120.139 36.5006 117.42C39.2224 114.702 41.0759 111.238 41.8269 107.468C42.5778 103.698 42.1924 99.7893 40.7194 96.2376C39.2464 92.6859 36.7519 89.6501 33.5514 87.5143C30.351 85.3785 26.5883 84.2385 22.7391 84.2385C20.1834 84.2385 17.6526 84.7413 15.2914 85.7181C12.9302 86.6949 10.7848 88.1267 8.97759 89.9316C5.32781 93.5768 3.27739 98.5208 3.27739 103.676ZM9.39615 103.676C9.39615 101.038 10.1793 98.4597 11.6466 96.2665C13.1139 94.0733 15.1994 92.3639 17.6394 91.3545C20.0794 90.3451 22.7643 90.081 25.3546 90.5956C27.9449 91.1101 30.3242 92.3803 32.1917 94.2455C34.0592 96.1107 35.331 98.487 35.8462 101.074C36.3615 103.661 36.097 106.343 35.0863 108.78C34.0757 111.217 32.3641 113.3 30.1682 114.765C27.9722 116.23 25.3905 117.013 22.7495 117.013C20.9959 117.013 19.2595 116.668 17.6394 115.997C16.0193 115.327 14.5472 114.345 13.3073 113.106C12.0673 111.868 11.0837 110.398 10.4126 108.78C9.74155 107.162 9.39615 105.427 9.39615 103.676Z" fill="#262626"/>
<path d="M9.39882 103.676C9.39934 101.039 10.1828 98.4612 11.6501 96.2688C13.1174 94.0763 15.2027 92.3677 17.6423 91.3589C20.0818 90.35 22.7661 90.0863 25.3557 90.6011C27.9454 91.1159 30.324 92.3861 32.1909 94.251C34.0577 96.1159 35.329 98.4918 35.844 101.078C36.3589 103.665 36.0943 106.346 35.0838 108.782C34.0732 111.218 32.362 113.301 30.1666 114.766C27.9711 116.231 25.39 117.013 22.7496 117.013C19.2095 117.009 15.8157 115.602 13.3128 113.102C10.8099 110.602 9.40226 107.212 9.39882 103.676ZM10.634 103.676C10.6335 106.069 11.3436 108.409 12.6746 110.399C14.0055 112.39 15.8975 113.941 18.1113 114.857C20.3251 115.774 22.7612 116.014 25.1116 115.547C27.462 115.08 29.621 113.928 31.3156 112.236C33.0103 110.544 34.1644 108.388 34.6321 106.04C35.0998 103.693 34.86 101.26 33.9431 99.0486C33.0262 96.8374 31.4733 94.9474 29.4809 93.6177C27.4884 92.288 25.1459 91.5782 22.7496 91.5782C19.5378 91.5817 16.4586 92.8573 14.1873 95.1253C11.916 97.3932 10.6381 100.468 10.634 103.676Z" fill="#F7F8F9" stroke="#161616" stroke-width="2" stroke-miterlimit="10"/>
<path d="M20.2793 103.539C20.2796 103.199 20.354 102.864 20.4973 102.556L11.8018 98.6585L12.0613 98.1402L21.486 101.494C21.6303 101.416 21.7826 101.353 21.9401 101.307L21.8155 91.5781L22.4097 91.6015L23.292 101.312C23.5927 101.403 23.8717 101.554 24.112 101.756L32.6985 96.961L32.958 97.4793L24.8801 102.906C24.9373 103.112 24.967 103.325 24.9683 103.539C24.9683 103.585 24.9683 103.635 24.9683 103.681L33.4355 109.023L33.176 109.541L24.4493 104.993C24.159 105.357 23.7672 105.628 23.3231 105.77L23.9355 115.769H23.3413L21.9401 105.767C21.7081 105.697 21.4884 105.591 21.2887 105.454L12.7256 110.417L12.4661 109.886L20.4376 104.365C20.3344 104.102 20.2808 103.822 20.2793 103.539Z" fill="#161616"/>
<path d="M100.638 86.4675L104.424 106.016C104.439 106.111 104.419 106.207 104.368 106.287C104.317 106.368 104.238 106.427 104.147 106.454L103.827 106.545C103.698 106.581 103.56 106.565 103.442 106.501C103.324 106.438 103.235 106.331 103.194 106.203L97.5036 88.6005L100.638 86.4675Z" fill="#E9E7E7"/>
<path d="M117.154 88.6548C117.19 88.6992 117.21 88.7542 117.212 88.8113C117.213 88.8683 117.195 88.9242 117.162 88.9703C117.128 89.0164 117.08 89.0501 117.025 89.0661C116.97 89.0822 116.912 89.0797 116.858 89.0591C114.668 88.507 107.257 86.7266 104.263 86.9132C104.263 86.9132 98.2944 86.7628 96.4131 90.4845C96.3772 90.5581 96.325 90.6226 96.2606 90.6733C96.1962 90.724 96.1212 90.7595 96.0411 90.7772C95.961 90.7948 95.878 90.7943 95.7982 90.7754C95.7184 90.7566 95.6439 90.72 95.5802 90.6685C94.4918 89.7498 93.5906 88.6306 92.9256 87.3719L99.3246 78.2726C99.3246 78.2726 111.596 79.4259 117.154 88.6548Z" fill="#151515"/>
<path d="M100.22 76.9327L89.5217 93.0372L85.4088 108.336L76.8197 104.391L83.5897 71.3581L72.8936 55.4583L79.2718 50.7985L100.22 76.9327Z" fill="#151515"/>
<path d="M67.9451 112.184H56.0657C55.4565 112.189 54.8512 112.087 54.2778 111.881C53.9537 111.769 53.6471 111.612 53.367 111.415C53.1853 111.279 52.9657 111.204 52.739 111.2H40.3743L37.3954 93.0062L43.0341 91.6145L41.8093 87.1776L35.675 82.3286C35.675 82.3286 27.9941 81.9735 25.6405 79.5659L10.6887 66.9679C10.6887 66.9679 4.97996 60.5043 9.32641 61.6005L22.7368 64.301L55.4455 78.5862L68.8845 78.7262L59.3923 95.629C59.3587 95.6918 59.3384 95.7608 59.3327 95.8318C59.327 95.9028 59.336 95.9742 59.3591 96.0415C59.3822 96.1089 59.419 96.1707 59.4671 96.2233C59.5153 96.2758 59.5737 96.3179 59.6388 96.3469L69.5773 100.506V112.184H67.9451Z" fill="#151515"/>
<path d="M41.7935 87.1543L9.7777 65.8664C9.7777 65.8664 25.975 62.4454 54.0985 77.1971C54.2312 77.2676 54.3506 77.3605 54.4514 77.4718L63.4168 87.5119C63.4371 87.5325 63.4493 87.5598 63.451 87.5886C63.4527 87.6175 63.4438 87.646 63.426 87.6689C63.4083 87.6917 63.3828 87.7073 63.3543 87.7127C63.3259 87.7182 63.2964 87.7131 63.2715 87.6985L55.8137 83.8862C55.7962 83.8767 55.7765 83.8723 55.7566 83.8732L45.8415 83.9924C45.8203 83.9931 45.7996 83.9992 45.7815 84.0103C45.7634 84.0214 45.7485 84.037 45.7383 84.0555C45.7281 84.0741 45.7229 84.0951 45.7232 84.1163C45.7236 84.1375 45.7295 84.1582 45.7403 84.1764L49.041 89.4038C49.0543 89.4247 49.0606 89.4492 49.0593 89.4739C49.058 89.4986 49.049 89.5222 49.0336 89.5416C49.0182 89.5609 48.9972 89.575 48.9734 89.5819C48.9496 89.5888 48.9243 89.5882 48.9009 89.5801L41.8246 87.1698C41.8134 87.1665 41.8029 87.1612 41.7935 87.1543Z" fill="#0055D1"/>
<path d="M91.2942 93.2653L88.0713 103.461C88.0186 103.628 87.9992 103.804 88.0143 103.979L88.7797 111.925C88.7979 112.11 88.7771 112.296 88.7188 112.472C88.6606 112.648 88.566 112.809 88.4414 112.947C88.3167 113.084 88.1647 113.193 87.995 113.268C87.8254 113.343 87.6419 113.382 87.4563 113.382H68.319C67.9659 113.382 67.6274 113.242 67.3777 112.992C67.1281 112.743 66.9878 112.405 66.9878 112.052V108.424L60.8457 105.337L57.3426 110.282H55.3964L52.254 102.595L48.4421 99.138L50.7282 97.4534L57.6722 100.017L59.1123 96.1291L82.0875 105.744C82.385 105.869 82.7176 105.881 83.0235 105.779C83.3295 105.677 83.5879 105.468 83.7508 105.19L85.0483 102.989C85.202 102.727 85.2606 102.421 85.2144 102.121L80.5929 71.2026C80.5764 71.0934 80.5922 70.9818 80.6383 70.8814C80.6844 70.7811 80.7588 70.6963 80.8523 70.6376L81.8903 69.956C81.9551 69.9135 82.0278 69.8847 82.1041 69.8713C82.1804 69.8579 82.2587 69.8603 82.334 69.8782L92.4541 72.2755C92.4852 72.2827 92.5177 72.2809 92.5478 72.2704C92.5779 72.2599 92.6045 72.2411 92.6243 72.2161C92.6441 72.1911 92.6565 72.1611 92.6599 72.1294C92.6633 72.0977 92.6576 72.0657 92.6435 72.0371L91.2942 69.3703C91.2313 69.2446 91.1241 69.1468 90.9932 69.0955L82.046 65.5735C81.9409 65.5315 81.8506 65.4593 81.7865 65.3662L79.6613 62.2795C79.5953 62.1848 79.56 62.0722 79.56 61.9568C79.56 61.8415 79.5953 61.7289 79.6613 61.6342L82.7414 57.1325C82.7927 57.0538 82.8626 56.9889 82.945 56.9437C83.0274 56.8985 83.1197 56.8743 83.2137 56.8733H87.7444C87.8508 56.8728 87.9552 56.9025 88.0454 56.9588L99.7432 64.2155C99.7833 64.2398 99.82 64.2694 99.8522 64.3036L107.24 71.9386C107.329 72.0306 107.385 72.15 107.397 72.2776C107.41 72.4051 107.379 72.5332 107.31 72.6409L104.686 76.7357C104.635 76.8157 104.564 76.8813 104.48 76.9266C104.396 76.9719 104.302 76.9954 104.206 76.9949H99.9352C99.8448 76.9971 99.7553 76.9757 99.6757 76.9327L96.7928 75.4166C96.6692 75.352 96.5254 75.3372 96.3912 75.3753C96.257 75.4134 96.1425 75.5015 96.0714 75.6213L90.7545 84.7388C90.6131 84.9843 90.5532 85.2683 90.5832 85.55L91.3409 92.7055C91.3646 92.8933 91.3487 93.084 91.2942 93.2653Z" fill="#0055D1"/>
<path d="M68.8895 78.7261C68.8895 78.7261 71.6297 76.7331 68.2875 75.007C65.3215 73.4754 25.5081 61.2298 16.5894 58.4956C16.038 58.3262 15.4559 58.2814 14.885 58.3643C14.3142 58.4472 13.7689 58.6559 13.2887 58.9751L9.3263 61.6004L55.4454 78.5861L68.8895 78.7261Z" fill="#151515"/>
<path d="M87.7935 54.4786L85.9044 55.917H76.2851L72.4187 51.5163L77.8031 45.6799L85.1856 49.3627L87.7935 54.4786Z" fill="#0055D1"/>
<path d="M27.2336 80.6283L22.1113 103.176C22.0961 103.27 22.1159 103.367 22.1671 103.447C22.2182 103.528 22.2971 103.587 22.3889 103.614L22.7081 103.707C22.8378 103.743 22.9763 103.727 23.0944 103.662C23.2125 103.598 23.301 103.491 23.3413 103.362L32.3611 81.9889L27.2336 80.6283Z" fill="#E9E7E7"/>
<path d="M78.2856 54.1314L73.0024 58.2003C73.0024 58.2003 69.5097 59.0918 70.6514 55.7667L76.0021 51.151C76.0021 51.151 78.7215 52.0581 78.2856 54.1314Z" fill="#151515"/>
<path d="M4.5232 63.3679H31.9045C32.7458 63.3679 33.4277 62.6868 33.4277 61.8466V39.6776C33.4277 38.8374 32.7458 38.1563 31.9045 38.1563H4.5232C3.68196 38.1563 3 38.8374 3 39.6776L3 61.8466C3 62.6868 3.68196 63.3679 4.5232 63.3679Z" fill="#0055D1"/>
<rect x="2" y="38" width="32" height="5" rx="1" fill="#004CBB"/>
<path d="M79.0947 121.273L78.6458 128.634L74.154 128.934L74.7067 120.729L79.0947 121.273Z" fill="#F9C2BA"/>
<path d="M83.2211 61.1443L79.6038 125L73.485 124.427L68.7026 75.3181C68.7026 75.3181 65.2462 67.7142 69.1619 60.0273L83.2211 61.1443Z" fill="#1B140F"/>
<path d="M73.3826 127.703C73.4056 127.635 73.4441 127.574 73.4952 127.524C73.5462 127.474 73.6084 127.436 73.6766 127.414C73.7449 127.393 73.8173 127.387 73.888 127.399C73.9587 127.41 74.0257 127.438 74.0837 127.48C74.839 128.018 75.7722 128.247 76.6917 128.12C77.9834 127.974 78.4622 127.282 78.6302 126.8C78.6499 126.739 78.6818 126.683 78.724 126.636C78.7661 126.588 78.8176 126.549 78.8753 126.522C78.9329 126.495 78.9955 126.48 79.0593 126.478C79.123 126.476 79.1864 126.486 79.2457 126.51L87.2912 129.792C87.5333 129.891 87.7534 130.036 87.9391 130.219C88.1247 130.403 88.2722 130.622 88.3729 130.862C88.417 130.968 88.4344 131.082 88.4235 131.196C88.4127 131.31 88.374 131.419 88.3107 131.514C88.2475 131.609 88.1618 131.688 88.0611 131.742C87.9605 131.796 87.848 131.825 87.7336 131.825L74.0361 131.846C73.9082 131.846 73.7817 131.82 73.6642 131.77C73.5467 131.72 73.4407 131.646 73.3526 131.553C73.2646 131.461 73.1963 131.351 73.152 131.231C73.1078 131.112 73.0884 130.984 73.095 130.857L73.2307 128.217C73.2326 128.173 73.241 128.13 73.2556 128.089L73.3826 127.703Z" fill="#474F6C"/>
<path d="M69.4944 123.445L68.7497 130.782L64.2475 130.901L65.1324 122.725L69.4944 123.445Z" fill="#F9C2BA"/>
<path d="M76.0542 63.5338L69.8524 127.19L63.7622 126.371L60.9753 77.1063C60.9753 77.1063 57.8303 69.3702 62.0548 61.8363L76.0542 63.5338Z" fill="#23170F"/>
<path d="M63.7146 129.346C63.7366 129.277 63.7744 129.215 63.825 129.164C63.8755 129.113 63.9374 129.075 64.0057 129.052C64.0739 129.029 64.1465 129.023 64.2176 129.034C64.2887 129.044 64.3562 129.072 64.4147 129.113C65.1751 129.644 66.1107 129.862 67.0281 129.723C68.3228 129.565 68.7896 128.872 68.9522 128.386C68.9708 128.325 69.0019 128.268 69.0434 128.219C69.0849 128.171 69.1359 128.131 69.1934 128.103C69.2508 128.075 69.3134 128.059 69.3773 128.056C69.4412 128.053 69.505 128.063 69.5648 128.086L77.6442 131.284C77.8873 131.379 78.1092 131.522 78.297 131.703C78.4848 131.885 78.6349 132.101 78.7387 132.341C78.7838 132.446 78.8022 132.56 78.7925 132.674C78.7828 132.788 78.7451 132.897 78.6828 132.993C78.6206 133.089 78.5357 133.168 78.4356 133.223C78.3355 133.278 78.2233 133.308 78.1091 133.31L64.41 133.478C64.2823 133.479 64.1557 133.455 64.0378 133.407C63.9198 133.358 63.813 133.286 63.7239 133.195C63.6347 133.103 63.5651 132.995 63.5191 132.876C63.4732 132.757 63.452 132.63 63.4567 132.503L63.5632 129.846C63.564 129.801 63.5719 129.757 63.5865 129.715L63.7146 129.346Z" fill="#3E4560"/>
<path d="M73.5418 28.9741C77.0916 31.2599 80.7193 40.8335 81.9259 47.3411C82.8601 52.3767 83.4828 59.5064 83.7008 64.2388C83.7327 64.947 83.4881 65.64 83.0186 66.1718C82.5491 66.7035 81.8913 67.0325 81.1838 67.0896L60.7594 68.7767C60.5789 68.7924 60.3971 68.7694 60.2263 68.7093C60.0554 68.6493 59.8993 68.5535 59.7684 68.4284C59.6375 68.3033 59.5348 68.1518 59.4672 67.9839C59.3996 67.8161 59.3686 67.6358 59.3763 67.455C59.5112 64.1506 59.9757 58.7755 60.3416 53.5559C60.7671 47.4889 56.8203 31.7549 58.3746 30.4513C59.8018 29.2566 64.3974 28.3028 66.8029 27.8597C67.7785 27.6679 72.247 28.1396 73.5418 28.9741Z" fill="#005FE9"/>
<path d="M64.0826 31.0194C65.3489 32.7817 66.7086 34.6114 68.7092 35.49C71.1173 36.5474 73.406 34.995 73.6395 32.3256C73.6383 32.322 73.638 32.3183 73.6385 32.3146C73.639 32.3109 73.6404 32.3074 73.6426 32.3044C73.6447 32.3014 73.6476 32.2989 73.6509 32.2972C73.6542 32.2955 73.6579 32.2946 73.6616 32.2946C73.6653 32.2946 73.669 32.2955 73.6723 32.2972C73.6756 32.2989 73.6785 32.3014 73.6806 32.3044C73.6828 32.3074 73.6842 32.3109 73.6847 32.3146C73.6853 32.3183 73.6849 32.322 73.6837 32.3256C73.624 34.6451 72.093 36.4981 69.7446 36.0757C67.3962 35.6532 65.0738 33.2119 64.0099 31.0738C63.9736 31.0246 64.0462 30.9701 64.0826 31.0194Z" fill="#0051C6"/>
<path opacity="0.15" d="M64.0578 35.2122C64.0578 35.2122 73.0413 60.2139 67.291 68.2377L60.7597 68.7767C60.579 68.7932 60.3969 68.7709 60.2256 68.7111C60.0544 68.6514 59.8979 68.5556 59.7668 68.4304C59.6357 68.3051 59.5331 68.1532 59.4658 67.985C59.3984 67.8167 59.368 67.636 59.3766 67.455L60.469 51.9051L58.0921 33.1389C58.0173 32.7602 57.9911 32.3735 58.0143 31.9882C58.1933 30.8453 61.0503 27.5539 64.0578 35.2122Z" fill="black"/>
<path d="M59.8462 29.6506C59.8462 29.6506 56.2757 30.5058 55.7411 36.0027C55.7411 36.0027 55.9695 48.6241 58.1129 55.5179C58.1129 55.5179 59.06 59.224 61.7224 59.0996C61.7224 59.0996 65.9468 58.4024 65.952 50.9384C65.952 50.9384 65.485 42.0361 64.1538 35.6606C64.1538 35.6606 62.9913 28.9923 59.8462 29.6506Z" fill="#005FE9"/>
<path d="M72.0027 22.2697L71.9274 28.8473V28.8602V29.7829C71.9274 29.7829 72.5917 32.2294 70.6118 32.657C67.2384 33.3853 64.5942 30.0291 64.3373 29.547C64.205 29.2879 64.0104 26.9554 63.8495 24.7136C63.6964 22.5807 63.5744 20.5514 63.5744 20.5514L64.5164 20.7432L72.0027 22.2697Z" fill="#F9C2BA"/>
<path d="M72.0032 22.2696L71.9279 28.8472V28.8602C69.7139 28.6106 67.6027 27.7908 65.8014 26.481C65.085 25.9629 64.4273 25.3685 63.8396 24.7083C63.6865 22.5754 63.5646 20.5461 63.5646 20.5461L64.5065 20.7379L72.0032 22.2696Z" fill="#EE92A3"/>
<path d="M74.0352 10.2106L75.8957 16.2699C75.8957 16.2699 78.0391 9.77265 74.0352 10.2106Z" fill="#322011"/>
<path d="M63.359 11.3276C61.937 14.2406 62.84 21.6942 64.9937 24.2859C66.4754 26.0638 69.8177 26.7221 72.3581 25.7968C73.5225 25.409 74.4944 24.5912 75.0749 23.511C76.9121 19.9345 75.6795 11.1566 73.902 9.7182C70.7674 7.18616 65.0949 7.76409 63.359 11.3276Z" fill="#F9C2BA"/>
<path d="M65.9491 19.1647C67.1401 18.3017 66.4213 14.7407 66.4213 14.7407C66.4213 14.7407 70.8326 15.3446 73.2122 11.864C73.2122 11.864 73.5495 12.3305 74.4058 12.0402C76.6841 11.2627 76.3546 7.63443 75.7629 7.35453C75.1713 7.07463 73.5313 8.13202 73.5313 8.13202C73.5313 8.13202 74.0192 6.65219 73.1499 6.81028C72.5654 6.94877 72.0309 7.24664 71.6059 7.67071C71.6059 7.67071 64.9189 6.96319 63.4657 8.22273C62.3603 9.18683 62.4278 10.76 62.4278 10.76C62.4278 10.76 60.6529 11.3457 60.6114 12.7892C60.5698 14.2328 64.2728 20.3828 65.9491 19.1647Z" fill="#322011"/>
<path d="M71.2245 16.9049C70.446 16.8789 70.446 18.4599 71.1752 18.4728C71.9044 18.4858 71.8888 16.9256 71.2245 16.9049Z" fill="#322011"/>
<path d="M75.1556 16.8685C75.9341 16.8063 76.0093 18.3743 75.2827 18.4235C74.5562 18.4727 74.4991 16.9229 75.1556 16.8685Z" fill="#322011"/>
<path d="M70.4717 16.0755C70.6863 16.0695 70.9003 16.0505 71.1126 16.0185C71.3425 16.0304 71.5698 15.9657 71.7588 15.8345C71.8098 15.7821 71.8421 15.7142 71.8505 15.6416C71.859 15.5689 71.8431 15.4955 71.8055 15.4328C71.7131 15.32 71.5922 15.2339 71.4554 15.1833C71.3185 15.1328 71.1707 15.1196 71.027 15.1451C70.7254 15.1534 70.4378 15.2735 70.22 15.4821C70.1732 15.5318 70.142 15.5941 70.13 15.6613C70.118 15.7285 70.1258 15.7977 70.1525 15.8606C70.1791 15.9234 70.2235 15.9772 70.2802 16.0154C70.3368 16.0535 70.4034 16.0744 70.4717 16.0755Z" fill="#322011"/>
<path d="M75.8952 15.9253C75.6814 15.9473 75.4665 15.9577 75.2516 15.9564C75.026 15.9996 74.7923 15.9668 74.5873 15.8631C74.5293 15.8184 74.4878 15.7556 74.4695 15.6848C74.4512 15.6139 74.457 15.5389 74.4861 15.4717C74.5628 15.3468 74.6716 15.2446 74.8012 15.1758C74.9308 15.107 75.0765 15.074 75.2231 15.0804C75.5219 15.0461 75.8227 15.1246 76.0664 15.3007C76.1192 15.3442 76.1583 15.4021 76.179 15.4673C76.1997 15.5325 76.2011 15.6023 76.183 15.6683C76.1649 15.7343 76.1281 15.7936 76.077 15.8392C76.026 15.8848 75.9628 15.9147 75.8952 15.9253Z" fill="#322011"/>
<path d="M73.9937 18.4028C74.1545 18.8361 74.3773 19.2438 74.6554 19.6131C74.5397 19.7866 74.3658 19.913 74.165 19.9695C73.9641 20.0261 73.7497 20.0091 73.5603 19.9215" stroke="#EE92A3" stroke-linecap="round" stroke-linejoin="round"/>
<path d="M64.5684 16.3683C64.6463 17.5786 63.463 18.8693 64.0832 22.197C64.187 22.7542 64.815 25.0478 64.3583 25.0944C63.1387 25.2162 60.3673 22.2799 59.8224 16.9074C59.5162 13.9114 60.6008 11.2835 61.823 11.1617C63.0452 11.0399 64.3712 13.3646 64.5684 16.3683Z" fill="#322011"/>
<path d="M65.8918 18.5609C65.8918 18.5609 64.4543 15.9278 63.2762 16.4124C62.0981 16.8971 62.9907 20.585 64.2389 21.2122C64.3938 21.3037 64.5657 21.363 64.7442 21.3865C64.9226 21.4099 65.104 21.397 65.2774 21.3486C65.4507 21.3002 65.6125 21.2172 65.7528 21.1047C65.8932 20.9921 66.0094 20.8524 66.0942 20.6939L65.8918 18.5609Z" fill="#F9C2BA"/>
<path d="M63.5594 17.4646C63.5387 17.4646 63.5309 17.4879 63.5594 17.4983C64.4313 17.97 64.818 18.8693 65.0567 19.7841C64.8231 19.4161 64.4728 19.1881 63.985 19.4628C63.959 19.4628 63.985 19.5172 64.0032 19.512C64.1699 19.4795 64.3425 19.4991 64.4976 19.5682C64.6528 19.6373 64.7827 19.7525 64.8699 19.8982C65.0127 20.1445 65.1292 20.4051 65.2176 20.6757C65.2513 20.7612 65.4044 20.7353 65.3836 20.6368C65.3827 20.6299 65.3827 20.6229 65.3836 20.6161C65.516 19.4498 64.7972 17.7186 63.5594 17.4646Z" fill="#EE92A3"/>
<path d="M67.0237 19.5405L66.5956 23.3969C66.5956 23.3969 66.5956 24.5761 67.9449 25.5428C68.5202 25.9495 69.1801 26.221 69.8753 26.3368C70.5705 26.4525 71.2829 26.4097 71.9592 26.2114C73.0465 25.8953 74.3569 25.1463 75.4182 23.4539C75.4182 23.4539 76.4821 21.6398 76.2719 19.6597C76.2668 19.6146 76.2452 19.573 76.2111 19.5428C76.1771 19.5127 76.1332 19.4962 76.0877 19.4965L67.0237 19.5405Z" fill="#FAF6F6"/>
<path d="M67.3323 19.9475C67.3133 19.9534 67.293 19.9538 67.2737 19.9488C67.2544 19.9438 67.237 19.9334 67.2233 19.9189L65.9077 18.6231C65.8714 18.5065 65.7676 18.364 65.7468 18.2966C65.7468 18.2758 65.8843 18.2706 65.9388 18.3432L67.379 19.7609C67.3993 19.7817 67.4106 19.8096 67.4106 19.8386C67.4106 19.8676 67.3993 19.8955 67.379 19.9164C67.3659 19.9301 67.35 19.9407 67.3323 19.9475Z" fill="white"/>
<path d="M66.8438 23.9749C66.8248 23.9805 66.8046 23.9808 66.7854 23.9758C66.7662 23.9708 66.7487 23.9606 66.7349 23.9464L63.8805 21.1085C63.8 21.0411 63.7144 20.8623 63.7585 20.8182C63.7585 20.8182 63.8934 20.9167 63.9375 20.9608L66.8828 23.7909C66.8931 23.801 66.9013 23.8131 66.907 23.8265C66.9126 23.8398 66.9155 23.8541 66.9155 23.8686C66.9155 23.8831 66.9126 23.8974 66.907 23.9108C66.9013 23.9241 66.8931 23.9362 66.8828 23.9464C66.8727 23.9593 66.8592 23.9692 66.8438 23.9749Z" fill="white"/>
<path opacity="0.8" d="M78.072 10.2495C78.072 10.2495 79.5926 16.047 76.214 23.2078L66.5766 22.5132L66.8101 11.2862L78.072 10.2495Z" fill="#262626"/>
<path d="M57.7596 9.40201C58.5505 8.04254 59.6375 6.87823 60.9402 5.99533C62.2428 5.11243 63.7277 4.53357 65.2847 4.30163C68.5413 3.82995 72.0133 3.44898 75.6046 6.93475C76.6182 7.88473 77.4547 9.0071 78.075 10.2495L66.6574 12.2373L67.8537 20.4528C68.0872 22.0571 67.8537 23.3036 66.2371 23.5265L62.2773 24.1019C61.6 24.2004 60.8034 23.682 60.287 23.2311C58.4187 21.588 56.6749 19.411 56.2986 16.8193C55.9125 14.2526 56.4287 11.6314 57.7596 9.40201Z" fill="#0055D1"/>
<path d="M63.8756 26.2192C63.8756 26.2192 68.4634 30.2881 70.4459 32.5999L70.1423 34.9531C70.1423 34.9531 66.5406 33.424 64.9084 31.4518C64.0313 30.3944 63.4267 28.702 63.6732 27.5643L63.8756 26.2192Z" fill="#005BDF"/>
<path d="M70.4464 32.5999L70.1428 34.9531C71.0573 34.0739 71.7447 32.9863 72.1461 31.7835L71.9437 28.3055L70.4464 32.5999Z" fill="#005BDF"/>
<path d="M90.2662 63.7308L84.3083 67.1726L82.4685 92.7159L91.7712 84.5107L90.2662 63.7308Z" fill="#E8AF7D"/>
<path d="M83.4489 56.425L81.0512 66.6102L81.3989 66.5118L83.6746 56.4743L83.4489 56.425Z" fill="#634733"/>
<path d="M87.012 57.1326L85.2319 65.8094L85.5225 65.7265L87.2377 57.1818L87.012 57.1326Z" fill="#634733"/>
<path d="M90.2659 63.7309L86.7602 63.2437L80.343 66.4418L84.308 67.1726L90.2659 63.7309Z" fill="#8D6746"/>
<path d="M84.1579 57.6508L85.4242 68.0382L85.7174 67.8257L84.3863 57.6198L84.1579 57.6508Z" fill="#634733"/>
<path d="M87.7493 57.0885L89.0727 65.8457L89.3166 65.6694L87.9777 57.0574L87.7493 57.0885Z" fill="#634733"/>
<path d="M85.6809 68.014C85.8461 67.931 85.9319 67.7683 85.8726 67.6507C85.8133 67.5331 85.6314 67.5051 85.4663 67.5881C85.3011 67.6711 85.2153 67.8337 85.2746 67.9514C85.3339 68.069 85.5158 68.097 85.6809 68.014Z" fill="#3A2B21"/>
<path d="M89.3111 65.85C89.4762 65.7669 89.562 65.6043 89.5028 65.4867C89.4435 65.369 89.2615 65.341 89.0964 65.424C88.9313 65.507 88.8455 65.6697 88.9048 65.7873C88.964 65.9049 89.146 65.933 89.3111 65.85Z" fill="#3A2B21"/>
<path d="M80.3434 66.4418L75.3353 90.907L78.95 90.9796L82.4686 92.716L84.3084 67.1726L80.3434 66.4418Z" fill="#DFA770"/>
<path d="M80.3434 66.4418L75.3353 90.9122L78.95 90.9796L82.3337 66.8072L80.3434 66.4418Z" fill="#CA9566"/>
<path d="M70.9854 58.8664C74.05 58.6927 77.4727 58.7057 80.4049 58.1304C81.8918 57.8349 81.9618 54.1781 79.9456 53.6727C74.9556 52.4339 70.4172 51.1847 66.5456 52.5972C65.2014 53.087 59.9078 54.4424 59.9 55.9663C59.8871 58.5554 66.0785 59.1437 70.9854 58.8664Z" fill="#F9C2BA"/>
<path d="M78.0049 53.1907L82.3643 53.7686C82.3643 53.7686 84.2508 53.3332 85.9608 53.6753C87.6709 54.0174 89.7156 55.6502 89.4561 56.9693C89.1967 58.2885 88.701 57.6898 87.9641 57.5576C87.2271 57.4254 85.3536 58.1641 84.2144 57.8375C84.2144 57.8375 83.8045 57.8868 82.6705 57.9826C81.5365 58.0785 77.5637 58.5191 77.5637 58.5191C77.5637 58.5191 75.6565 55.7953 78.0049 53.1907Z" fill="#F9C2BA"/>
<path d="M64.4597 50.2776C64.4597 50.2776 54.882 52.6101 60.5233 58.5709C60.5233 58.5709 60.967 59.2084 63.17 59.3665C63.17 59.3665 66.6005 59.7605 69.3148 59.535C69.3148 59.535 74.3722 59.4391 81.4303 58.6305C81.8054 56.756 81.8212 54.8274 81.477 52.947C81.477 52.947 69.5509 50.2698 64.4597 50.2776Z" fill="#005FE9"/>
<path d="M7.66893 51.7596C7.72184 51.7596 7.79063 51.7551 7.87528 51.746C7.95994 51.737 8.05064 51.7158 8.14739 51.6825C8.24414 51.6493 8.34165 51.5994 8.43991 51.5329C8.53968 51.4664 8.62887 51.3764 8.70748 51.263C8.7876 51.1481 8.85261 51.0053 8.90249 50.8345C8.95238 50.6636 8.97732 50.4565 8.97732 50.2132C8.97732 50.0151 8.95238 49.8337 8.90249 49.6689C8.85412 49.5042 8.77778 49.3628 8.67347 49.2449C8.56916 49.127 8.43537 49.0355 8.27211 48.9705C8.10884 48.9055 7.91383 48.873 7.68707 48.873H6.97506V51.7596H7.66893ZM7.62132 48.0907C7.98564 48.0907 8.31141 48.1345 8.59864 48.2222C8.88587 48.3099 9.12925 48.4422 9.3288 48.619C9.52834 48.7959 9.68027 49.0174 9.78458 49.2834C9.8904 49.548 9.94331 49.8579 9.94331 50.2132C9.94331 50.5835 9.8972 50.9131 9.80499 51.2018C9.71277 51.489 9.57143 51.7317 9.38095 51.9297C9.19048 52.1262 8.94936 52.2759 8.6576 52.3787C8.36584 52.4815 8.02041 52.5329 7.62132 52.5329H6V48.0907H7.62132Z" fill="white"/>
<path d="M12.7052 50.5873C12.6916 50.4815 12.6667 50.3832 12.6304 50.2925C12.5941 50.2018 12.545 50.1232 12.483 50.0567C12.421 49.9887 12.3454 49.9358 12.2562 49.898C12.1686 49.8587 12.0658 49.839 11.9478 49.839C11.8511 49.839 11.7657 49.8519 11.6916 49.8776C11.6175 49.9017 11.5525 49.9342 11.4966 49.9751C11.4422 50.0159 11.3953 50.0627 11.356 50.1156C11.3182 50.1686 11.2872 50.223 11.263 50.2789C11.2389 50.3333 11.2207 50.3878 11.2086 50.4422C11.1965 50.4951 11.189 50.5435 11.1859 50.5873H12.7052ZM13.5125 51.4943C13.4611 51.6924 13.3885 51.8632 13.2948 52.0068C13.2011 52.1489 13.0869 52.2661 12.9524 52.3583C12.8194 52.4505 12.6667 52.5185 12.4943 52.5624C12.3235 52.6077 12.1345 52.6304 11.9274 52.6304C11.6841 52.6304 11.4596 52.5888 11.254 52.5057C11.0499 52.421 10.8738 52.3039 10.7256 52.1542C10.5775 52.003 10.4618 51.8239 10.3787 51.6168C10.2955 51.4097 10.254 51.1829 10.254 50.9365C10.254 50.6886 10.291 50.4565 10.3651 50.2404C10.4407 50.0227 10.551 49.8337 10.6961 49.6735C10.8413 49.5117 11.0204 49.3847 11.2336 49.2925C11.4482 49.1988 11.6954 49.1519 11.9751 49.1519C12.1686 49.1519 12.3439 49.1784 12.5011 49.2313C12.6584 49.2827 12.7974 49.3545 12.9184 49.4467C13.0408 49.5389 13.1451 49.6485 13.2313 49.7755C13.319 49.901 13.3893 50.0385 13.4422 50.1882C13.4966 50.3364 13.5336 50.4936 13.5533 50.6599C13.5745 50.8246 13.5797 50.9924 13.5692 51.1633H11.1859C11.192 51.2555 11.2116 51.3484 11.2449 51.4422C11.2797 51.5359 11.328 51.6206 11.39 51.6961C11.452 51.7702 11.5276 51.8314 11.6168 51.8798C11.7075 51.9267 11.811 51.9501 11.9274 51.9501C12.1164 51.9501 12.2714 51.9146 12.3923 51.8435C12.5147 51.7725 12.5979 51.6561 12.6417 51.4943H13.5125Z" fill="white"/>
<path d="M15.0272 48V52.5329H14.127V48H15.0272Z" fill="white"/>
<path d="M15.7664 48.8367V48H16.678V48.8367H15.7664ZM16.678 49.2358V52.5329H15.7664V49.2358H16.678Z" fill="white"/>
<path d="M19.1927 52.5329H18.2744L17.0839 49.2358H18.0499L18.7483 51.4286H18.7574L19.4535 49.2358H20.3719L19.1927 52.5329Z" fill="white"/>
<path d="M23 50.5873C22.9864 50.4815 22.9615 50.3832 22.9252 50.2925C22.8889 50.2018 22.8398 50.1232 22.7778 50.0567C22.7158 49.9887 22.6402 49.9358 22.551 49.898C22.4633 49.8587 22.3605 49.839 22.2426 49.839C22.1459 49.839 22.0605 49.8519 21.9864 49.8776C21.9123 49.9017 21.8473 49.9342 21.7914 49.9751C21.737 50.0159 21.6901 50.0627 21.6508 50.1156C21.613 50.1686 21.582 50.223 21.5578 50.2789C21.5336 50.3333 21.5155 50.3878 21.5034 50.4422C21.4913 50.4951 21.4837 50.5435 21.4807 50.5873H23ZM23.8073 51.4943C23.7559 51.6924 23.6833 51.8632 23.5896 52.0068C23.4958 52.1489 23.3817 52.2661 23.2472 52.3583C23.1141 52.4505 22.9615 52.5185 22.7891 52.5624C22.6183 52.6077 22.4293 52.6304 22.2222 52.6304C21.9788 52.6304 21.7543 52.5888 21.5488 52.5057C21.3447 52.421 21.1686 52.3039 21.0204 52.1542C20.8723 52.003 20.7566 51.8239 20.6735 51.6168C20.5903 51.4097 20.5488 51.1829 20.5488 50.9365C20.5488 50.6886 20.5858 50.4565 20.6599 50.2404C20.7354 50.0227 20.8458 49.8337 20.9909 49.6735C21.1361 49.5117 21.3152 49.3847 21.5283 49.2925C21.743 49.1988 21.9902 49.1519 22.2698 49.1519C22.4633 49.1519 22.6387 49.1784 22.7959 49.2313C22.9531 49.2827 23.0922 49.3545 23.2132 49.4467C23.3356 49.5389 23.4399 49.6485 23.5261 49.7755C23.6138 49.901 23.6841 50.0385 23.737 50.1882C23.7914 50.3364 23.8284 50.4936 23.8481 50.6599C23.8692 50.8246 23.8745 50.9924 23.8639 51.1633H21.4807C21.4868 51.2555 21.5064 51.3484 21.5397 51.4422C21.5745 51.5359 21.6228 51.6206 21.6848 51.6961C21.7468 51.7702 21.8224 51.8314 21.9116 51.8798C22.0023 51.9267 22.1058 51.9501 22.2222 51.9501C22.4112 51.9501 22.5661 51.9146 22.6871 51.8435C22.8095 51.7725 22.8927 51.6561 22.9365 51.4943H23.8073Z" fill="white"/>
<path d="M25.2472 49.2358V49.6825C25.3076 49.6039 25.3772 49.5329 25.4558 49.4694C25.5344 49.4044 25.6213 49.3492 25.7166 49.3039C25.8118 49.2585 25.9146 49.2245 26.0249 49.2018C26.1368 49.1791 26.2555 49.1686 26.381 49.1701V50.0522C26.1738 50.0416 26 50.059 25.8594 50.1043C25.7188 50.1481 25.6054 50.2154 25.5193 50.3061C25.4331 50.3953 25.3711 50.5049 25.3333 50.6349C25.2955 50.7634 25.2766 50.907 25.2766 51.0658V52.5329H24.3741V49.2358H25.2472Z" fill="white"/>
<path d="M28.6054 53.0726C28.5571 53.2071 28.4996 53.322 28.4331 53.4172C28.3681 53.514 28.2895 53.5926 28.1973 53.6531C28.1051 53.715 27.9977 53.7604 27.8753 53.7891C27.7543 53.8178 27.6138 53.8322 27.4535 53.8322C27.3598 53.8322 27.2661 53.8284 27.1723 53.8209C27.0801 53.8133 26.9849 53.805 26.8866 53.7959V53.0726C26.9758 53.0816 27.0658 53.0907 27.1565 53.0998C27.2472 53.1104 27.3371 53.1134 27.4263 53.1088C27.5079 53.0998 27.576 53.0695 27.6304 53.0181C27.6848 52.9683 27.7256 52.9078 27.7528 52.8367C27.78 52.7672 27.7944 52.6924 27.7959 52.6122C27.7974 52.5336 27.7853 52.4611 27.7596 52.3946L26.5986 49.2358H27.5556L28.3175 51.5941H28.3265L29.0703 49.2358H30L28.6054 53.0726Z" fill="white"/>
<rect x="6" y="55" width="24" height="1" rx="0.5" fill="white"/>
</g>
<defs>
<clipPath id="clip0_209_2552">
<rect width="128" height="134" fill="white"/>
</clipPath>
</defs>
</svg>
