<svg width="128" height="134" viewBox="0 0 128 134" fill="none" xmlns="http://www.w3.org/2000/svg">
<circle cx="64" cy="70" r="64" fill="#ECF5FF"/>
<circle cx="65" cy="74" r="42" stroke="#005EEC" stroke-width="2" stroke-linecap="round" stroke-linejoin="round" stroke-dasharray="4 4"/>
<g clip-path="url(#clip0_209_2966)">
<path d="M45.4936 92.3009H6.50591C5.11249 92.3009 3.98291 93.4305 3.98291 94.8239V120.976C3.98291 122.37 5.11249 123.499 6.50591 123.499H45.4936C46.8871 123.499 48.0166 122.37 48.0166 120.976V94.8239C48.0166 93.4305 46.8871 92.3009 45.4936 92.3009Z" fill="#BEDCFF"/>
<path d="M48.0166 92.3009H3.98291V97.2483H48.0166V92.3009Z" fill="#97BBE4"/>
<path d="M37.0132 101.02H14.9869V123.499H37.0132V101.02Z" fill="#FDFEFF"/>
<path d="M37.4511 123.499H36.5751V102.399C36.5751 101.879 36.1537 101.458 35.6342 101.458H16.3657C15.8458 101.458 15.4249 101.88 15.4249 102.399V123.499H14.5488V101.523C14.5488 101.003 14.9702 100.582 15.4897 100.582H36.5098C37.0298 100.582 37.4507 101.004 37.4507 101.523V123.499H37.4511Z" fill="#3B3348"/>
<path d="M44.0613 87.3539H8.00524L2.39771 92.2085H49.6688L44.0613 87.3539Z" fill="#0055D1"/>
<path d="M7.51422 92.2085H12.8108V95.7512C12.8108 95.9501 12.6496 96.1113 12.4507 96.1113H7.87427C7.67541 96.1113 7.51422 95.9501 7.51422 95.7512V92.2085Z" fill="#EAF3F9"/>
<path d="M2.39948 92.2085H7.69602V95.7512C7.69602 95.9501 7.53482 96.1113 7.33596 96.1113H2.75997C2.5611 96.1113 2.39991 95.9501 2.39991 95.7512V92.2085H2.39948Z" fill="#0766D8"/>
<path d="M17.8734 92.2085H23.17V95.7512C23.17 95.9501 23.0088 96.1113 22.8099 96.1113H18.2335C18.0346 96.1113 17.8734 95.9501 17.8734 95.7512V92.2085Z" fill="#EAF3F9"/>
<path d="M12.7586 92.2085H18.0551V95.7512C18.0551 95.9501 17.894 96.1113 17.6951 96.1113H13.1187C12.9198 96.1113 12.7586 95.9501 12.7586 95.7512V92.2085Z" fill="#0766D8"/>
<path d="M28.3464 92.2085H33.643V95.7512C33.643 95.9501 33.4818 96.1113 33.2829 96.1113H28.7065C28.5076 96.1113 28.3464 95.9501 28.3464 95.7512V92.2085Z" fill="#EAF3F9"/>
<path d="M23.2317 92.2085H28.5282V95.7512C28.5282 95.9501 28.367 96.1113 28.1682 96.1113H23.5917C23.3929 96.1113 23.2317 95.9501 23.2317 95.7512V92.2085Z" fill="#0766D8"/>
<path d="M39.0341 92.2085H44.3307V95.7512C44.3307 95.9501 44.1695 96.1113 43.9706 96.1113H39.3942C39.1953 96.1113 39.0341 95.9501 39.0341 95.7512V92.2085Z" fill="#EAF3F9"/>
<path d="M33.738 92.2085H39.0346V95.7512C39.0346 95.9501 38.8734 96.1113 38.6745 96.1113H34.0981C33.8992 96.1113 33.738 95.9501 33.738 95.7512V92.2085Z" fill="#0766D8"/>
<path d="M44.3254 92.2085H49.622V95.7512C49.622 95.9501 49.4608 96.1113 49.2619 96.1113H44.6855C44.4866 96.1113 44.3254 95.9501 44.3254 95.7512V92.2085Z" fill="#0766D8"/>
<path d="M23.2667 92.2391L24.9203 87.3539H20.9877L18.1099 92.2085L23.2667 92.2391Z" fill="#EEF7FF"/>
<path d="M40.8174 87.3539H36.5624L39.0596 92.3009L44.3377 92.2698L40.8174 87.3539Z" fill="#EEF7FF"/>
<path d="M33.2286 87.3539H28.8703L28.5313 92.2185L33.763 92.2085L33.2286 87.3539Z" fill="#EEF7FF"/>
<path d="M11.9198 87.3539L7.71442 92.2085H12.8112L16.3316 87.3539H11.9198Z" fill="#EEF7FF"/>
<path d="M26.438 101.458H25.562V123.499H26.438V101.458Z" fill="#3B3348"/>
<path d="M24.6903 111.84C24.6903 111.598 24.4942 111.402 24.2523 111.402C24.0104 111.402 23.8143 111.598 23.8143 111.84V113.117C23.8143 113.359 24.0104 113.555 24.2523 113.555C24.4942 113.555 24.6903 113.359 24.6903 113.117V111.84Z" fill="#3B3348"/>
<path d="M28.184 111.84C28.184 111.598 27.9879 111.402 27.7459 111.402C27.504 111.402 27.3079 111.598 27.3079 111.84V113.117C27.3079 113.359 27.504 113.555 27.7459 113.555C27.9879 113.555 28.184 113.359 28.184 113.117V111.84Z" fill="#3B3348"/>
<path d="M44.127 86.0228H8.09155V87.3544H44.127V86.0228Z" fill="#3B3348"/>
<path d="M9.73938 78H42.4792C43.3885 78 44.127 78.7385 44.127 79.6478V86.0228H8.09155V79.6478C8.09155 78.7385 8.83005 78 9.73938 78Z" fill="#FDFEFF"/>
<path d="M42.5305 78H9.68814C8.8064 78 8.09155 78.7376 8.09155 79.6478V80.131C8.09155 79.2208 8.8064 78.4831 9.68814 78.4831H42.5305C43.4122 78.4831 44.127 79.2208 44.127 80.131V79.6478C44.127 78.7376 43.4122 78 42.5305 78Z" fill="#E8EDEF"/>
<path d="M48.7985 120.976H3.20105V125.585H48.7985V120.976Z" fill="#3B3348"/>
<path d="M50 123.28H2V127.889H50V123.28Z" fill="#2F293A"/>
<path d="M17.555 83.0307C17.555 83.1932 17.5835 83.3347 17.6408 83.4551C17.6982 83.5756 17.7757 83.6755 17.8734 83.7552C17.9711 83.8349 18.0854 83.8945 18.2155 83.9343C18.3456 83.9742 18.4832 83.9939 18.6273 83.9939C18.6921 83.9939 18.7613 83.9904 18.8353 83.9838C18.9089 83.9773 18.9821 83.965 19.0543 83.9479C19.1266 83.9308 19.1958 83.9067 19.262 83.877C19.3285 83.8472 19.3868 83.8099 19.4376 83.7648C19.4884 83.7202 19.5287 83.6663 19.5594 83.6032C19.59 83.5401 19.6054 83.467 19.6054 83.3842C19.6054 83.3014 19.5861 83.2239 19.548 83.1612C19.5099 83.099 19.4569 83.0452 19.3899 82.9996C19.3228 82.9541 19.2431 82.9155 19.1507 82.884C19.0587 82.8524 18.9588 82.8231 18.8506 82.7955C18.7429 82.7683 18.6294 82.7421 18.5107 82.7171C18.392 82.6921 18.272 82.6641 18.1511 82.6325C17.9654 82.5826 17.7863 82.5235 17.6137 82.4547C17.4411 82.3859 17.2887 82.2975 17.1568 82.1897C17.025 82.082 16.9194 81.9497 16.8406 81.7929C16.7617 81.6361 16.7223 81.4442 16.7223 81.2164C16.7223 81.0504 16.7473 80.8989 16.7968 80.7609C16.8463 80.6229 16.9155 80.4994 17.0035 80.3899C17.0916 80.2804 17.1949 80.1845 17.3132 80.1025C17.4319 80.0206 17.5598 79.9523 17.6978 79.8984C17.8353 79.8445 17.9794 79.8043 18.1297 79.7775C18.2799 79.7508 18.4297 79.7377 18.5791 79.7377C18.7517 79.7377 18.9199 79.7517 19.0832 79.7802C19.2466 79.8086 19.4004 79.8511 19.5436 79.9085C19.6873 79.9659 19.8187 80.0382 19.9383 80.1262C20.0578 80.2142 20.1603 80.318 20.2457 80.4372C20.3312 80.5568 20.3977 80.693 20.445 80.8467C20.4923 81 20.516 81.1709 20.516 81.3583H19.4556C19.4472 81.2125 19.4201 81.0898 19.3736 80.9913C19.3272 80.8927 19.2641 80.8134 19.1844 80.7534C19.1047 80.6939 19.011 80.6509 18.9032 80.6251C18.7955 80.5993 18.6768 80.5866 18.5471 80.5866C18.4573 80.5866 18.3675 80.5962 18.2768 80.615C18.1862 80.6343 18.1047 80.6654 18.0316 80.7083C17.9584 80.7517 17.8988 80.8082 17.8524 80.8787C17.806 80.9492 17.7828 81.0351 17.7828 81.1363C17.7828 81.1976 17.7898 81.2515 17.8038 81.2979C17.8178 81.3443 17.8445 81.3868 17.8835 81.4249C17.9225 81.463 17.9755 81.499 18.0429 81.5318C18.1104 81.5647 18.1976 81.5993 18.3053 81.6352C18.4131 81.6707 18.5436 81.7096 18.696 81.7508C18.8489 81.7924 19.0289 81.8397 19.2361 81.8927C19.2974 81.9076 19.3754 81.9269 19.47 81.9501C19.5646 81.9733 19.6645 82.0057 19.7701 82.0474C19.8756 82.089 19.9816 82.142 20.0885 82.2068C20.1954 82.2716 20.2917 82.3527 20.3771 82.4508C20.4626 82.5489 20.5318 82.6663 20.5848 82.8029C20.6378 82.94 20.6645 83.1004 20.6645 83.2848C20.6645 83.5103 20.6198 83.7193 20.53 83.9107C20.4402 84.1021 20.3079 84.2677 20.1332 84.4074C19.958 84.5467 19.7411 84.6558 19.4823 84.7346C19.2234 84.8134 18.9247 84.8529 18.5861 84.8529C18.4021 84.8529 18.2221 84.8358 18.0473 84.8021C17.8721 84.7679 17.7065 84.7166 17.5506 84.6479C17.3947 84.5791 17.2514 84.4937 17.1213 84.3916C16.9913 84.2896 16.8791 84.1713 16.7854 84.0368C16.6916 83.9024 16.6189 83.7517 16.5677 83.5839C16.516 83.4162 16.4915 83.2322 16.4928 83.0316H17.5532L17.555 83.0307Z" fill="#2F293A"/>
<path d="M22.4087 79.8573V81.7763H24.4499V79.8573H25.52V84.7333H24.4499V82.6427H22.4087V84.7333H21.3386V79.8573H22.4087Z" fill="#2F293A"/>
<path d="M26.1818 82.2966C26.1818 82.0759 26.2045 81.8595 26.2501 81.6471C26.2956 81.4346 26.3635 81.234 26.4542 81.0448C26.5444 80.8556 26.6583 80.6817 26.7954 80.5235C26.9321 80.365 27.0924 80.2287 27.2759 80.114C27.459 79.9997 27.6649 79.9099 27.8931 79.845C28.1213 79.7802 28.3732 79.7478 28.6487 79.7478C28.9242 79.7478 29.1796 79.7802 29.4104 79.845C29.6408 79.9099 29.8484 79.9992 30.0328 80.114C30.2172 80.2283 30.3784 80.365 30.5168 80.5235C30.6553 80.6821 30.7709 80.856 30.8629 81.0448C30.9549 81.234 31.0236 81.4346 31.0696 81.6471C31.1152 81.8595 31.138 82.0759 31.138 82.2966C31.138 82.5174 31.1152 82.7329 31.0696 82.9436C31.0241 83.1543 30.9553 83.3536 30.8629 83.5411C30.7709 83.7285 30.6553 83.9007 30.5168 84.0575C30.3784 84.2143 30.2168 84.3496 30.0328 84.4631C29.8489 84.577 29.6412 84.665 29.4104 84.7281C29.1796 84.7912 28.926 84.8227 28.6487 84.8227C28.3714 84.8227 28.1213 84.7912 27.8931 84.7281C27.6649 84.665 27.459 84.5765 27.2759 84.4631C27.0924 84.3492 26.9325 84.2143 26.7954 84.0575C26.6583 83.9007 26.5449 83.7285 26.4542 83.5411C26.3635 83.3536 26.2956 83.1543 26.2501 82.9436C26.2045 82.7329 26.1818 82.517 26.1818 82.2966ZM27.2619 82.2966C27.2619 82.4959 27.2878 82.6922 27.339 82.8853C27.3903 83.0785 27.4722 83.2515 27.5843 83.4044C27.6964 83.5573 27.8397 83.6803 28.0149 83.7741C28.1901 83.8678 28.4012 83.9147 28.6483 83.9147C28.8953 83.9147 29.1156 83.8678 29.2939 83.7741C29.4722 83.6803 29.618 83.5573 29.7306 83.4044C29.8436 83.252 29.9255 83.0789 29.9772 82.8853C30.0285 82.6922 30.0543 82.4959 30.0543 82.2966C30.0543 82.1639 30.0429 82.0312 30.0206 81.8985C29.9982 81.7658 29.9628 81.6392 29.9146 81.5187C29.8664 81.3983 29.8051 81.2866 29.7302 81.1828C29.6557 81.0789 29.5659 80.9887 29.4612 80.9116C29.3565 80.8345 29.237 80.7745 29.1016 80.7312C28.9663 80.6882 28.8147 80.6663 28.6474 80.6663C28.4801 80.6663 28.3346 80.6878 28.2019 80.7312C28.0692 80.7745 27.9514 80.8345 27.8484 80.9116C27.7455 80.9887 27.657 81.0794 27.5834 81.1828C27.5094 81.2866 27.4485 81.3987 27.4003 81.5187C27.3522 81.6392 27.3171 81.7658 27.2948 81.8985C27.2724 82.0312 27.261 82.1639 27.261 82.2966H27.2619Z" fill="#2F293A"/>
<path d="M34.0522 79.8573C34.3294 79.8573 34.5721 79.8915 34.7815 79.9594C34.9904 80.0273 35.1647 80.1271 35.304 80.2581C35.4433 80.3891 35.548 80.5494 35.6177 80.7386C35.6873 80.9278 35.7223 81.1433 35.7223 81.3856C35.7223 81.6278 35.6877 81.8389 35.6177 82.0242C35.548 82.209 35.4433 82.3645 35.304 82.4898C35.1647 82.6151 34.9904 82.7097 34.7815 82.7736C34.5725 82.8376 34.3294 82.8678 34.0522 82.8643H32.8673V84.7333H31.7972V79.8573H34.0522ZM33.838 82.0251C33.9773 82.0286 34.0986 82.015 34.2015 81.9852C34.3045 81.9554 34.389 81.9121 34.4556 81.856C34.5217 81.7995 34.5712 81.7316 34.6036 81.6519C34.6361 81.5721 34.6523 81.4837 34.6523 81.3856C34.6523 81.2874 34.6361 81.2016 34.6036 81.1219C34.5712 81.0421 34.5217 80.9738 34.4556 80.9164C34.389 80.8591 34.3045 80.8153 34.2015 80.7846C34.0986 80.7539 33.9777 80.7386 33.838 80.7386H32.8673V82.0255H33.838V82.0251Z" fill="#2F293A"/>
</g>
<g clip-path="url(#clip1_209_2966)">
<path d="M83.4936 16.3009H44.5059C43.1125 16.3009 41.9829 17.4305 41.9829 18.8239V44.9763C41.9829 46.3697 43.1125 47.4993 44.5059 47.4993H83.4936C84.8871 47.4993 86.0166 46.3697 86.0166 44.9763V18.8239C86.0166 17.4305 84.8871 16.3009 83.4936 16.3009Z" fill="#BEDCFF"/>
<path d="M86.0166 16.3009H41.9829V21.2483H86.0166V16.3009Z" fill="#97BBE4"/>
<path d="M75.0132 25.0201H52.9869V47.4993H75.0132V25.0201Z" fill="#FDFEFF"/>
<path d="M75.4511 47.4994H74.5751V26.3991C74.5751 25.8791 74.1537 25.4582 73.6342 25.4582H54.3657C53.8458 25.4582 53.4249 25.8796 53.4249 26.3991V47.4994H52.5488V25.523C52.5488 25.0031 52.9702 24.5822 53.4897 24.5822H74.5098C75.0298 24.5822 75.4507 25.0035 75.4507 25.523V47.4994H75.4511Z" fill="#3B3348"/>
<path d="M82.0613 11.3539H46.0052L40.3977 16.2085H87.6688L82.0613 11.3539Z" fill="#0055D1"/>
<path d="M45.5142 16.2085H50.8108V19.7512C50.8108 19.9501 50.6496 20.1113 50.4507 20.1113H45.8743C45.6754 20.1113 45.5142 19.9501 45.5142 19.7512V16.2085Z" fill="#EAF3F9"/>
<path d="M40.3995 16.2085H45.696V19.7512C45.696 19.9501 45.5348 20.1113 45.336 20.1113H40.76C40.5611 20.1113 40.3999 19.9501 40.3999 19.7512V16.2085H40.3995Z" fill="#0766D8"/>
<path d="M55.8734 16.2085H61.17V19.7512C61.17 19.9501 61.0088 20.1113 60.8099 20.1113H56.2335C56.0346 20.1113 55.8734 19.9501 55.8734 19.7512V16.2085Z" fill="#EAF3F9"/>
<path d="M50.7586 16.2085H56.0551V19.7512C56.0551 19.9501 55.894 20.1113 55.6951 20.1113H51.1187C50.9198 20.1113 50.7586 19.9501 50.7586 19.7512V16.2085Z" fill="#0766D8"/>
<path d="M66.3465 16.2085H71.643V19.7512C71.643 19.9501 71.4818 20.1113 71.283 20.1113H66.7065C66.5077 20.1113 66.3465 19.9501 66.3465 19.7512V16.2085Z" fill="#EAF3F9"/>
<path d="M61.2317 16.2085H66.5282V19.7512C66.5282 19.9501 66.367 20.1113 66.1682 20.1113H61.5917C61.3929 20.1113 61.2317 19.9501 61.2317 19.7512V16.2085Z" fill="#0766D8"/>
<path d="M77.0341 16.2085H82.3307V19.7512C82.3307 19.9501 82.1695 20.1113 81.9706 20.1113H77.3942C77.1953 20.1113 77.0341 19.9501 77.0341 19.7512V16.2085Z" fill="#EAF3F9"/>
<path d="M71.738 16.2085H77.0346V19.7512C77.0346 19.9501 76.8734 20.1113 76.6745 20.1113H72.0981C71.8992 20.1113 71.738 19.9501 71.738 19.7512V16.2085Z" fill="#0766D8"/>
<path d="M82.3254 16.2085H87.622V19.7512C87.622 19.9501 87.4608 20.1113 87.2619 20.1113H82.6855C82.4866 20.1113 82.3254 19.9501 82.3254 19.7512V16.2085Z" fill="#0766D8"/>
<path d="M61.2667 16.2391L62.9203 11.3539H58.9877L56.1099 16.2085L61.2667 16.2391Z" fill="#EEF7FF"/>
<path d="M78.8173 11.3539H74.5624L77.0596 16.3009L82.3377 16.2698L78.8173 11.3539Z" fill="#EEF7FF"/>
<path d="M71.2287 11.3539H66.8704L66.5313 16.2185L71.7631 16.2085L71.2287 11.3539Z" fill="#EEF7FF"/>
<path d="M49.9198 11.3539L45.7144 16.2085H50.8112L54.3316 11.3539H49.9198Z" fill="#EEF7FF"/>
<path d="M64.438 25.4581H63.562V47.4993H64.438V25.4581Z" fill="#3B3348"/>
<path d="M62.6903 35.8396C62.6903 35.5977 62.4942 35.4016 62.2523 35.4016C62.0104 35.4016 61.8143 35.5977 61.8143 35.8396V37.1173C61.8143 37.3592 62.0104 37.5554 62.2523 37.5554C62.4942 37.5554 62.6903 37.3592 62.6903 37.1173V35.8396Z" fill="#3B3348"/>
<path d="M66.184 35.8396C66.184 35.5977 65.9879 35.4016 65.7459 35.4016C65.504 35.4016 65.3079 35.5977 65.3079 35.8396V37.1173C65.3079 37.3592 65.504 37.5554 65.7459 37.5554C65.9879 37.5554 66.184 37.3592 66.184 37.1173V35.8396Z" fill="#3B3348"/>
<path d="M82.127 10.0228H46.0916V11.3544H82.127V10.0228Z" fill="#3B3348"/>
<path d="M47.7394 2H80.4792C81.3885 2 82.127 2.7385 82.127 3.64783V10.0228H46.0916V3.64783C46.0916 2.7385 46.8301 2 47.7394 2Z" fill="#FDFEFF"/>
<path d="M80.5305 2H47.6881C46.8064 2 46.0916 2.73763 46.0916 3.64783V4.13097C46.0916 3.22076 46.8064 2.48314 47.6881 2.48314H80.5305C81.4122 2.48314 82.127 3.22076 82.127 4.13097V3.64783C82.127 2.73763 81.4122 2 80.5305 2Z" fill="#E8EDEF"/>
<path d="M86.7985 44.9763H41.201V49.5847H86.7985V44.9763Z" fill="#3B3348"/>
<path d="M88 47.2803H40V51.8887H88V47.2803Z" fill="#2F293A"/>
<path d="M55.555 7.03071C55.555 7.19321 55.5835 7.33469 55.6408 7.45515C55.6982 7.5756 55.7757 7.67547 55.8734 7.75519C55.9711 7.83491 56.0854 7.89448 56.2155 7.93434C56.3456 7.9742 56.4832 7.99391 56.6273 7.99391C56.6921 7.99391 56.7613 7.99041 56.8353 7.98384C56.9089 7.97727 56.9821 7.965 57.0543 7.94792C57.1266 7.93084 57.1958 7.90675 57.262 7.87696C57.3285 7.84718 57.3868 7.80995 57.4376 7.76483C57.4884 7.72015 57.5287 7.66627 57.5594 7.6032C57.59 7.54012 57.6054 7.46698 57.6054 7.38419C57.6054 7.3014 57.5861 7.22387 57.548 7.16124C57.5099 7.09904 57.4569 7.04516 57.3899 6.99961C57.3228 6.95405 57.2431 6.91551 57.1507 6.88397C57.0587 6.85243 56.9588 6.82309 56.8506 6.79549C56.7429 6.76833 56.6294 6.74205 56.5107 6.71708C56.392 6.69212 56.272 6.66408 56.1511 6.63255C55.9654 6.58261 55.7863 6.52348 55.6137 6.45471C55.4411 6.38594 55.2887 6.29746 55.1568 6.18971C55.025 6.08196 54.9194 5.94967 54.8406 5.79286C54.7617 5.63605 54.7223 5.4442 54.7223 5.21643C54.7223 5.05042 54.7473 4.89886 54.7968 4.76089C54.8463 4.62291 54.9155 4.49939 55.0035 4.38988C55.0916 4.28038 55.1949 4.18445 55.3132 4.10254C55.4319 4.02063 55.5598 3.9523 55.6978 3.89842C55.8353 3.84455 55.9794 3.80425 56.1297 3.77753C56.2799 3.75081 56.4297 3.73767 56.5791 3.73767C56.7517 3.73767 56.9199 3.75169 57.0832 3.78016C57.2466 3.80863 57.4004 3.85112 57.5436 3.9085C57.6873 3.96588 57.8187 4.03815 57.9383 4.12619C58.0578 4.21424 58.1603 4.31805 58.2457 4.43719C58.3312 4.55677 58.3977 4.69299 58.445 4.84674C58.4923 5.00005 58.516 5.17087 58.516 5.35835H57.4556C57.4472 5.21249 57.4201 5.08984 57.3736 4.99128C57.3272 4.89273 57.2641 4.81345 57.1844 4.75344C57.1047 4.69387 57.011 4.65094 56.9032 4.6251C56.7955 4.59926 56.6768 4.58655 56.5471 4.58655C56.4573 4.58655 56.3675 4.59619 56.2768 4.61503C56.1862 4.6343 56.1047 4.6654 56.0316 4.70832C55.9584 4.75169 55.8988 4.80819 55.8524 4.87871C55.806 4.94924 55.7828 5.03509 55.7828 5.13627C55.7828 5.19759 55.7898 5.25147 55.8038 5.2979C55.8178 5.34433 55.8445 5.38682 55.8835 5.42493C55.9225 5.46303 55.9755 5.49895 56.0429 5.5318C56.1104 5.56465 56.1976 5.59926 56.3053 5.63517C56.4131 5.67065 56.5436 5.70964 56.696 5.75081C56.8489 5.79242 57.0289 5.83973 57.2361 5.89273C57.2974 5.90762 57.3754 5.9269 57.47 5.95011C57.5646 5.97333 57.6645 6.00574 57.7701 6.04735C57.8756 6.08896 57.9816 6.14196 58.0885 6.20679C58.1954 6.27162 58.2917 6.35265 58.3771 6.45077C58.4626 6.54889 58.5318 6.66627 58.5848 6.80294C58.6378 6.94004 58.6645 7.10035 58.6645 7.28476C58.6645 7.51034 58.6198 7.71928 58.53 7.91069C58.4402 8.10211 58.3079 8.26768 58.1332 8.4074C57.958 8.5467 57.7411 8.65576 57.4823 8.73461C57.2234 8.81345 56.9247 8.85287 56.5861 8.85287C56.4021 8.85287 56.2221 8.83579 56.0473 8.80206C55.8721 8.7679 55.7065 8.71665 55.5506 8.64788C55.3947 8.57911 55.2514 8.49369 55.1213 8.39164C54.9913 8.28958 54.8791 8.17131 54.7854 8.03684C54.6916 7.90237 54.6189 7.75169 54.5677 7.58393C54.516 7.41617 54.4915 7.2322 54.4928 7.03158H55.5532L55.555 7.03071Z" fill="#2F293A"/>
<path d="M60.4087 3.8573V5.77627H62.4499V3.8573H63.5199V8.73334H62.4499V6.64267H60.4087V8.73334H59.3386V3.8573H60.4087Z" fill="#2F293A"/>
<path d="M64.1818 6.29664C64.1818 6.07588 64.2046 5.8595 64.2501 5.64706C64.2957 5.43462 64.3636 5.23401 64.4542 5.04478C64.5445 4.85556 64.6584 4.68166 64.7955 4.52354C64.9321 4.36497 65.0924 4.22875 65.276 4.11399C65.4591 3.99966 65.6649 3.90987 65.8931 3.84504C66.1213 3.78022 66.3732 3.7478 66.6487 3.7478C66.9242 3.7478 67.1796 3.78022 67.4104 3.84504C67.6408 3.90987 67.8485 3.99923 68.0329 4.11399C68.2173 4.22831 68.3785 4.36497 68.5169 4.52354C68.6553 4.6821 68.7709 4.85599 68.8629 5.04478C68.9549 5.23401 69.0237 5.43462 69.0697 5.64706C69.1152 5.8595 69.138 6.07588 69.138 6.29664C69.138 6.5174 69.1152 6.73291 69.0697 6.9436C69.0241 7.15429 68.9553 7.35358 68.8629 7.54106C68.7709 7.72853 68.6553 7.90067 68.5169 8.05748C68.3785 8.21429 68.2168 8.34964 68.0329 8.46309C67.8489 8.57698 67.6413 8.66502 67.4104 8.72809C67.1796 8.79117 66.926 8.8227 66.6487 8.8227C66.3715 8.8227 66.1213 8.79117 65.8931 8.72809C65.6649 8.66502 65.4591 8.57654 65.276 8.46309C65.0924 8.34921 64.9326 8.21429 64.7955 8.05748C64.6584 7.90067 64.5449 7.72853 64.4542 7.54106C64.3636 7.35358 64.2957 7.15429 64.2501 6.9436C64.2046 6.73291 64.1818 6.51697 64.1818 6.29664ZM65.2619 6.29664C65.2619 6.49594 65.2878 6.69217 65.339 6.88534C65.3903 7.07851 65.4722 7.25153 65.5843 7.4044C65.6965 7.55726 65.8397 7.68035 66.0149 7.77408C66.1901 7.86782 66.4012 7.91469 66.6483 7.91469C66.8953 7.91469 67.1157 7.86782 67.2939 7.77408C67.4722 7.68035 67.6181 7.55726 67.7306 7.4044C67.8436 7.25196 67.9255 7.07895 67.9772 6.88534C68.0285 6.69217 68.0543 6.49594 68.0543 6.29664C68.0543 6.16392 68.0429 6.0312 68.0206 5.89848C67.9983 5.76576 67.9628 5.63917 67.9146 5.51872C67.8664 5.39826 67.8051 5.28657 67.7302 5.18276C67.6557 5.07895 67.5659 4.98871 67.4612 4.91162C67.3566 4.83453 67.237 4.77452 67.1016 4.73116C66.9663 4.68823 66.8147 4.66633 66.6474 4.66633C66.4801 4.66633 66.3347 4.68779 66.2019 4.73116C66.0692 4.77452 65.9514 4.83453 65.8485 4.91162C65.7455 4.98871 65.657 5.07938 65.5835 5.18276C65.5094 5.28657 65.4485 5.3987 65.4004 5.51872C65.3522 5.63917 65.3171 5.76576 65.2948 5.89848C65.2725 6.0312 65.2611 6.16392 65.2611 6.29664H65.2619Z" fill="#2F293A"/>
<path d="M72.0521 3.8573C72.3294 3.8573 72.5721 3.89147 72.7814 3.95936C72.9904 4.02725 73.1647 4.12712 73.304 4.25809C73.4433 4.38906 73.548 4.54937 73.6176 4.7386C73.6873 4.92782 73.7223 5.14333 73.7223 5.38555C73.7223 5.62778 73.6877 5.8389 73.6176 6.02419C73.548 6.20903 73.4433 6.36453 73.304 6.4898C73.1647 6.61508 72.9904 6.70969 72.7814 6.77364C72.5725 6.83759 72.3294 6.86781 72.0521 6.86431H70.8673V8.73334H69.7972V3.8573H72.0521ZM71.8379 6.02506C71.9772 6.02857 72.0986 6.01499 72.2015 5.9852C72.3044 5.95542 72.389 5.91205 72.4556 5.85599C72.5217 5.79948 72.5712 5.73159 72.6036 5.65187C72.636 5.57215 72.6522 5.48367 72.6522 5.38555C72.6522 5.28744 72.636 5.20158 72.6036 5.12186C72.5712 5.04214 72.5217 4.97381 72.4556 4.91643C72.389 4.85905 72.3044 4.81525 72.2015 4.78459C72.0986 4.75393 71.9777 4.7386 71.8379 4.7386H70.8673V6.0255H71.8379V6.02506Z" fill="#2F293A"/>
</g>
<g clip-path="url(#clip2_209_2966)">
<path d="M121.494 92.3009H82.5059C81.1125 92.3009 79.9829 93.4305 79.9829 94.8239V120.976C79.9829 122.37 81.1125 123.499 82.5059 123.499H121.494C122.887 123.499 124.017 122.37 124.017 120.976V94.8239C124.017 93.4305 122.887 92.3009 121.494 92.3009Z" fill="#BEDCFF"/>
<path d="M124.017 92.3009H79.9829V97.2483H124.017V92.3009Z" fill="#97BBE4"/>
<path d="M113.013 101.02H90.9869V123.499H113.013V101.02Z" fill="#FDFEFF"/>
<path d="M113.451 123.499H112.575V102.399C112.575 101.879 112.154 101.458 111.634 101.458H92.3657C91.8458 101.458 91.4249 101.88 91.4249 102.399V123.499H90.5488V101.523C90.5488 101.003 90.9702 100.582 91.4897 100.582H112.51C113.03 100.582 113.451 101.004 113.451 101.523V123.499H113.451Z" fill="#3B3348"/>
<path d="M120.061 87.3539H84.0053L78.3977 92.2085H125.669L120.061 87.3539Z" fill="#0055D1"/>
<path d="M83.5143 92.2085H88.8108V95.7512C88.8108 95.9501 88.6496 96.1113 88.4507 96.1113H83.8743C83.6754 96.1113 83.5143 95.9501 83.5143 95.7512V92.2085Z" fill="#EAF3F9"/>
<path d="M78.3995 92.2085H83.696V95.7512C83.696 95.9501 83.5348 96.1113 83.336 96.1113H78.76C78.5611 96.1113 78.3999 95.9501 78.3999 95.7512V92.2085H78.3995Z" fill="#0766D8"/>
<path d="M93.8734 92.2085H99.17V95.7512C99.17 95.9501 99.0088 96.1113 98.8099 96.1113H94.2335C94.0346 96.1113 93.8734 95.9501 93.8734 95.7512V92.2085Z" fill="#EAF3F9"/>
<path d="M88.7587 92.2085H94.0552V95.7512C94.0552 95.9501 93.894 96.1113 93.6952 96.1113H89.1187C88.9199 96.1113 88.7587 95.9501 88.7587 95.7512V92.2085Z" fill="#0766D8"/>
<path d="M104.346 92.2085H109.643V95.7512C109.643 95.9501 109.482 96.1113 109.283 96.1113H104.707C104.508 96.1113 104.346 95.9501 104.346 95.7512V92.2085Z" fill="#EAF3F9"/>
<path d="M99.2317 92.2085H104.528V95.7512C104.528 95.9501 104.367 96.1113 104.168 96.1113H99.5918C99.3929 96.1113 99.2317 95.9501 99.2317 95.7512V92.2085Z" fill="#0766D8"/>
<path d="M115.034 92.2085H120.331V95.7512C120.331 95.9501 120.17 96.1113 119.971 96.1113H115.394C115.195 96.1113 115.034 95.9501 115.034 95.7512V92.2085Z" fill="#EAF3F9"/>
<path d="M109.738 92.2085H115.035V95.7512C115.035 95.9501 114.873 96.1113 114.675 96.1113H110.098C109.899 96.1113 109.738 95.9501 109.738 95.7512V92.2085Z" fill="#0766D8"/>
<path d="M120.325 92.2085H125.622V95.7512C125.622 95.9501 125.461 96.1113 125.262 96.1113H120.686C120.487 96.1113 120.325 95.9501 120.325 95.7512V92.2085Z" fill="#0766D8"/>
<path d="M99.2668 92.2391L100.92 87.3539H96.9877L94.11 92.2085L99.2668 92.2391Z" fill="#EEF7FF"/>
<path d="M116.817 87.3539H112.562L115.06 92.3009L120.338 92.2698L116.817 87.3539Z" fill="#EEF7FF"/>
<path d="M109.229 87.3539H104.87L104.531 92.2185L109.763 92.2085L109.229 87.3539Z" fill="#EEF7FF"/>
<path d="M87.9198 87.3539L83.7144 92.2085H88.8112L92.3316 87.3539H87.9198Z" fill="#EEF7FF"/>
<path d="M102.438 101.458H101.562V123.499H102.438V101.458Z" fill="#3B3348"/>
<path d="M100.69 111.84C100.69 111.598 100.494 111.402 100.252 111.402C100.01 111.402 99.8143 111.598 99.8143 111.84V113.117C99.8143 113.359 100.01 113.555 100.252 113.555C100.494 113.555 100.69 113.359 100.69 113.117V111.84Z" fill="#3B3348"/>
<path d="M104.184 111.84C104.184 111.598 103.988 111.402 103.746 111.402C103.504 111.402 103.308 111.598 103.308 111.84V113.117C103.308 113.359 103.504 113.555 103.746 113.555C103.988 113.555 104.184 113.359 104.184 113.117V111.84Z" fill="#3B3348"/>
<path d="M120.127 86.0228H84.0916V87.3544H120.127V86.0228Z" fill="#3B3348"/>
<path d="M85.7394 78H118.479C119.389 78 120.127 78.7385 120.127 79.6478V86.0228H84.0916V79.6478C84.0916 78.7385 84.8301 78 85.7394 78Z" fill="#FDFEFF"/>
<path d="M118.53 78H85.6881C84.8064 78 84.0916 78.7376 84.0916 79.6478V80.131C84.0916 79.2208 84.8064 78.4831 85.6881 78.4831H118.53C119.412 78.4831 120.127 79.2208 120.127 80.131V79.6478C120.127 78.7376 119.412 78 118.53 78Z" fill="#E8EDEF"/>
<path d="M124.799 120.976H79.201V125.585H124.799V120.976Z" fill="#3B3348"/>
<path d="M126 123.28H78V127.889H126V123.28Z" fill="#2F293A"/>
<path d="M93.555 83.0307C93.555 83.1932 93.5835 83.3347 93.6408 83.4551C93.6982 83.5756 93.7757 83.6755 93.8734 83.7552C93.9711 83.8349 94.0854 83.8945 94.2155 83.9343C94.3456 83.9742 94.4832 83.9939 94.6273 83.9939C94.6921 83.9939 94.7613 83.9904 94.8353 83.9838C94.9089 83.9773 94.9821 83.965 95.0543 83.9479C95.1266 83.9308 95.1958 83.9067 95.262 83.877C95.3285 83.8472 95.3868 83.8099 95.4376 83.7648C95.4884 83.7202 95.5287 83.6663 95.5594 83.6032C95.59 83.5401 95.6054 83.467 95.6054 83.3842C95.6054 83.3014 95.5861 83.2239 95.548 83.1612C95.5099 83.099 95.4569 83.0452 95.3899 82.9996C95.3228 82.9541 95.2431 82.9155 95.1507 82.884C95.0587 82.8524 94.9588 82.8231 94.8506 82.7955C94.7429 82.7683 94.6294 82.7421 94.5107 82.7171C94.392 82.6921 94.272 82.6641 94.1511 82.6325C93.9654 82.5826 93.7863 82.5235 93.6137 82.4547C93.4411 82.3859 93.2887 82.2975 93.1568 82.1897C93.025 82.082 92.9194 81.9497 92.8406 81.7929C92.7617 81.6361 92.7223 81.4442 92.7223 81.2164C92.7223 81.0504 92.7473 80.8989 92.7968 80.7609C92.8463 80.6229 92.9155 80.4994 93.0035 80.3899C93.0916 80.2804 93.1949 80.1845 93.3132 80.1025C93.4319 80.0206 93.5598 79.9523 93.6978 79.8984C93.8353 79.8445 93.9794 79.8043 94.1297 79.7775C94.2799 79.7508 94.4297 79.7377 94.5791 79.7377C94.7517 79.7377 94.9199 79.7517 95.0832 79.7802C95.2466 79.8086 95.4004 79.8511 95.5436 79.9085C95.6873 79.9659 95.8187 80.0382 95.9383 80.1262C96.0578 80.2142 96.1603 80.318 96.2457 80.4372C96.3312 80.5568 96.3977 80.693 96.445 80.8467C96.4923 81 96.516 81.1709 96.516 81.3583H95.4556C95.4472 81.2125 95.4201 81.0898 95.3736 80.9913C95.3272 80.8927 95.2641 80.8134 95.1844 80.7534C95.1047 80.6939 95.011 80.6509 94.9032 80.6251C94.7955 80.5993 94.6768 80.5866 94.5471 80.5866C94.4573 80.5866 94.3675 80.5962 94.2768 80.615C94.1862 80.6343 94.1047 80.6654 94.0316 80.7083C93.9584 80.7517 93.8988 80.8082 93.8524 80.8787C93.806 80.9492 93.7828 81.0351 93.7828 81.1363C93.7828 81.1976 93.7898 81.2515 93.8038 81.2979C93.8178 81.3443 93.8445 81.3868 93.8835 81.4249C93.9225 81.463 93.9755 81.499 94.0429 81.5318C94.1104 81.5647 94.1976 81.5993 94.3053 81.6352C94.4131 81.6707 94.5436 81.7096 94.696 81.7508C94.8489 81.7924 95.0289 81.8397 95.2361 81.8927C95.2974 81.9076 95.3754 81.9269 95.47 81.9501C95.5646 81.9733 95.6645 82.0057 95.7701 82.0474C95.8756 82.089 95.9816 82.142 96.0885 82.2068C96.1954 82.2716 96.2917 82.3527 96.3771 82.4508C96.4626 82.5489 96.5318 82.6663 96.5848 82.8029C96.6378 82.94 96.6645 83.1004 96.6645 83.2848C96.6645 83.5103 96.6198 83.7193 96.53 83.9107C96.4402 84.1021 96.3079 84.2677 96.1332 84.4074C95.958 84.5467 95.7411 84.6558 95.4823 84.7346C95.2234 84.8134 94.9247 84.8529 94.5861 84.8529C94.4021 84.8529 94.2221 84.8358 94.0473 84.8021C93.8721 84.7679 93.7065 84.7166 93.5506 84.6479C93.3947 84.5791 93.2514 84.4937 93.1213 84.3916C92.9913 84.2896 92.8791 84.1713 92.7854 84.0368C92.6916 83.9024 92.6189 83.7517 92.5677 83.5839C92.516 83.4162 92.4915 83.2322 92.4928 83.0316H93.5532L93.555 83.0307Z" fill="#2F293A"/>
<path d="M98.4087 79.8573V81.7763H100.45V79.8573H101.52V84.7333H100.45V82.6427H98.4087V84.7333H97.3386V79.8573H98.4087Z" fill="#2F293A"/>
<path d="M102.182 82.2966C102.182 82.0759 102.205 81.8595 102.25 81.6471C102.296 81.4346 102.364 81.234 102.454 81.0448C102.544 80.8556 102.658 80.6817 102.795 80.5235C102.932 80.365 103.092 80.2287 103.276 80.114C103.459 79.9997 103.665 79.9099 103.893 79.845C104.121 79.7802 104.373 79.7478 104.649 79.7478C104.924 79.7478 105.18 79.7802 105.41 79.845C105.641 79.9099 105.848 79.9992 106.033 80.114C106.217 80.2283 106.378 80.365 106.517 80.5235C106.655 80.6821 106.771 80.856 106.863 81.0448C106.955 81.234 107.024 81.4346 107.07 81.6471C107.115 81.8595 107.138 82.0759 107.138 82.2966C107.138 82.5174 107.115 82.7329 107.07 82.9436C107.024 83.1543 106.955 83.3536 106.863 83.5411C106.771 83.7285 106.655 83.9007 106.517 84.0575C106.378 84.2143 106.217 84.3496 106.033 84.4631C105.849 84.577 105.641 84.665 105.41 84.7281C105.18 84.7912 104.926 84.8227 104.649 84.8227C104.371 84.8227 104.121 84.7912 103.893 84.7281C103.665 84.665 103.459 84.5765 103.276 84.4631C103.092 84.3492 102.933 84.2143 102.795 84.0575C102.658 83.9007 102.545 83.7285 102.454 83.5411C102.364 83.3536 102.296 83.1543 102.25 82.9436C102.205 82.7329 102.182 82.517 102.182 82.2966ZM103.262 82.2966C103.262 82.4959 103.288 82.6922 103.339 82.8853C103.39 83.0785 103.472 83.2515 103.584 83.4044C103.696 83.5573 103.84 83.6803 104.015 83.7741C104.19 83.8678 104.401 83.9147 104.648 83.9147C104.895 83.9147 105.116 83.8678 105.294 83.7741C105.472 83.6803 105.618 83.5573 105.731 83.4044C105.844 83.252 105.926 83.0789 105.977 82.8853C106.028 82.6922 106.054 82.4959 106.054 82.2966C106.054 82.1639 106.043 82.0312 106.021 81.8985C105.998 81.7658 105.963 81.6392 105.915 81.5187C105.866 81.3983 105.805 81.2866 105.73 81.1828C105.656 81.0789 105.566 80.9887 105.461 80.9116C105.357 80.8345 105.237 80.7745 105.102 80.7312C104.966 80.6882 104.815 80.6663 104.647 80.6663C104.48 80.6663 104.335 80.6878 104.202 80.7312C104.069 80.7745 103.951 80.8345 103.848 80.9116C103.746 80.9887 103.657 81.0794 103.583 81.1828C103.509 81.2866 103.449 81.3987 103.4 81.5187C103.352 81.6392 103.317 81.7658 103.295 81.8985C103.272 82.0312 103.261 82.1639 103.261 82.2966H103.262Z" fill="#2F293A"/>
<path d="M110.052 79.8573C110.329 79.8573 110.572 79.8915 110.781 79.9594C110.99 80.0273 111.165 80.1271 111.304 80.2581C111.443 80.3891 111.548 80.5494 111.618 80.7386C111.687 80.9278 111.722 81.1433 111.722 81.3856C111.722 81.6278 111.688 81.8389 111.618 82.0242C111.548 82.209 111.443 82.3645 111.304 82.4898C111.165 82.6151 110.99 82.7097 110.781 82.7736C110.573 82.8376 110.329 82.8678 110.052 82.8643H108.867V84.7333H107.797V79.8573H110.052ZM109.838 82.0251C109.977 82.0286 110.099 82.015 110.202 81.9852C110.304 81.9554 110.389 81.9121 110.456 81.856C110.522 81.7995 110.571 81.7316 110.604 81.6519C110.636 81.5721 110.652 81.4837 110.652 81.3856C110.652 81.2874 110.636 81.2016 110.604 81.1219C110.571 81.0421 110.522 80.9738 110.456 80.9164C110.389 80.8591 110.304 80.8153 110.202 80.7846C110.099 80.7539 109.978 80.7386 109.838 80.7386H108.867V82.0255H109.838V82.0251Z" fill="#2F293A"/>
</g>
<defs>
<clipPath id="clip0_209_2966">
<rect width="48" height="49.8887" fill="white" transform="translate(2 78)"/>
</clipPath>
<clipPath id="clip1_209_2966">
<rect width="48" height="49.8887" fill="white" transform="translate(40 2)"/>
</clipPath>
<clipPath id="clip2_209_2966">
<rect width="48" height="49.8887" fill="white" transform="translate(78 78)"/>
</clipPath>
</defs>
</svg>
