<svg width="128" height="134" viewBox="0 0 128 134" fill="none" xmlns="http://www.w3.org/2000/svg">
<circle cx="64" cy="70" r="64" fill="#ECF5FF"/>
<g clip-path="url(#clip0_209_3117)">
<path d="M119.321 49.452H37.4908V127.99H119.321V49.452Z" fill="#CFE5FF"/>
<path d="M106.653 76.7418H88.0599V91.8477H106.653V76.7418Z" fill="#F2BC97"/>
<path d="M114.016 76.7418H95.4228V91.8477H114.016V76.7418Z" fill="#FFD3AE"/>
<path d="M95.4235 79.03H93.7092V80.1741H95.4235V79.03Z" fill="#EFB38B"/>
<path d="M97.1372 79.03H95.4228V80.1741H97.1372V79.03Z" fill="#FCC9A2"/>
<path d="M95.4235 88.2792H93.7092V89.4233H95.4235V88.2792Z" fill="#EFB38B"/>
<path d="M97.1372 88.2792H95.4228V89.4233H97.1372V88.2792Z" fill="#FCC9A2"/>
<path d="M114.016 88.2792H112.302V89.4233H114.016V88.2792Z" fill="#FCC9A2"/>
<path d="M114.016 79.03H112.302V80.1741H114.016V79.03Z" fill="#FCC9A2"/>
<path d="M101.874 88.0389H97.7267V90.1126H101.874V88.0389Z" fill="white"/>
<path d="M83.3245 51.6012H64.7314V66.7071H83.3245V51.6012Z" fill="#F2BC97"/>
<path d="M90.6874 51.6012H72.0943V66.7071H90.6874V51.6012Z" fill="#FFD3AE"/>
<path d="M72.095 53.8894H70.3807V55.0335H72.095V53.8894Z" fill="#EFB38B"/>
<path d="M73.8087 53.8894H72.0943V55.0335H73.8087V53.8894Z" fill="#FCC9A2"/>
<path d="M72.095 63.1378H70.3807V64.2819H72.095V63.1378Z" fill="#EFB38B"/>
<path d="M73.8087 63.1378H72.0943V64.2819H73.8087V63.1378Z" fill="#FCC9A2"/>
<path d="M90.6881 63.1378H88.9737V64.2819H90.6881V63.1378Z" fill="#FCC9A2"/>
<path d="M90.6881 53.8894H88.9737V55.0335H90.6881V53.8894Z" fill="#FCC9A2"/>
<path d="M78.5456 62.8983H74.3982V64.972H78.5456V62.8983Z" fill="white"/>
<path d="M60.1784 51.6012H41.5854V66.7071H60.1784V51.6012Z" fill="#F2BC97"/>
<path d="M67.5421 51.6012H48.949V66.7071H67.5421V51.6012Z" fill="#FFD3AE"/>
<path d="M48.949 53.8894H47.2346V55.0335H48.949V53.8894Z" fill="#EFB38B"/>
<path d="M50.6634 53.8894H48.949V55.0335H50.6634V53.8894Z" fill="#FCC9A2"/>
<path d="M48.949 63.1378H47.2346V64.2819H48.949V63.1378Z" fill="#EFB38B"/>
<path d="M50.6634 63.1378H48.949V64.2819H50.6634V63.1378Z" fill="#FCC9A2"/>
<path d="M67.5421 63.1378H65.8277V64.2819H67.5421V63.1378Z" fill="#FCC9A2"/>
<path d="M67.5421 53.8894H65.8277V55.0335H67.5421V53.8894Z" fill="#FCC9A2"/>
<path d="M55.3995 62.8983H51.2522V64.972H55.3995V62.8983Z" fill="white"/>
<path d="M83.3245 76.7418H64.7314V91.8477H83.3245V76.7418Z" fill="#F2BC97"/>
<path d="M90.6874 76.7418H72.0943V91.8477H90.6874V76.7418Z" fill="#FFD3AE"/>
<path d="M72.095 79.03H70.3807V80.1741H72.095V79.03Z" fill="#EFB38B"/>
<path d="M73.8087 79.03H72.0943V80.1741H73.8087V79.03Z" fill="#FCC9A2"/>
<path d="M72.095 88.2792H70.3807V89.4233H72.095V88.2792Z" fill="#EFB38B"/>
<path d="M73.8087 88.2792H72.0943V89.4233H73.8087V88.2792Z" fill="#FCC9A2"/>
<path d="M90.6881 88.2792H88.9737V89.4233H90.6881V88.2792Z" fill="#FCC9A2"/>
<path d="M90.6881 79.03H88.9737V80.1741H90.6881V79.03Z" fill="#FCC9A2"/>
<path d="M78.5456 88.0389H74.3982V90.1126H78.5456V88.0389Z" fill="white"/>
<path d="M60.1784 76.7418H41.5854V91.8477H60.1784V76.7418Z" fill="#F2BC97"/>
<path d="M67.5421 76.7418H48.949V91.8477H67.5421V76.7418Z" fill="#FFD3AE"/>
<path d="M48.949 79.03H47.2346V80.1741H48.949V79.03Z" fill="#EFB38B"/>
<path d="M50.6634 79.03H48.949V80.1741H50.6634V79.03Z" fill="#FCC9A2"/>
<path d="M48.949 88.2792H47.2346V89.4233H48.949V88.2792Z" fill="#EFB38B"/>
<path d="M50.6634 88.2792H48.949V89.4233H50.6634V88.2792Z" fill="#FCC9A2"/>
<path d="M67.5421 88.2792H65.8277V89.4233H67.5421V88.2792Z" fill="#FCC9A2"/>
<path d="M67.5421 79.03H65.8277V80.1741H67.5421V79.03Z" fill="#FCC9A2"/>
<path d="M55.3995 88.0389H51.2522V90.1126H55.3995V88.0389Z" fill="white"/>
<path d="M37.4908 49.452H35.9453V127.99H37.4908V49.452Z" fill="#3B3348"/>
<path d="M120.867 49.452H119.322V127.99H120.867V49.452Z" fill="#3B3348"/>
<path d="M120.867 68.5562H36.2405V66.7057H120.853L120.867 68.5562Z" fill="#3B3348"/>
<path d="M120.867 93.6982H36.2405V91.8477H120.853L120.867 93.6982Z" fill="#3B3348"/>
<path d="M120.867 119.43H36.2405V117.58H120.853L120.867 119.43Z" fill="#3B3348"/>
<path d="M106.653 102.474H88.0599V117.58H106.653V102.474Z" fill="#F2BC97"/>
<path d="M114.016 102.474H95.4228V117.58H114.016V102.474Z" fill="#FFD3AE"/>
<path d="M95.4235 104.763H93.7092V105.907H95.4235V104.763Z" fill="#EFB38B"/>
<path d="M97.1372 104.763H95.4228V105.907H97.1372V104.763Z" fill="#FCC9A2"/>
<path d="M95.4235 114.011H93.7092V115.155H95.4235V114.011Z" fill="#EFB38B"/>
<path d="M97.1372 114.011H95.4228V115.155H97.1372V114.011Z" fill="#FCC9A2"/>
<path d="M114.016 114.011H112.302V115.155H114.016V114.011Z" fill="#FCC9A2"/>
<path d="M114.016 104.763H112.302V105.907H114.016V104.763Z" fill="#FCC9A2"/>
<path d="M101.874 113.771H97.7267V115.845H101.874V113.771Z" fill="white"/>
<path d="M83.3245 102.474H64.7314V117.58H83.3245V102.474Z" fill="#F2BC97"/>
<path d="M90.6874 102.474H72.0943V117.58H90.6874V102.474Z" fill="#FFD3AE"/>
<path d="M72.095 104.763H70.3807V105.907H72.095V104.763Z" fill="#EFB38B"/>
<path d="M73.8087 104.763H72.0943V105.907H73.8087V104.763Z" fill="#FCC9A2"/>
<path d="M72.095 114.011H70.3807V115.155H72.095V114.011Z" fill="#EFB38B"/>
<path d="M73.8087 114.011H72.0943V115.155H73.8087V114.011Z" fill="#FCC9A2"/>
<path d="M90.6881 114.011H88.9737V115.155H90.6881V114.011Z" fill="#FCC9A2"/>
<path d="M90.6881 104.763H88.9737V105.907H90.6881V104.763Z" fill="#FCC9A2"/>
<path d="M78.5456 113.771H74.3982V115.845H78.5456V113.771Z" fill="white"/>
<path d="M60.1784 102.474H41.5854V117.58H60.1784V102.474Z" fill="#F2BC97"/>
<path d="M67.5421 102.474H48.949V117.58H67.5421V102.474Z" fill="#FFD3AE"/>
<path d="M48.949 104.763H47.2346V105.907H48.949V104.763Z" fill="#EFB38B"/>
<path d="M50.6634 104.763H48.949V105.907H50.6634V104.763Z" fill="#FCC9A2"/>
<path d="M48.949 114.011H47.2346V115.155H48.949V114.011Z" fill="#EFB38B"/>
<path d="M50.6634 114.011H48.949V115.155H50.6634V114.011Z" fill="#FCC9A2"/>
<path d="M67.5421 114.011H65.8277V115.155H67.5421V114.011Z" fill="#FCC9A2"/>
<path d="M67.5421 104.763H65.8277V105.907H67.5421V104.763Z" fill="#FCC9A2"/>
<path d="M55.3995 113.771H51.2522V115.845H55.3995V113.771Z" fill="white"/>
<path d="M45.7391 114.012H27.146V129.118H45.7391V114.012Z" fill="#F2BC97"/>
<path d="M53.1028 114.012H34.5097V129.118H53.1028V114.012Z" fill="#FFD3AE"/>
<path d="M34.5097 116.3H32.7953V117.445H34.5097V116.3Z" fill="#EFB38B"/>
<path d="M36.2241 116.3H34.5097V117.445H36.2241V116.3Z" fill="#FCC9A2"/>
<path d="M34.5097 125.55H32.7953V126.694H34.5097V125.55Z" fill="#EFB38B"/>
<path d="M36.2241 125.55H34.5097V126.694H36.2241V125.55Z" fill="#FCC9A2"/>
<path d="M53.1028 125.55H51.3884V126.694H53.1028V125.55Z" fill="#FCC9A2"/>
<path d="M53.1028 116.3H51.3884V117.445H53.1028V116.3Z" fill="#FCC9A2"/>
<path d="M40.9602 125.309H36.8129V127.383H40.9602V125.309Z" fill="white"/>
<path d="M22.5931 114.012H4V129.118H22.5931V114.012Z" fill="#F2BC97"/>
<path d="M29.9568 114.012H11.3637V129.118H29.9568V114.012Z" fill="#FFD3AE"/>
<path d="M11.3637 116.3H9.64928V117.445H11.3637V116.3Z" fill="#EFB38B"/>
<path d="M13.0781 116.3H11.3637V117.445H13.0781V116.3Z" fill="#FCC9A2"/>
<path d="M11.3637 125.55H9.64928V126.694H11.3637V125.55Z" fill="#EFB38B"/>
<path d="M13.0781 125.55H11.3637V126.694H13.0781V125.55Z" fill="#FCC9A2"/>
<path d="M29.9568 125.55H28.2424V126.694H29.9568V125.55Z" fill="#FCC9A2"/>
<path d="M29.9568 116.3H28.2424V117.445H29.9568V116.3Z" fill="#FCC9A2"/>
<path d="M17.8142 125.309H13.6669V127.383H17.8142V125.309Z" fill="white"/>
<path d="M45.7391 99.2014H27.146V114.307H45.7391V99.2014Z" fill="#F2BC97"/>
<path d="M53.1028 99.2014H34.5097V114.307H53.1028V99.2014Z" fill="#FFD3AE"/>
<path d="M34.5097 101.49H32.7953V102.634H34.5097V101.49Z" fill="#EFB38B"/>
<path d="M36.2241 101.49H34.5097V102.634H36.2241V101.49Z" fill="#FCC9A2"/>
<path d="M34.5097 110.739H32.7953V111.883H34.5097V110.739Z" fill="#EFB38B"/>
<path d="M36.2241 110.739H34.5097V111.883H36.2241V110.739Z" fill="#FCC9A2"/>
<path d="M53.1028 110.739H51.3884V111.883H53.1028V110.739Z" fill="#FCC9A2"/>
<path d="M53.1028 101.49H51.3884V102.634H53.1028V101.49Z" fill="#FCC9A2"/>
<path d="M40.9602 110.499H36.8129V112.572H40.9602V110.499Z" fill="white"/>
<path d="M22.5931 99.2014H4V114.307H22.5931V99.2014Z" fill="#F2BC97"/>
<path d="M29.9568 99.2014H11.3637V114.307H29.9568V99.2014Z" fill="#FFD3AE"/>
<path d="M11.3637 101.49H9.64928V102.634H11.3637V101.49Z" fill="#EFB38B"/>
<path d="M13.0781 101.49H11.3637V102.634H13.0781V101.49Z" fill="#FCC9A2"/>
<path d="M11.3637 110.739H9.64928V111.883H11.3637V110.739Z" fill="#EFB38B"/>
<path d="M13.0781 110.739H11.3637V111.883H13.0781V110.739Z" fill="#FCC9A2"/>
<path d="M29.9568 110.739H28.2424V111.883H29.9568V110.739Z" fill="#FCC9A2"/>
<path d="M29.9568 101.49H28.2424V102.634H29.9568V101.49Z" fill="#FCC9A2"/>
<path d="M17.8142 110.499H13.6669V112.572H17.8142V110.499Z" fill="white"/>
<path d="M22.5931 84.9438H4V100.05H22.5931V84.9438Z" fill="#F2BC97"/>
<path d="M29.9568 84.9438H11.3637V100.05H29.9568V84.9438Z" fill="#FFD3AE"/>
<path d="M11.3637 87.2321H9.64928V88.3762H11.3637V87.2321Z" fill="#EFB38B"/>
<path d="M13.0781 87.2321H11.3637V88.3762H13.0781V87.2321Z" fill="#FCC9A2"/>
<path d="M11.3637 96.4805H9.64928V97.6246H11.3637V96.4805Z" fill="#EFB38B"/>
<path d="M13.0781 96.4805H11.3637V97.6246H13.0781V96.4805Z" fill="#FCC9A2"/>
<path d="M29.9568 96.4805H28.2424V97.6246H29.9568V96.4805Z" fill="#FCC9A2"/>
<path d="M29.9568 87.2321H28.2424V88.3762H29.9568V87.2321Z" fill="#FCC9A2"/>
<path d="M17.8142 96.241H13.6669V98.3146H17.8142V96.241Z" fill="white"/>
<path d="M123.879 46.95H33.7726C33.7061 46.95 33.6521 47.0039 33.6521 47.0704V49.7272C33.6521 49.7937 33.7061 49.8477 33.7726 49.8477H123.879C123.945 49.8477 123.999 49.7937 123.999 49.7272V47.0704C123.999 47.0039 123.945 46.95 123.879 46.95Z" fill="#004FAD"/>
<path d="M33.7726 46.95H124L77.7586 18.3465C76.9773 17.8631 75.9836 17.8874 75.2273 18.4085L33.7726 46.95Z" fill="#0055D1"/>
</g>
<defs>
<clipPath id="clip0_209_3117">
<rect width="120" height="111.118" fill="white" transform="translate(4 18)"/>
</clipPath>
</defs>
</svg>
