<svg width="141" height="70" viewBox="0 0 141 70" fill="none" xmlns="http://www.w3.org/2000/svg">
<g clip-path="url(#clip0_365_4097)">
<path d="M87.2299 29.84C86.3999 29.11 85.4099 28.58 84.2799 28.26C83.1699 27.94 81.6499 27.79 79.6299 27.79H73.1199C71.8099 27.79 70.8199 28.1 70.1599 28.71C69.4899 29.33 69.1499 30.32 69.1499 31.65V50.97C69.1499 52.16 69.4499 53.1 70.0399 53.75C70.6499 54.43 71.4599 54.78 72.4399 54.78C73.4199 54.78 74.1799 54.43 74.8099 53.75C75.4199 53.08 75.7199 52.14 75.7199 50.94V44.59H79.6199C82.8999 44.59 85.4199 43.87 87.1299 42.44C88.8699 40.98 89.7599 38.83 89.7599 36.06C89.7599 34.77 89.5499 33.59 89.1199 32.55C88.6899 31.49 88.0499 30.58 87.2199 29.84H87.2299ZM83.1199 36.16C83.1199 36.91 82.9599 37.52 82.6299 37.95C82.2999 38.39 81.8299 38.71 81.1699 38.91C80.4399 39.14 79.5099 39.25 78.3899 39.25H75.7199V33.09H78.3899C80.9399 33.09 81.9499 33.57 82.3399 33.96C82.8599 34.52 83.1099 35.23 83.1099 36.15L83.1199 36.16Z" fill="white"/>
<path d="M111.35 29.04C109.38 27.93 107.01 27.36 104.29 27.36C102.29 27.36 100.47 27.68 98.8799 28.31C97.2799 28.95 95.8999 29.88 94.7799 31.09C93.6599 32.29 92.7999 33.76 92.2199 35.46C91.6399 37.14 91.3499 39 91.3499 41C91.3499 43 91.6299 44.8 92.1799 46.48C92.7399 48.19 93.5799 49.68 94.6899 50.9C95.7999 52.13 97.1999 53.1 98.8399 53.77C100.47 54.44 102.34 54.77 104.39 54.77C106.44 54.77 108.31 54.44 109.92 53.79C111.55 53.13 112.94 52.17 114.06 50.93C115.17 49.7 116.02 48.22 116.57 46.54C117.12 44.89 117.4 43.03 117.4 41.02C117.4 38.29 116.89 35.88 115.89 33.84C114.87 31.77 113.34 30.15 111.35 29.02V29.04ZM110.75 41C110.75 42.86 110.45 44.44 109.86 45.69C109.28 46.9 108.51 47.81 107.55 48.38C106.59 48.96 105.51 49.25 104.35 49.25C103.44 49.25 102.61 49.08 101.86 48.75C101.12 48.42 100.45 47.91 99.8699 47.24C99.2899 46.56 98.8199 45.69 98.4999 44.64C98.1699 43.57 97.9999 42.35 97.9999 41C97.9999 39.65 98.1699 38.46 98.4999 37.4C98.8299 36.37 99.2699 35.51 99.8299 34.86C100.37 34.22 101.03 33.73 101.79 33.39C102.55 33.05 103.4 32.88 104.3 32.88C105.57 32.88 106.71 33.19 107.69 33.8C108.67 34.41 109.4 35.3 109.94 36.52C110.49 37.76 110.77 39.26 110.77 40.99L110.75 41Z" fill="white"/>
<path d="M140.03 42.53C139.53 41.56 138.82 40.74 137.92 40.1C137.07 39.49 136.02 38.97 134.81 38.55C133.64 38.14 132.32 37.77 130.91 37.44C129.8 37.16 129 36.95 128.52 36.8C128.08 36.67 127.64 36.48 127.21 36.25C126.83 36.04 126.53 35.79 126.32 35.52C126.15 35.29 126.06 35.01 126.06 34.67C126.06 34.31 126.15 33.77 126.95 33.2C127.62 32.72 128.54 32.48 129.69 32.48C130.92 32.48 131.79 32.69 132.29 33.1C132.84 33.56 133.33 34.22 133.75 35.09C134.14 35.82 134.51 36.35 134.87 36.71C135.32 37.14 135.94 37.36 136.72 37.36C137.57 37.36 138.32 37.02 138.88 36.38C139.43 35.76 139.71 35.04 139.71 34.25C139.71 33.46 139.51 32.68 139.12 31.88C138.73 31.1 138.12 30.35 137.31 29.65C136.5 28.96 135.48 28.4 134.27 27.99C133.07 27.58 131.65 27.38 130.04 27.38C128.03 27.38 126.24 27.69 124.73 28.3C123.18 28.93 121.96 29.85 121.13 31.04C120.29 32.23 119.87 33.61 119.87 35.15C119.87 36.69 120.28 38.13 121.08 39.23C121.86 40.3 122.93 41.16 124.26 41.78C125.51 42.36 127.08 42.88 128.93 43.31C130.25 43.61 131.31 43.9 132.08 44.16C132.77 44.39 133.33 44.73 133.75 45.16C134.12 45.54 134.3 46.03 134.3 46.66C134.3 47.47 133.94 48.13 133.19 48.68C132.39 49.28 131.3 49.58 129.97 49.58C129 49.58 128.23 49.43 127.67 49.14C127.1 48.85 126.68 48.49 126.38 48.05C126.04 47.56 125.72 46.94 125.43 46.2C125.13 45.42 124.74 44.82 124.29 44.4C123.78 43.93 123.15 43.69 122.42 43.69C121.55 43.69 120.82 43.99 120.25 44.58C119.68 45.16 119.4 45.87 119.4 46.68C119.4 47.88 119.8 49.12 120.58 50.35C121.35 51.57 122.37 52.56 123.62 53.29C125.33 54.29 127.52 54.79 130.12 54.79C132.28 54.79 134.19 54.42 135.78 53.7C137.41 52.96 138.67 51.91 139.53 50.59C140.39 49.27 140.82 47.75 140.82 46.1C140.82 44.72 140.57 43.52 140.06 42.55L140.03 42.53Z" fill="white"/>
<path d="M60.9601 61.7501H57.9201V63.7001H60.4601C60.7001 63.7001 60.8701 63.7501 60.9901 63.8601C61.1101 63.9701 61.1601 64.1101 61.1601 64.2801C61.1601 64.4501 61.1001 64.6001 60.9801 64.7001C60.8601 64.8001 60.6901 64.8601 60.4601 64.8601H57.9201V67.3701C57.9201 67.6901 57.8501 67.9201 57.7001 68.0801C57.5501 68.2401 57.3701 68.3101 57.1501 68.3101C56.9301 68.3101 56.7401 68.2301 56.5901 68.0801C56.4501 67.9201 56.3701 67.6901 56.3701 67.3701V61.5201C56.3701 61.3001 56.4001 61.1201 56.4701 60.9801C56.5401 60.8401 56.6401 60.7401 56.7801 60.6701C56.9201 60.6101 57.1001 60.5701 57.3201 60.5701H60.9501C61.2001 60.5701 61.3801 60.6201 61.5001 60.7301C61.6201 60.8401 61.6801 60.9801 61.6801 61.1601C61.6801 61.3401 61.6201 61.4801 61.5001 61.5901C61.3801 61.7001 61.2001 61.7501 60.9501 61.7501H60.9601Z" fill="white"/>
<path d="M62.8401 65.0201V61.3601C62.8401 61.0501 62.9101 60.8201 63.0501 60.6601C63.1901 60.5001 63.3701 60.4301 63.6001 60.4301C63.8301 60.4301 64.0301 60.5101 64.1701 60.6601C64.3101 60.8201 64.3801 61.0501 64.3801 61.3601V65.1001C64.3801 65.5301 64.4301 65.8801 64.5201 66.1701C64.6201 66.4601 64.7801 66.6801 65.0301 66.8301C65.2801 66.9801 65.6101 67.0701 66.0501 67.0701C66.6501 67.0701 67.0801 66.91 67.3301 66.59C67.5801 66.27 67.7001 65.7801 67.7001 65.1301V61.3601C67.7001 61.0501 67.7701 60.8101 67.9101 60.6601C68.0501 60.5101 68.2301 60.4301 68.4701 60.4301C68.7101 60.4301 68.8901 60.5101 69.0301 60.6601C69.1701 60.8101 69.2401 61.0501 69.2401 61.3601V65.0201C69.2401 65.6201 69.1801 66.1101 69.0701 66.5101C68.9501 66.9101 68.7401 67.2601 68.4101 67.5601C68.1301 67.8201 67.8101 68.0001 67.4501 68.1201C67.0801 68.2401 66.6501 68.3001 66.1601 68.3001C65.5801 68.3001 65.0701 68.2401 64.6501 68.1101C64.2301 67.9801 63.8801 67.7901 63.6201 67.5201C63.3501 67.2601 63.1601 66.9201 63.0301 66.5001C62.9101 66.0901 62.8401 65.5901 62.8401 65.0201V65.0201Z" fill="white"/>
<path d="M72.4201 61.3601V66.9001H75.5401C75.7901 66.9001 75.9801 66.9601 76.1101 67.0801C76.2401 67.2001 76.3101 67.3501 76.3101 67.5401C76.3101 67.7301 76.2401 67.8801 76.1101 67.9901C75.9801 68.1101 75.7901 68.1601 75.5301 68.1601H71.8101C71.4701 68.1601 71.2301 68.0901 71.0901 67.9401C70.9401 67.7901 70.8701 67.5501 70.8701 67.2201V61.3601C70.8701 61.0501 70.9401 60.8201 71.0801 60.6601C71.2201 60.5001 71.4001 60.4301 71.6301 60.4301C71.8601 60.4301 72.0501 60.5101 72.1901 60.6601C72.3301 60.8101 72.4101 61.0501 72.4101 61.3601H72.4201Z" fill="white"/>
<path d="M78.84 61.3601V66.9001H81.96C82.21 66.9001 82.4 66.9601 82.53 67.0801C82.66 67.2001 82.73 67.3501 82.73 67.5401C82.73 67.7301 82.66 67.8801 82.53 67.9901C82.4 68.1101 82.21 68.1601 81.95 68.1601H78.23C77.89 68.1601 77.65 68.0901 77.51 67.9401C77.36 67.7901 77.29 67.5501 77.29 67.2201V61.3601C77.29 61.0501 77.36 60.8201 77.5 60.6601C77.64 60.5001 77.82 60.4301 78.05 60.4301C78.28 60.4301 78.47 60.5101 78.61 60.6601C78.75 60.8101 78.83 61.0501 78.83 61.3601H78.84Z" fill="white"/>
<path d="M91.3402 61.8301H89.6602V67.3601C89.6602 67.6801 89.5902 67.9101 89.4502 68.0701C89.3102 68.2201 89.1202 68.3001 88.9002 68.3001C88.6802 68.3001 88.4902 68.2201 88.3402 68.0701C88.2002 67.9101 88.1302 67.6801 88.1302 67.3601V61.8301H86.4502C86.1902 61.8301 85.9902 61.7701 85.8602 61.6601C85.7302 61.5501 85.6702 61.3901 85.6702 61.2001C85.6702 61.0101 85.7402 60.8501 85.8702 60.7301C86.0002 60.6201 86.2002 60.5601 86.4502 60.5601H91.3502C91.6202 60.5601 91.8102 60.6201 91.9402 60.7401C92.0702 60.8601 92.1302 61.0101 92.1302 61.2001C92.1302 61.3901 92.0602 61.5401 91.9302 61.6601C91.8002 61.7801 91.6002 61.8301 91.3402 61.8301Z" fill="white"/>
<path d="M98.06 61.7501H94.59V63.6201H97.79C98.03 63.6201 98.2 63.6701 98.32 63.7801C98.44 63.8901 98.49 64.0301 98.49 64.2001C98.49 64.3701 98.43 64.5101 98.32 64.6201C98.21 64.7301 98.03 64.7801 97.79 64.7801H94.59V66.9401H98.18C98.42 66.9401 98.6 67.0001 98.73 67.1101C98.85 67.2201 98.91 67.3701 98.91 67.5601C98.91 67.7501 98.85 67.8901 98.73 68.0001C98.61 68.1101 98.42 68.1701 98.18 68.1701H93.99C93.66 68.1701 93.41 68.1001 93.27 67.9501C93.13 67.8001 93.05 67.5601 93.05 67.2301V61.5101C93.05 61.2901 93.08 61.1101 93.15 60.9701C93.22 60.8301 93.32 60.7301 93.46 60.6601C93.6 60.6001 93.78 60.5601 94 60.5601H98.07C98.32 60.5601 98.5 60.6101 98.62 60.7201C98.74 60.8301 98.8 60.9701 98.8 61.1501C98.8 61.3301 98.74 61.4701 98.62 61.5801C98.5 61.6901 98.32 61.7401 98.07 61.7401L98.06 61.7501Z" fill="white"/>
<path d="M105 67.3001L104.64 66.34H101.55L101.19 67.3201C101.05 67.7001 100.93 67.96 100.83 68.09C100.73 68.22 100.57 68.2901 100.34 68.2901C100.15 68.2901 99.9701 68.2201 99.8301 68.0801C99.6801 67.9401 99.6101 67.7801 99.6101 67.6001C99.6101 67.5001 99.6301 67.3901 99.6601 67.2801C99.7001 67.1701 99.7501 67.0201 99.8301 66.8201L101.78 61.8801C101.83 61.7401 101.9 61.5701 101.98 61.3701C102.06 61.1701 102.14 61.0101 102.23 60.8701C102.32 60.7401 102.43 60.6301 102.58 60.5501C102.72 60.4701 102.9 60.4301 103.11 60.4301C103.32 60.4301 103.5 60.4701 103.65 60.5501C103.79 60.6301 103.91 60.7401 104 60.8601C104.09 60.9801 104.16 61.1301 104.22 61.2701C104.28 61.4101 104.36 61.6101 104.45 61.8601L106.44 66.7701C106.6 67.1401 106.67 67.4201 106.67 67.5801C106.67 67.7401 106.6 67.9201 106.45 68.0701C106.3 68.2201 106.13 68.2901 105.92 68.2901C105.8 68.2901 105.7 68.2701 105.61 68.2301C105.52 68.1901 105.45 68.1301 105.39 68.0501C105.33 67.9801 105.27 67.8601 105.2 67.7101C105.13 67.5601 105.07 67.4201 105.03 67.3001H105ZM101.95 65.1901H104.22L103.07 62.0501L101.94 65.1901H101.95Z" fill="white"/>
<path d="M110.35 67.02L109.13 62.17V67.42C109.13 67.71 109.07 67.93 108.94 68.07C108.81 68.22 108.64 68.2901 108.42 68.2901C108.2 68.2901 108.04 68.22 107.91 68.07C107.78 67.92 107.71 67.7101 107.71 67.4101V61.39C107.71 61.06 107.8 60.8301 107.97 60.7201C108.14 60.6001 108.38 60.55 108.67 60.55H109.15C109.44 60.55 109.65 60.5801 109.78 60.6301C109.91 60.6801 110.01 60.78 110.07 60.91C110.13 61.05 110.2 61.26 110.28 61.57L111.39 65.74L112.5 61.57C112.58 61.27 112.65 61.05 112.71 60.91C112.77 60.78 112.87 60.6801 113 60.6301C113.13 60.5801 113.34 60.55 113.62 60.55H114.1C114.39 60.55 114.63 60.6101 114.8 60.7201C114.97 60.8401 115.06 61.06 115.06 61.39V67.4101C115.06 67.7001 115 67.92 114.87 68.06C114.74 68.21 114.57 68.28 114.35 68.28C114.15 68.28 113.98 68.21 113.85 68.06C113.72 67.91 113.65 67.7001 113.65 67.4101V62.16L112.43 67.0101C112.35 67.3201 112.29 67.56 112.23 67.7C112.18 67.85 112.09 67.98 111.95 68.1C111.81 68.22 111.63 68.28 111.39 68.28C111.21 68.28 111.06 68.2401 110.93 68.1601C110.81 68.0801 110.71 67.9801 110.64 67.8601C110.57 67.7401 110.52 67.61 110.48 67.46C110.44 67.31 110.4 67.16 110.36 67L110.35 67.02Z" fill="white"/>
<path d="M122.24 65.2H120.83V67.35C120.83 67.66 120.76 67.8901 120.61 68.0501C120.47 68.2101 120.28 68.2901 120.06 68.2901C119.84 68.2901 119.64 68.2101 119.5 68.0501C119.36 67.8901 119.29 67.6601 119.29 67.3601V61.5C119.29 61.16 119.37 60.9201 119.52 60.7701C119.68 60.6201 119.92 60.55 120.26 60.55H122.24C122.82 60.55 123.27 60.59 123.59 60.68C123.9 60.77 124.17 60.9101 124.4 61.1101C124.63 61.3101 124.8 61.56 124.92 61.85C125.04 62.14 125.1 62.4701 125.1 62.8301C125.1 63.6101 124.86 64.19 124.38 64.59C123.9 64.99 123.19 65.1901 122.25 65.1901L122.24 65.2ZM121.87 61.71H120.83V64.0401H121.87C122.23 64.0401 122.54 64 122.78 63.93C123.02 63.86 123.21 63.7301 123.34 63.5601C123.47 63.3901 123.53 63.1601 123.53 62.8801C123.53 62.5401 123.43 62.2701 123.23 62.0601C123.01 61.8301 122.55 61.7201 121.86 61.7201L121.87 61.71Z" fill="white"/>
<path d="M129.72 60.4301C130.51 60.4301 131.19 60.5901 131.75 60.9101C132.32 61.2301 132.74 61.6901 133.04 62.2801C133.33 62.8701 133.48 63.5601 133.48 64.3601C133.48 64.9501 133.4 65.4801 133.24 65.9601C133.08 66.4401 132.84 66.8601 132.52 67.2101C132.2 67.5601 131.81 67.8301 131.35 68.0201C130.89 68.2101 130.36 68.3001 129.76 68.3001C129.16 68.3001 128.63 68.2001 128.16 68.0101C127.69 67.8201 127.3 67.5501 126.98 67.2001C126.66 66.8501 126.43 66.4301 126.27 65.9401C126.11 65.4501 126.03 64.9201 126.03 64.3501C126.03 63.7801 126.11 63.2301 126.28 62.7401C126.45 62.2501 126.69 61.8401 127.01 61.4901C127.33 61.1501 127.72 60.8901 128.17 60.7001C128.63 60.5201 129.15 60.4301 129.73 60.4301H129.72ZM131.91 64.34C131.91 63.78 131.82 63.3001 131.64 62.8901C131.46 62.4801 131.2 62.1701 130.87 61.9601C130.54 61.7501 130.15 61.6501 129.72 61.6501C129.41 61.6501 129.13 61.7101 128.87 61.8201C128.61 61.9401 128.38 62.1001 128.2 62.3301C128.01 62.5501 127.86 62.8301 127.75 63.1801C127.64 63.5201 127.59 63.91 127.59 64.34C127.59 64.77 127.64 65.1601 127.75 65.5101C127.86 65.8601 128.01 66.1501 128.21 66.3801C128.41 66.6101 128.64 66.7801 128.89 66.9001C129.14 67.0201 129.43 67.0701 129.74 67.0701C130.13 67.0701 130.5 66.9701 130.83 66.7701C131.16 66.5701 131.42 66.2701 131.62 65.8601C131.82 65.4501 131.91 64.94 131.91 64.34V64.34Z" fill="white"/>
<path d="M140.57 65.88C140.57 66.34 140.45 66.75 140.21 67.12C139.97 67.49 139.63 67.77 139.17 67.98C138.71 68.19 138.17 68.29 137.55 68.29C136.8 68.29 136.18 68.15 135.69 67.86C135.34 67.66 135.06 67.38 134.85 67.04C134.63 66.7 134.53 66.37 134.53 66.05C134.53 65.86 134.6 65.7 134.73 65.57C134.86 65.44 135.02 65.37 135.23 65.37C135.39 65.37 135.53 65.42 135.64 65.53C135.75 65.63 135.85 65.79 135.93 65.99C136.03 66.23 136.13 66.43 136.24 66.6C136.35 66.77 136.51 66.9 136.71 67C136.91 67.1 137.18 67.16 137.51 67.16C137.97 67.16 138.34 67.05 138.62 66.84C138.91 66.63 139.05 66.36 139.05 66.04C139.05 65.79 138.97 65.58 138.82 65.42C138.67 65.26 138.47 65.14 138.22 65.06C137.98 64.98 137.65 64.89 137.24 64.8C136.69 64.67 136.24 64.52 135.87 64.35C135.5 64.18 135.21 63.95 134.99 63.65C134.77 63.35 134.67 62.99 134.67 62.55C134.67 62.11 134.78 61.76 135.01 61.43C135.24 61.1 135.57 60.85 136 60.68C136.43 60.51 136.94 60.42 137.53 60.42C138 60.42 138.4 60.48 138.74 60.59C139.08 60.71 139.36 60.86 139.59 61.05C139.81 61.24 139.98 61.44 140.08 61.65C140.18 61.86 140.24 62.07 140.24 62.27C140.24 62.45 140.18 62.62 140.05 62.77C139.92 62.92 139.76 62.99 139.56 62.99C139.38 62.99 139.25 62.95 139.16 62.86C139.07 62.77 138.97 62.63 138.86 62.43C138.72 62.14 138.56 61.92 138.36 61.76C138.17 61.6 137.86 61.52 137.43 61.52C137.03 61.52 136.71 61.61 136.47 61.78C136.23 61.95 136.1 62.16 136.1 62.41C136.1 62.56 136.14 62.69 136.22 62.8C136.3 62.91 136.42 63.01 136.56 63.09C136.7 63.17 136.85 63.23 137 63.28C137.15 63.32 137.39 63.39 137.74 63.48C138.17 63.58 138.56 63.69 138.91 63.81C139.26 63.93 139.55 64.08 139.8 64.25C140.04 64.42 140.23 64.64 140.37 64.91C140.51 65.18 140.58 65.5 140.58 65.88H140.57Z" fill="white"/>
<path d="M28.97 28.02H19.04C18.37 28.02 17.81 28.12 17.36 28.33C16.87 28.55 16.5 28.92 16.27 29.41C16.06 29.86 15.95 30.43 15.95 31.1V47.1C15.95 48.09 16.19 48.85 16.67 49.37C17.16 49.9 17.79 50.17 18.56 50.17C19.33 50.17 19.95 49.9 20.44 49.38C20.92 48.87 21.16 48.1 21.16 47.1V40.75H27.6C28.36 40.75 28.95 40.56 29.36 40.2C29.79 39.82 30.01 39.31 30.01 38.68C30.01 38.05 29.8 37.54 29.37 37.15C28.96 36.78 28.36 36.59 27.59 36.59H21.15V32.27H28.95C29.75 32.27 30.37 32.08 30.78 31.69C31.21 31.29 31.43 30.77 31.43 30.14C31.43 29.51 31.21 29 30.78 28.6C30.36 28.22 29.74 28.02 28.95 28.02H28.97Z" fill="white"/>
<path d="M51.3001 28.63C50.8501 28.22 50.1901 28.02 49.3401 28.02H35.9501C35.1401 28.02 34.5001 28.22 34.0401 28.61C33.5601 29.02 33.3201 29.58 33.3201 30.27C33.3201 30.96 33.5501 31.48 34.0101 31.9C34.4501 32.3 35.1001 32.5 35.9501 32.5H40.0501V47.11C40.0501 48.1 40.2901 48.86 40.7701 49.38C41.2601 49.91 41.8901 50.18 42.6601 50.18C43.4301 50.18 44.0501 49.91 44.5301 49.39C45.0001 48.87 45.2401 48.11 45.2401 47.12V32.51H49.3401C50.1801 32.51 50.8401 32.31 51.2901 31.91C51.7601 31.5 52.0001 30.95 52.0001 30.28C52.0001 29.61 51.7701 29.07 51.3001 28.65V28.63Z" fill="white"/>
<path fill-rule="evenodd" clip-rule="evenodd" d="M3.17 22.71C5.09 24.54 7.62 25.55 10.28 25.55C11.47 25.55 12.64 25.35 13.75 24.95C17.4 23.64 19.99 20.44 20.49 16.6L20.51 16.46C20.83 13.98 20.84 13.93 21.46 11.18L23.94 0H10.28L0 15.9C0.16 18.5 1.28 20.9 3.17 22.7V22.71Z" fill="white"/>
<path fill-rule="evenodd" clip-rule="evenodd" d="M44.4299 11.21C45.0399 13.95 45.0499 14 45.3799 16.49V16.61C45.8999 20.45 48.4799 23.65 52.1299 24.96C53.2399 25.36 54.4099 25.56 55.5999 25.56C58.2599 25.56 60.7799 24.55 62.7099 22.72C64.5999 20.92 65.7199 18.51 65.8799 15.92L55.6099 0H41.9399L42.4699 2.4L44.4299 11.21Z" fill="white"/>
<path d="M32.9399 25.55C36.7099 25.55 40.1899 23.5 42.0199 20.2C42.7599 18.86 43.2299 17.14 43.2499 15.69C43.0499 14.23 42.9799 13.9 42.4599 11.58L39.8899 0H25.9899L23.3799 11.74C22.8999 13.91 22.8199 14.27 22.6299 15.7C22.6499 17.15 23.1199 18.87 23.8599 20.21C25.6899 23.51 29.1699 25.56 32.9399 25.56V25.55Z" fill="white"/>
<path fill-rule="evenodd" clip-rule="evenodd" d="M53.0601 65.99L51.3001 57.37H61.5201V28.91C59.9001 29.53 58.1901 29.89 56.4601 29.98V52.3H45.1101L47.2401 62.78L28.6601 52.3H9.43012V29.98C7.70012 29.89 5.98012 29.53 4.37012 28.91V57.37H27.3301L48.5001 69.31C49.5901 69.92 50.8401 69.85 51.8501 69.12C52.8501 68.39 53.3101 67.22 53.0601 66V65.99Z" fill="white"/>
</g>
<defs>
<clipPath id="clip0_365_4097">
<rect width="140.79" height="69.72" fill="white"/>
</clipPath>
</defs>
</svg>
