<svg width="128" height="64" viewBox="0 0 128 64" fill="none" xmlns="http://www.w3.org/2000/svg">
<g clip-path="url(#clip0_400_3957)">
<path d="M79.6614 27.9087C78.9122 27.248 78.0185 26.7684 76.9985 26.4788C75.9965 26.1892 74.6244 26.0535 72.801 26.0535H66.9246C65.7421 26.0535 64.8484 26.334 64.2527 26.886C63.6479 27.4471 63.3409 28.3431 63.3409 29.5467V47.0308C63.3409 48.1078 63.6117 48.9584 64.1443 49.5467C64.695 50.1621 65.4261 50.4788 66.3108 50.4788C67.1954 50.4788 67.8814 50.1621 68.4501 49.5467C69.0007 48.9403 69.2715 48.0897 69.2715 47.0037V41.2571H72.792C75.7528 41.2571 78.0275 40.6055 79.5711 39.3114C81.1418 37.9901 81.9452 36.0444 81.9452 33.5376C81.9452 32.3702 81.7556 31.3023 81.3675 30.3612C80.9793 29.4019 80.4016 28.5784 79.6524 27.9087H79.6614ZM75.9514 33.6281C75.9514 34.3069 75.807 34.8589 75.5091 35.248C75.2112 35.6462 74.7869 35.9358 74.1912 36.1168C73.5322 36.325 72.6927 36.4245 71.6817 36.4245H69.2715V30.8498H71.6817C73.9835 30.8498 74.8952 31.2842 75.2473 31.6372C75.7167 32.144 75.9424 32.7865 75.9424 33.6191L75.9514 33.6281Z" fill="#1B1F3F"/>
<path d="M101.425 27.1849C99.6467 26.1804 97.5074 25.6646 95.0521 25.6646C93.2467 25.6646 91.6038 25.9541 90.1686 26.5243C88.7243 27.1035 87.4786 27.9451 86.4676 29.0401C85.4566 30.1261 84.6803 31.4564 84.1567 32.9949C83.6332 34.5152 83.3714 36.1985 83.3714 38.0084C83.3714 39.8184 83.6242 41.4474 84.1206 42.9677C84.6261 44.5152 85.3844 45.8636 86.3863 46.9677C87.3883 48.0808 88.6521 48.9587 90.1325 49.565C91.6038 50.1713 93.2919 50.47 95.1423 50.47C96.9928 50.47 98.6808 50.1713 100.134 49.5831C101.606 48.9858 102.86 48.117 103.871 46.9949C104.873 45.8817 105.641 44.5424 106.137 43.022C106.633 41.5288 106.886 39.8455 106.886 38.0265C106.886 35.556 106.426 33.375 105.523 31.5288C104.602 29.6555 103.221 28.1894 101.425 27.1668V27.1849ZM100.883 38.0084C100.883 39.6917 100.613 41.1216 100.08 42.2528C99.5564 43.3478 98.8614 44.1713 97.9948 44.6872C97.1282 45.2121 96.1533 45.4745 95.1062 45.4745C94.2848 45.4745 93.5356 45.3207 92.8586 45.022C92.1906 44.7234 91.5858 44.2618 91.0622 43.6555C90.5387 43.0401 90.1144 42.2528 89.8256 41.3026C89.5277 40.3342 89.3742 39.2302 89.3742 38.0084C89.3742 36.7867 89.5277 35.7098 89.8256 34.7505C90.1234 33.8184 90.5206 33.0401 91.0261 32.4519C91.5136 31.8727 92.1093 31.4293 92.7954 31.1216C93.4814 30.8139 94.2487 30.66 95.0611 30.66C96.2075 30.66 97.2366 30.9406 98.1212 31.4926C99.0058 32.0446 99.6648 32.8501 100.152 33.9541C100.649 35.0763 100.901 36.4338 100.901 37.9994L100.883 38.0084Z" fill="#1B1F3F"/>
<path d="M127.314 39.3962C126.863 38.5184 126.222 37.7763 125.409 37.1971C124.642 36.6451 123.694 36.1745 122.602 35.7944C121.546 35.4233 120.354 35.0885 119.082 34.7899C118.08 34.5365 117.357 34.3464 116.924 34.2107C116.527 34.093 116.13 33.9211 115.742 33.7129C115.399 33.5229 115.128 33.2967 114.938 33.0523C114.785 32.8442 114.704 32.5908 114.704 32.2831C114.704 31.9573 114.785 31.4686 115.507 30.9528C116.112 30.5184 116.942 30.3012 117.98 30.3012C119.091 30.3012 119.876 30.4912 120.327 30.8623C120.824 31.2786 121.266 31.8758 121.645 32.6632C121.997 33.3238 122.331 33.8034 122.656 34.1292C123.062 34.5184 123.622 34.7175 124.326 34.7175C125.093 34.7175 125.77 34.4098 126.276 33.8306C126.772 33.2695 127.025 32.6179 127.025 31.903C127.025 31.1881 126.845 30.4822 126.493 29.7582C126.141 29.0523 125.59 28.3736 124.859 27.7401C124.128 27.1157 123.207 26.6089 122.115 26.2378C121.031 25.8668 119.75 25.6858 118.296 25.6858C116.482 25.6858 114.866 25.9663 113.503 26.5184C112.104 27.0885 111.003 27.9211 110.253 28.998C109.495 30.0749 109.116 31.3238 109.116 32.7175C109.116 34.1111 109.486 35.4143 110.208 36.4098C110.912 37.3781 111.878 38.1564 113.079 38.7175C114.207 39.2424 115.624 39.7129 117.294 40.1021C118.486 40.3736 119.443 40.636 120.138 40.8713C120.761 41.0795 121.266 41.3871 121.645 41.7763C121.979 42.1202 122.142 42.5636 122.142 43.1338C122.142 43.8668 121.817 44.4641 121.14 44.9618C120.418 45.5048 119.434 45.7763 118.233 45.7763C117.357 45.7763 116.662 45.6405 116.157 45.3781C115.642 45.1157 115.263 44.7899 114.992 44.3917C114.686 43.9482 114.397 43.3871 114.135 42.7175C113.864 42.0116 113.512 41.4686 113.106 41.0885C112.646 40.6632 112.077 40.446 111.418 40.446C110.633 40.446 109.974 40.7175 109.459 41.2514C108.945 41.7763 108.692 42.4188 108.692 43.1519C108.692 44.2378 109.053 45.36 109.757 46.4731C110.452 47.5772 111.373 48.4731 112.501 49.1338C114.045 50.0387 116.022 50.4912 118.369 50.4912C120.318 50.4912 122.042 50.1564 123.478 49.5048C124.949 48.8351 126.086 47.8849 126.863 46.6903C127.639 45.4957 128.027 44.1202 128.027 42.627C128.027 41.3781 127.802 40.2921 127.341 39.4143L127.314 39.3962Z" fill="#1B1F3F"/>
<path d="M55.939 56.7806H53.1948V58.5453H55.4876C55.7043 58.5453 55.8577 58.5906 55.966 58.6901C56.0744 58.7897 56.1195 58.9164 56.1195 59.0702C56.1195 59.2241 56.0653 59.3598 55.957 59.4503C55.8487 59.5408 55.6952 59.5951 55.4876 59.5951H53.1948V61.8666C53.1948 62.1562 53.1316 62.3644 52.9962 62.5091C52.8608 62.6539 52.6983 62.7173 52.4997 62.7173C52.3012 62.7173 52.1296 62.6449 51.9942 62.5091C51.8679 62.3644 51.7957 62.1562 51.7957 61.8666V56.5725C51.7957 56.3734 51.8227 56.2105 51.8859 56.0838C51.9491 55.9571 52.0394 55.8666 52.1658 55.8033C52.2921 55.749 52.4546 55.7128 52.6532 55.7128H55.9299C56.1556 55.7128 56.3181 55.758 56.4264 55.8576C56.5347 55.9571 56.5889 56.0838 56.5889 56.2467C56.5889 56.4096 56.5347 56.5363 56.4264 56.6358C56.3181 56.7354 56.1556 56.7806 55.9299 56.7806H55.939Z" fill="#1B1F3F"/>
<path d="M57.645 59.7464V56.4342C57.645 56.1536 57.7082 55.9455 57.8346 55.8007C57.961 55.6559 58.1234 55.5925 58.3311 55.5925C58.5387 55.5925 58.7192 55.6649 58.8456 55.8007C58.972 55.9455 59.0351 56.1536 59.0351 56.4342V59.8188C59.0351 60.2079 59.0803 60.5247 59.1615 60.7871C59.2518 61.0495 59.3962 61.2486 59.6219 61.3844C59.8476 61.5201 60.1454 61.6016 60.5426 61.6016C61.0842 61.6016 61.4724 61.4568 61.6981 61.1672C61.9237 60.8776 62.032 60.4342 62.032 59.8459V56.4342C62.032 56.1536 62.0952 55.9364 62.2216 55.8007C62.348 55.6649 62.5105 55.5925 62.7271 55.5925C62.9437 55.5925 63.1062 55.6649 63.2326 55.8007C63.359 55.9364 63.4222 56.1536 63.4222 56.4342V59.7464C63.4222 60.2894 63.368 60.7328 63.2687 61.0948C63.1604 61.4568 62.9708 61.7735 62.6729 62.045C62.4202 62.2803 62.1313 62.4432 61.8064 62.5518C61.4724 62.6604 61.0842 62.7147 60.6419 62.7147C60.1184 62.7147 59.658 62.6604 59.2789 62.5428C58.8997 62.4251 58.5838 62.2532 58.3491 62.0088C58.1054 61.7735 57.9339 61.4658 57.8165 61.0857C57.7082 60.7147 57.645 60.2622 57.645 59.7464Z" fill="#1B1F3F"/>
<path d="M66.2837 56.4342V61.4477H69.1C69.3257 61.4477 69.4972 61.502 69.6146 61.6106C69.7319 61.7192 69.7951 61.855 69.7951 62.0269C69.7951 62.1989 69.7319 62.3346 69.6146 62.4342C69.4972 62.5428 69.3257 62.588 69.091 62.588H65.733C65.4261 62.588 65.2095 62.5247 65.0831 62.3889C64.9477 62.2532 64.8845 62.036 64.8845 61.7373V56.4342C64.8845 56.1536 64.9477 55.9455 65.0741 55.8007C65.2005 55.6559 65.3629 55.5925 65.5706 55.5925C65.7782 55.5925 65.9497 55.6649 66.0761 55.8007C66.2024 55.9364 66.2746 56.1536 66.2746 56.4342H66.2837Z" fill="#1B1F3F"/>
<path d="M72.0788 56.4342V61.4477H74.8951C75.1208 61.4477 75.2923 61.502 75.4097 61.6106C75.527 61.7192 75.5902 61.855 75.5902 62.0269C75.5902 62.1989 75.527 62.3346 75.4097 62.4342C75.2923 62.5428 75.1208 62.588 74.8861 62.588H71.5281C71.2212 62.588 71.0046 62.5247 70.8782 62.3889C70.7428 62.2532 70.6796 62.036 70.6796 61.7373V56.4342C70.6796 56.1536 70.7428 55.9455 70.8692 55.8007C70.9956 55.6559 71.158 55.5925 71.3657 55.5925C71.5733 55.5925 71.7448 55.6649 71.8712 55.8007C71.9975 55.9364 72.0697 56.1536 72.0697 56.4342H72.0788Z" fill="#1B1F3F"/>
<path d="M83.3714 56.8621H81.8549V61.8666C81.8549 62.1562 81.7917 62.3644 81.6654 62.5091C81.539 62.6449 81.3675 62.7173 81.1689 62.7173C80.9703 62.7173 80.7988 62.6449 80.6634 62.5091C80.537 62.3644 80.4738 62.1562 80.4738 61.8666V56.8621H78.9573C78.7226 56.8621 78.5421 56.8078 78.4247 56.7082C78.3074 56.6087 78.2532 56.4639 78.2532 56.292C78.2532 56.12 78.3164 55.9752 78.4338 55.8666C78.5511 55.7671 78.7317 55.7128 78.9573 55.7128H83.3805C83.6242 55.7128 83.7957 55.7671 83.913 55.8757C84.0304 55.9843 84.0845 56.12 84.0845 56.292C84.0845 56.4639 84.0214 56.5996 83.904 56.7082C83.7867 56.8168 83.6061 56.8621 83.3714 56.8621Z" fill="#1B1F3F"/>
<path d="M89.4286 56.7826H86.2963V58.4749H89.1848C89.4015 58.4749 89.5549 58.5202 89.6633 58.6197C89.7716 58.7193 89.8167 58.846 89.8167 58.9998C89.8167 59.1537 89.7625 59.2804 89.6633 59.3799C89.564 59.4794 89.4015 59.5247 89.1848 59.5247H86.2963V61.4794H89.5369C89.7535 61.4794 89.916 61.5337 90.0333 61.6333C90.1417 61.7328 90.1958 61.8686 90.1958 62.0405C90.1958 62.2125 90.1417 62.3392 90.0333 62.4387C89.925 62.5383 89.7535 62.5926 89.5369 62.5926H85.7546C85.4568 62.5926 85.2311 62.5292 85.1047 62.3935C84.9783 62.2577 84.9061 62.0405 84.9061 61.7419V56.5654C84.9061 56.3663 84.9332 56.2034 84.9964 56.0767C85.0596 55.95 85.1499 55.8595 85.2762 55.7962C85.4026 55.7419 85.5651 55.7057 85.7637 55.7057H89.4376C89.6633 55.7057 89.8257 55.7509 89.9341 55.8505C90.0424 55.95 90.0965 56.0767 90.0965 56.2396C90.0965 56.4025 90.0424 56.5292 89.9341 56.6288C89.8257 56.7283 89.6633 56.7736 89.4376 56.7736L89.4286 56.7826Z" fill="#1B1F3F"/>
<path d="M95.702 61.8097L95.377 60.9409H92.5877L92.2628 61.8278C92.1364 62.1717 92.0281 62.407 91.9378 62.5247C91.8476 62.6423 91.7031 62.7057 91.4955 62.7057C91.324 62.7057 91.1615 62.6423 91.0351 62.5156C90.8997 62.3889 90.8365 62.2441 90.8365 62.0812C90.8365 61.9907 90.8546 61.8912 90.8817 61.7916C90.9178 61.6921 90.9629 61.5563 91.0351 61.3753L92.7954 56.9047C92.8405 56.7781 92.9037 56.6242 92.9759 56.4432C93.0481 56.2622 93.1203 56.1174 93.2016 55.9907C93.2828 55.8731 93.3821 55.7735 93.5175 55.7011C93.6439 55.6287 93.8064 55.5925 93.9959 55.5925C94.1855 55.5925 94.348 55.6287 94.4834 55.7011C94.6098 55.7735 94.7181 55.8731 94.7993 55.9817C94.8806 56.0903 94.9437 56.226 94.9979 56.3527C95.0521 56.4794 95.1243 56.6604 95.2055 56.8866L97.0019 61.3301C97.1463 61.6649 97.2095 61.9183 97.2095 62.0631C97.2095 62.2079 97.1463 62.3708 97.0109 62.5066C96.8755 62.6423 96.722 62.7057 96.5325 62.7057C96.4241 62.7057 96.3339 62.6876 96.2526 62.6514C96.1714 62.6152 96.1082 62.5609 96.054 62.4885C95.9999 62.4251 95.9457 62.3165 95.8825 62.1808C95.8193 62.045 95.7652 61.9183 95.7291 61.8097H95.702ZM92.9488 59.9002H94.9979L93.9598 57.0586L92.9398 59.9002H92.9488Z" fill="#1B1F3F"/>
<path d="M100.522 61.5609L99.4209 57.1718V61.9229C99.4209 62.1853 99.3667 62.3844 99.2494 62.5111C99.132 62.6469 98.9786 62.7102 98.78 62.7102C98.5814 62.7102 98.437 62.6469 98.3196 62.5111C98.2023 62.3754 98.1391 62.1853 98.1391 61.9138V56.4659C98.1391 56.1672 98.2203 55.9591 98.3738 55.8595C98.5273 55.7509 98.7439 55.7057 99.0057 55.7057H99.439C99.7007 55.7057 99.8903 55.7328 100.008 55.7781C100.125 55.8233 100.215 55.9138 100.269 56.0315C100.324 56.1582 100.387 56.3482 100.459 56.6288L101.461 60.4025L102.463 56.6288C102.535 56.3573 102.598 56.1582 102.652 56.0315C102.707 55.9138 102.797 55.8233 102.914 55.7781C103.032 55.7328 103.221 55.7057 103.474 55.7057H103.907C104.169 55.7057 104.386 55.76 104.539 55.8595C104.693 55.9681 104.774 56.1672 104.774 56.4659V61.9138C104.774 62.1763 104.72 62.3754 104.602 62.5021C104.485 62.6378 104.331 62.7012 104.133 62.7012C103.952 62.7012 103.799 62.6378 103.682 62.5021C103.564 62.3663 103.501 62.1763 103.501 61.9138V57.1627L102.4 61.5518C102.328 61.8324 102.273 62.0496 102.219 62.1763C102.174 62.312 102.093 62.4297 101.966 62.5383C101.84 62.6469 101.678 62.7012 101.461 62.7012C101.298 62.7012 101.163 62.665 101.046 62.5926C100.937 62.5202 100.847 62.4297 100.784 62.3211C100.721 62.2125 100.676 62.0948 100.64 61.9591C100.603 61.8233 100.567 61.6876 100.531 61.5428L100.522 61.5609Z" fill="#1B1F3F"/>
<path d="M111.264 59.9138H109.992V61.8595C109.992 62.1401 109.928 62.3482 109.793 62.493C109.667 62.6378 109.495 62.7102 109.297 62.7102C109.098 62.7102 108.917 62.6378 108.791 62.493C108.665 62.3482 108.601 62.1401 108.601 61.8686V56.5654C108.601 56.2577 108.674 56.0405 108.809 55.9048C108.953 55.769 109.17 55.7057 109.477 55.7057H111.264C111.788 55.7057 112.194 55.7419 112.483 55.8233C112.763 55.9048 113.007 56.0315 113.214 56.2125C113.422 56.3935 113.575 56.6197 113.684 56.8822C113.792 57.1446 113.846 57.4432 113.846 57.769C113.846 58.4749 113.629 58.9998 113.196 59.3618C112.763 59.7238 112.122 59.9048 111.273 59.9048L111.264 59.9138ZM110.93 56.7555H109.992V58.8641H110.93C111.255 58.8641 111.535 58.8279 111.752 58.7645C111.968 58.7012 112.14 58.5835 112.257 58.4297C112.375 58.2758 112.429 58.0677 112.429 57.8143C112.429 57.5066 112.339 57.2623 112.158 57.0722C111.959 56.8641 111.544 56.7645 110.921 56.7645L110.93 56.7555Z" fill="#1B1F3F"/>
<path d="M118.016 55.5925C118.729 55.5925 119.343 55.7373 119.849 56.0269C120.363 56.3165 120.742 56.7328 121.013 57.2667C121.275 57.8007 121.41 58.4251 121.41 59.1491C121.41 59.683 121.338 60.1627 121.194 60.5971C121.049 61.0314 120.833 61.4115 120.544 61.7283C120.255 62.045 119.903 62.2894 119.488 62.4613C119.072 62.6333 118.594 62.7147 118.052 62.7147C117.511 62.7147 117.032 62.6242 116.608 62.4523C116.184 62.2803 115.832 62.036 115.543 61.7192C115.254 61.4025 115.046 61.0224 114.902 60.579C114.758 60.1355 114.685 59.6559 114.685 59.14C114.685 58.6242 114.758 58.1265 114.911 57.683C115.064 57.2396 115.281 56.8685 115.57 56.5518C115.859 56.2441 116.211 56.0088 116.617 55.8369C117.032 55.674 117.502 55.5925 118.025 55.5925H118.016ZM119.993 59.131C119.993 58.6242 119.912 58.1898 119.749 57.8188C119.587 57.4477 119.352 57.1672 119.054 56.9771C118.756 56.7871 118.404 56.6966 118.016 56.6966C117.736 56.6966 117.484 56.7509 117.249 56.8504C117.014 56.959 116.807 57.1038 116.644 57.312C116.473 57.5111 116.337 57.7645 116.238 58.0812C116.139 58.3889 116.093 58.7418 116.093 59.131C116.093 59.5201 116.139 59.8731 116.238 60.1898C116.337 60.5066 116.473 60.769 116.653 60.9771C116.834 61.1853 117.041 61.3391 117.267 61.4477C117.493 61.5563 117.754 61.6016 118.034 61.6016C118.386 61.6016 118.72 61.5111 119.018 61.3301C119.316 61.1491 119.551 60.8776 119.731 60.5066C119.912 60.1355 119.993 59.674 119.993 59.131Z" fill="#1B1F3F"/>
<path d="M127.81 60.5266C127.81 60.9429 127.702 61.314 127.485 61.6488C127.269 61.9836 126.962 62.237 126.547 62.4271C126.131 62.6171 125.644 62.7076 125.084 62.7076C124.407 62.7076 123.848 62.5809 123.405 62.3185C123.089 62.1375 122.837 61.8841 122.647 61.5764C122.448 61.2687 122.358 60.9701 122.358 60.6805C122.358 60.5085 122.421 60.3637 122.539 60.2461C122.656 60.1284 122.8 60.0651 122.99 60.0651C123.134 60.0651 123.261 60.1103 123.36 60.2099C123.459 60.3004 123.55 60.4452 123.622 60.6262C123.712 60.8434 123.802 61.0244 123.902 61.1782C124.001 61.3321 124.145 61.4497 124.326 61.5402C124.507 61.6307 124.75 61.685 125.048 61.685C125.463 61.685 125.797 61.5854 126.05 61.3954C126.312 61.2054 126.438 60.961 126.438 60.6714C126.438 60.4452 126.366 60.2551 126.231 60.1103C126.095 59.9655 125.915 59.8569 125.689 59.7845C125.472 59.7121 125.175 59.6307 124.804 59.5493C124.308 59.4316 123.902 59.2959 123.568 59.142C123.234 58.9882 122.972 58.78 122.773 58.5085C122.575 58.237 122.485 57.9112 122.485 57.5131C122.485 57.1149 122.584 56.7981 122.791 56.4995C122.999 56.2008 123.297 55.9746 123.685 55.8207C124.073 55.6669 124.534 55.5854 125.066 55.5854C125.49 55.5854 125.852 55.6397 126.158 55.7393C126.465 55.8479 126.718 55.9836 126.926 56.1556C127.124 56.3275 127.278 56.5085 127.368 56.6986C127.458 56.8886 127.512 57.0787 127.512 57.2597C127.512 57.4226 127.458 57.5764 127.341 57.7121C127.224 57.8479 127.079 57.9112 126.899 57.9112C126.736 57.9112 126.619 57.875 126.538 57.7936C126.456 57.7121 126.366 57.5855 126.267 57.4045C126.14 57.142 125.996 56.9429 125.815 56.7981C125.644 56.6533 125.364 56.5809 124.976 56.5809C124.615 56.5809 124.326 56.6624 124.109 56.8162C123.893 56.9701 123.775 57.1601 123.775 57.3864C123.775 57.5221 123.811 57.6397 123.884 57.7393C123.956 57.8388 124.064 57.9293 124.191 58.0017C124.317 58.0741 124.452 58.1284 124.588 58.1737C124.723 58.2099 124.94 58.2732 125.256 58.3547C125.644 58.4452 125.996 58.5447 126.312 58.6533C126.628 58.7619 126.89 58.8977 127.115 59.0515C127.332 59.2054 127.503 59.4045 127.63 59.6488C127.756 59.8931 127.819 60.1827 127.819 60.5266H127.81Z" fill="#1B1F3F"/>
<path d="M27.0716 26.2655H18.1079C17.5031 26.2655 16.9976 26.356 16.5914 26.546C16.1491 26.7451 15.8151 27.08 15.6075 27.5234C15.418 27.9307 15.3187 28.4465 15.3187 29.0528V43.5325C15.3187 44.4284 15.5353 45.1162 15.9686 45.5868C16.4109 46.0664 16.9796 46.3107 17.6747 46.3107C18.3697 46.3107 18.9294 46.0664 19.3717 45.5958C19.805 45.1343 20.0216 44.4374 20.0216 43.5325V37.7859H25.8349C26.5209 37.7859 27.0535 37.6139 27.4236 37.2881C27.8118 36.9442 28.0103 36.4827 28.0103 35.9126C28.0103 35.3424 27.8208 34.8809 27.4326 34.5279C27.0625 34.1931 26.5209 34.0212 25.8259 34.0212H20.0126V30.1117H27.0535C27.7756 30.1117 28.3353 29.9397 28.7054 29.5868C29.0936 29.2248 29.2921 28.7542 29.2921 28.1841C29.2921 27.6139 29.0936 27.1524 28.7054 26.7904C28.3263 26.4465 27.7666 26.2655 27.0535 26.2655H27.0716Z" fill="#1B1F3F"/>
<path d="M47.2284 26.8175C46.8222 26.4465 46.2264 26.2655 45.4592 26.2655H33.3723C32.6411 26.2655 32.0634 26.4465 31.6482 26.7994C31.2149 27.1705 30.9982 27.6773 30.9982 28.3017C30.9982 28.9261 31.2058 29.3967 31.6211 29.7768C32.0183 30.1388 32.605 30.3198 33.3723 30.3198H37.0733V43.5415C37.0733 44.4374 37.2899 45.1252 37.7232 45.5958C38.1655 46.0755 38.7342 46.3198 39.4293 46.3198C40.1243 46.3198 40.684 46.0755 41.1173 45.6049C41.5415 45.1343 41.7582 44.4465 41.7582 43.5506V30.3288H45.4592C46.2174 30.3288 46.8132 30.1479 47.2194 29.7859C47.6436 29.4148 47.8603 28.9171 47.8603 28.3108C47.8603 27.7044 47.6527 27.2157 47.2284 26.8356V26.8175Z" fill="#1B1F3F"/>
<path fill-rule="evenodd" clip-rule="evenodd" d="M22.9281 3.27602L23.6592 0H9.70381L6.32779 5.24887L0 15.0498C0.090268 17.8281 1.29083 20.3167 3.15938 22.1086C4.99182 23.8552 7.46516 24.9321 10.2003 24.9321C11.4099 24.9321 12.5653 24.724 13.6395 24.3348C17.178 23.0679 19.8138 19.8914 20.3103 16.0452C20.6533 13.4208 20.5992 13.7828 21.3845 10.2443L22.9281 3.26697V3.27602Z" fill="#005EEC"/>
<path fill-rule="evenodd" clip-rule="evenodd" d="M38.3729 3.27602L37.6508 0H51.6062L54.9822 5.24887L61.301 15.0588C61.2107 17.8371 60.0101 20.3258 58.1416 22.1176C56.3092 23.8643 53.8358 24.9412 51.1007 24.9412C49.8911 24.9412 48.7357 24.733 47.6615 24.3439C44.123 23.0769 41.4962 19.9005 40.9907 16.0543C40.6477 13.4299 40.7018 13.7919 39.9165 10.2534L38.3729 3.27602Z" fill="#005EEC"/>
<path fill-rule="evenodd" clip-rule="evenodd" d="M0 15.0522C0.090268 17.8305 1.29083 20.3192 3.15938 22.1111C4.99182 23.8577 7.46516 24.9346 10.2003 24.9346C11.4099 24.9346 12.5653 24.7265 13.6395 24.3373C17.178 23.0703 19.8138 19.8939 20.3103 16.0477C20.3645 15.6586 20.4006 15.3328 20.4367 15.0522H0ZM61.31 15.0522C61.2197 17.8305 60.0192 20.3192 58.1506 22.1111C56.3182 23.8577 53.8449 24.9346 51.1097 24.9346C49.9001 24.9346 48.7447 24.7265 47.6705 24.3373C44.132 23.0703 41.5052 19.8939 40.9997 16.0477C40.9456 15.6586 40.9095 15.3328 40.8733 15.0522H61.31Z" fill="#043DD5"/>
<path fill-rule="evenodd" clip-rule="evenodd" d="M40.8733 15.095C40.9726 15.8552 41.0539 16.4434 40.8733 15.095V15.095ZM20.4366 15.095L30.655 24.9412C34.5275 24.9412 37.8945 22.7964 39.6457 19.629C40.3768 18.3077 40.8643 16.5701 40.8733 15.0588C40.6567 13.457 40.5935 13.267 39.9255 10.2534L38.3819 3.27602L37.6598 0H23.6592L22.928 3.27602L21.3845 10.2534C20.7165 13.267 20.6533 13.457 20.4457 15.0588C20.4457 16.5701 20.9421 18.3077 21.6733 19.629C23.4245 22.7964 26.7915 24.9412 30.655 24.9412L20.4366 15.095Z" fill="#F5FAFF"/>
<path fill-rule="evenodd" clip-rule="evenodd" d="M40.8734 15.0955C40.9727 15.8557 41.054 16.4439 40.8734 15.0955V15.0955ZM20.4368 15.0955L30.6551 24.9417C34.5276 24.9417 37.8946 22.7969 39.6458 19.6295C40.377 18.3082 40.8644 16.5706 40.8734 15.0593H20.4368C20.4368 16.5706 20.9332 18.3082 21.6644 19.6295C23.4156 22.7969 26.7826 24.9417 30.6461 24.9417L20.4368 15.0955Z" fill="#D0D5DD"/>
<path fill-rule="evenodd" clip-rule="evenodd" d="M48.808 60.623L47.2193 52.8221H56.4447V27.0664C54.9823 27.6275 53.4387 27.9533 51.8771 28.0347V48.2338H41.6317L43.5544 57.718L26.7826 48.2338H9.4331V28.0257C7.87146 27.9443 6.31885 27.6185 4.86554 27.0574V52.813H25.582L44.6918 63.6185C45.6757 64.1705 46.804 64.1071 47.7157 63.4465C48.6184 62.7859 49.0337 61.7271 48.808 60.623Z" fill="#005EEC"/>
</g>
<defs>
<clipPath id="clip0_400_3957">
<rect width="128" height="64" fill="white"/>
</clipPath>
</defs>
</svg>
